0
SECTION
2
HEADER
9
$INSUNITS
70
4
9
$ACADVER
1
AC1014
9
$HANDSEED
5
FFFF
0
ENDSEC
0
SECTION
2
TABLES
0
TABLE
2
VPORT
5
8
100
AcDbSymbolTable
0
ENDTAB
0
TABLE
2
LTYPE
5
5
100
AcDbSymbolTable
0
LTYPE
5
14
100
AcDbSymbolTableRecord
100
AcDbLinetypeTableRecord
2
BYBLOCK
70
0
0
LTYPE
5
15
100
AcDbSymbolTableRecord
100
AcDbLinetypeTableRecord
2
BYLAYER
70
0
0
ENDTAB
0
TABLE
2
LAYER
5
2
100
AcDbSymbolTable
70
2
0
LAYER
5
50
100
AcDbSymbolTableRecord
100
AcDbLayerTableRecord
2
0
70
0
6
CONTINUOUS
0
ENDTAB
0
TABLE
2
STYLE
5
3
100
AcDbSymbolTable
70
1
0
STYLE
5
11
100
AcDbSymbolTableRecord
100
AcDbTextStyleTableRecord
2
STANDARD
70
0
0
ENDTAB
0
TABLE
2
VIEW
5
6
100
AcDbSymbolTable
70
0
0
ENDTAB
0
TABLE
2
UCS
5
7
100
AcDbSymbolTable
70
0
0
ENDTAB
0
TABLE
2
APPID
5
9
100
AcDbSymbolTable
70
2
0
APPID
5
12
100
AcDbSymbolTableRecord
100
AcDbRegAppTableRecord
2
ACAD
70
0
0
ENDTAB
0
TABLE
2
DIMSTYLE
5
A
100
AcDbSymbolTable
70
1
0
ENDTAB
0
TABLE
2
BLOCK_RECORD
5
1
100
AcDbSymbolTable
70
1
0
BLOCK_RECORD
5
1F
100
AcDbSymbolTableRecord
100
AcDbBlockTableRecord
2
*MODEL_SPACE
0
BLOCK_RECORD
5
1B
100
AcDbSymbolTableRecord
100
AcDbBlockTableRecord
2
*PAPER_SPACE
0
ENDTAB
0
ENDSEC
0
SECTION
2
BLOCKS
0
BLOCK
5
20
100
AcDbEntity
100
AcDbBlockBegin
2
*MODEL_SPACE
0
ENDBLK
5
21
100
AcDbEntity
100
AcDbBlockEnd
0
BLOCK
5
1C
100
AcDbEntity
100
AcDbBlockBegin
2
*PAPER_SPACE
0
ENDBLK
5
1D
100
AcDbEntity
100
AcDbBlockEnd
0
ENDSEC
0
SECTION
2
ENTITIES
0
LINE
5
100
100
AcDbEntity
8
OUTER_PROFILES
100
AcDbLine
10
-15.000000000000032
20
80.523893421169305
30
0
11
28.999999999999901
21
80.523893421169319
31
0
0
ARC
5
101
100
AcDbEntity
8
OUTER_PROFILES
100
AcDbCircle
10
-28.999999999999897
20
75.523893421169305
30
0
40
5.0000000000000089
210
0
220
0
230
-1
100
AcDbArc
50
90.000000000000043
51
180
0
LINE
5
102
100
AcDbEntity
8
OUTER_PROFILES
100
AcDbLine
10
33.999999999999901
20
75.523893421169305
30
0
11
33.999999999999943
21
64.523893421169319
31
0
0
LINE
5
103
100
AcDbEntity
8
OUTER_PROFILES
100
AcDbLine
10
33.999999999999943
20
64.523893421169319
30
0
11
35.999999999999908
21
59.999999999999986
31
0
0
LINE
5
104
100
AcDbEntity
8
OUTER_PROFILES
100
AcDbLine
10
35.999999999999908
20
59.999999999999986
30
0
11
46
21
49.999999999999915
31
0
0
SPLINE
5
105
100
AcDbEntity
8
OUTER_PROFILES
100
AcDbSpline
70
0
71
3
72
8
73
4
74
0
42
0.000000001
43
0.0000000001
44
0.0000000001
40
0.78539816339741719
40
0.78539816339741719
40
0.78539816339741719
40
0.78539816339741719
40
1.5707963267949063
40
1.5707963267949063
40
1.5707963267949063
40
1.5707963267949063
10
48.261946710584766
20
48.585786437626751
30
0
10
47.50796447372317
20
48.956026682473286
30
0
10
46.753982236861582
20
49.476401224401584
30
0
10
46
20
49.999999999999915
30
0
0
SPLINE
5
106
100
AcDbEntity
8
OUTER_PROFILES
100
AcDbSpline
70
0
71
3
72
8
73
4
74
0
42
0.000000001
43
0.0000000001
44
0.0000000001
40
-9.6541132576101108e-17
40
-9.6541132576101108e-17
40
-9.6541132576101108e-17
40
-9.6541132576101108e-17
40
0.78539816339741719
40
0.78539816339741719
40
0.78539816339741719
40
0.78539816339741719
10
50.523893421169326
20
47.999999999999886
30
0
10
49.769911184307809
20
47.999999999999886
30
0
10
49.015928947446284
20
48.215546192780245
30
0
10
48.261946710584766
20
48.585786437626751
30
0
0
LINE
5
107
100
AcDbEntity
8
OUTER_PROFILES
100
AcDbLine
10
50.523893421169326
20
47.999999999999886
30
0
11
146.5238934211693
21
47.999999999999979
31
0
0
SPLINE
5
108
100
AcDbEntity
8
OUTER_PROFILES
100
AcDbSpline
70
0
71
3
72
8
73
4
74
0
42
0.000000001
43
0.0000000001
44
0.0000000001
40
-0.78539816339744051
40
-0.78539816339744051
40
-0.78539816339744051
40
-0.78539816339744051
40
3.8616453030440217e-16
40
3.8616453030440217e-16
40
3.8616453030440217e-16
40
3.8616453030440217e-16
10
148.7858401317539
20
48.585786437626965
30
0
10
148.03185789489237
20
48.215546192780437
30
0
10
147.27787565803084
20
48.000000000000071
30
0
10
146.5238934211693
20
48.000000000000071
30
0
0
SPLINE
5
109
100
AcDbEntity
8
OUTER_PROFILES
100
AcDbSpline
70
0
71
3
72
8
73
4
74
0
42
0.000000001
43
0.0000000001
44
0.0000000001
40
-1.5707963267948897
40
-1.5707963267948897
40
-1.5707963267948897
40
-1.5707963267948897
40
-0.78539816339744051
40
-0.78539816339744051
40
-0.78539816339744051
40
-0.78539816339744051
10
151.04778684233855
20
50.000000000000057
30
0
10
150.29380460547702
20
49.476401224401755
30
0
10
149.53982236861546
20
48.956026682473492
30
0
10
148.7858401317539
20
48.585786437626965
30
0
0
LINE
5
110
100
AcDbEntity
8
OUTER_PROFILES
100
AcDbLine
10
151.04778684233855
20
50.000000000000057
30
0
11
161.0477868423385
21
59.999999999999972
31
0
0
LINE
5
111
100
AcDbEntity
8
OUTER_PROFILES
100
AcDbLine
10
161.0477868423385
20
59.999999999999972
30
0
11
163.04778684233844
21
64.523893421169291
31
0
0
LINE
5
112
100
AcDbEntity
8
OUTER_PROFILES
100
AcDbLine
10
163.04778684233844
20
64.523893421169291
30
0
11
163.04778684233844
21
75.523893421169305
31
0
0
ARC
5
113
100
AcDbEntity
8
OUTER_PROFILES
100
AcDbCircle
10
-168.04778684233844
20
75.523893421169305
30
0
40
5
210
0
220
0
230
-1
100
AcDbArc
50
0
51
90
0
LINE
5
114
100
AcDbEntity
8
OUTER_PROFILES
100
AcDbLine
10
168.04778684233844
20
80.523893421169305
30
0
11
212.04778684233858
21
80.523893421169305
31
0
0
ARC
5
115
100
AcDbEntity
8
OUTER_PROFILES
100
AcDbCircle
10
-212.04778684233858
20
75.523893421169305
30
0
40
4.9999999999999911
210
0
220
0
230
-1
100
AcDbArc
50
90
51
180
0
LINE
5
116
100
AcDbEntity
8
OUTER_PROFILES
100
AcDbLine
10
217.04778684233858
20
75.523893421169333
30
0
11
217.04778684233861
21
19.999999999999982
31
0
0
ARC
5
117
100
AcDbEntity
8
OUTER_PROFILES
100
AcDbCircle
10
-197.04778684233861
20
19.999999999999972
30
0
40
20
210
0
220
0
230
-1
100
AcDbArc
50
180
51
270
0
LINE
5
118
100
AcDbEntity
8
OUTER_PROFILES
100
AcDbLine
10
197.04778684233861
20
-2.4424906541753444e-14
30
0
11
0
21
2.2204460492503131e-15
31
0
0
ARC
5
119
100
AcDbEntity
8
OUTER_PROFILES
100
AcDbCircle
10
0
20
20
30
0
40
19.999999999999996
210
0
220
-0
230
-1
100
AcDbArc
50
270
51
360
0
LINE
5
120
100
AcDbEntity
8
OUTER_PROFILES
100
AcDbLine
10
-19.999999999999996
20
19.999999999999993
30
0
11
-20.000000000000036
21
75.523893421169305
31
0
0
ARC
5
121
100
AcDbEntity
8
OUTER_PROFILES
100
AcDbCircle
10
15.000000000000036
20
75.523893421169305
30
0
40
5
210
0
220
0
230
-1
100
AcDbArc
50
0
51
90.000000000000043
0
CIRCLE
5
122
100
AcDbEntity
8
INTERIOR_PROFILES
100
AcDbCircle
10
12.000000000000037
20
72.523893421169305
30
0
40
2.2500000000000053
210
0
220
0
230
-1
0
CIRCLE
5
123
100
AcDbEntity
8
INTERIOR_PROFILES
100
AcDbCircle
10
-171.04778719996645
20
72.523894345041256
30
0
40
2.2500000000000142
210
0
220
0
230
-1
0
CIRCLE
5
124
100
AcDbEntity
8
INTERIOR_PROFILES
100
AcDbCircle
10
-78.523893421169305
20
33.999999999999972
30
0
40
10
210
0
220
0
230
-1
0
CIRCLE
5
125
100
AcDbEntity
8
INTERIOR_PROFILES
100
AcDbCircle
10
-209.04778684233861
20
72.523893421169305
30
0
40
2.2500000000000142
210
0
220
0
230
-1
0
CIRCLE
5
126
100
AcDbEntity
8
INTERIOR_PROFILES
100
AcDbCircle
10
-118.52389342116933
20
33.999999999999979
30
0
40
10
210
0
220
0
230
-1
0
CIRCLE
5
127
100
AcDbEntity
8
INTERIOR_PROFILES
100
AcDbCircle
10
-83.523893421169305
20
15.999999999999972
30
0
40
2.9999999999999893
210
0
220
0
230
-1
0
CIRCLE
5
128
100
AcDbEntity
8
INTERIOR_PROFILES
100
AcDbCircle
10
-113.5238934211693
20
15.999999999999982
30
0
40
2.9999999999999893
210
0
220
0
230
-1
0
CIRCLE
5
129
100
AcDbEntity
8
INTERIOR_PROFILES
100
AcDbCircle
10
-98.523893421169305
20
15.999999999999979
30
0
40
5
210
0
220
0
230
-1
0
CIRCLE
5
130
100
AcDbEntity
8
INTERIOR_PROFILES
100
AcDbCircle
10
-25.999999642372202
20
72.523894345041398
30
0
40
2.2500000000000009
210
0
220
0
230
-1
0
LINE
5
131
100
AcDbEntity
8
BEND
100
AcDbLine
10
48.261946710584695
20
-7.4016141932909068e-17
30
-4.9443272079293969e-14
11
48.261946710584752
21
48.585786437626751
31
-5.331561818880301e-14
0
LINE
5
132
100
AcDbEntity
8
BEND
100
AcDbLine
10
148.7858401317539
20
48.585786437626965
30
-6.8198471858486456e-13
11
148.78584013175396
21
-5.3290705182007514e-14
31
-6.8034070003358806e-13
0
LINE
5
133
100
AcDbEntity
8
BEND
100
AcDbLine
10
34.999999999999957
20
62.261946710584645
30
-3.6111694110192529e-14
11
-20.000000000000018
21
62.261946710584645
31
4.5093700217599622e-14
0
LINE
5
134
100
AcDbEntity
8
BEND
100
AcDbLine
10
217.04778684233858
20
62.261946710584688
30
-8.051960541040572e-13
11
162.0477868423385
21
62.261946710584652
31
-7.6024625483042486e-13
0
LINE
5
135
100
AcDbEntity
8
BEND_EXTENT
100
AcDbLine
10
46
20
-1.6579330501068598e-15
30
-6.2215697808818452e-14
11
46
21
49.999999999999915
31
8.8385757671915725e-15
0
LINE
5
136
100
AcDbEntity
8
BEND_EXTENT
100
AcDbLine
10
35.999999999999908
20
59.999999999999986
30
-2.6665811195590077e-15
11
-19.999999999999993
21
59.999999999999986
31
3.8635239304270485e-14
0
LINE
5
137
100
AcDbEntity
8
BEND_EXTENT
100
AcDbLine
10
-20.000000000000036
20
64.523893421169305
30
3.7525016279645581e-14
11
33.99999999999995
21
64.523893421169319
31
4.9783287743756715e-14
0
LINE
5
138
100
AcDbEntity
8
BEND_EXTENT
100
AcDbLine
10
163.04778684233844
20
64.523893421169291
30
-7.5866986008615385e-13
11
217.04778684233858
21
64.523893421169333
31
-8.2750383701610151e-13
0
LINE
5
139
100
AcDbEntity
8
BEND_EXTENT
100
AcDbLine
10
217.04778684233858
20
60
30
-8.0585448803591096e-13
11
161.0477868423385
21
59.999999999999972
31
-7.1211720997916719e-13
0
LINE
5
140
100
AcDbEntity
8
BEND_EXTENT
100
AcDbLine
10
151.04778684233858
20
50.000000000000057
30
-6.8723998252881931e-13
11
151.04778684233861
21
-5.3290705182007514e-14
31
-6.9612176672582056e-13
0
LINE
5
141
100
AcDbEntity
8
BEND_EXTENT
100
AcDbLine
10
50.523893421169326
20
47.999999999999972
30
3.5520519204224929e-14
11
50.523893421169319
21
-3.5527136788005009e-14
31
-5.5517768815037845e-14
0
LINE
5
142
100
AcDbEntity
8
BEND_EXTENT
100
AcDbLine
10
146.52389342116933
20
-5.5280097394250157e-14
30
-6.672925589315965e-13
11
146.5238934211693
21
47.999999999999979
31
-7.5277973182773335e-13
0
ENDSEC
0
SECTION
2
OBJECTS
0
DICTIONARY
5
C
100
AcDbDictionary
3
ACAD_GROUP
350
D
3
ACAD_MLINESTYLE
350
17
0
DICTIONARY
5
D
100
AcDbDictionary
0
DICTIONARY
5
1A
330
C
100
AcDbDictionary
0
DICTIONARY
5
17
100
AcDbDictionary
0
ENDSEC
0
EOF
