0
SECTION
2
HEADER
9
$INSUNITS
70
4
9
$ACADVER
1
AC1014
9
$HANDSEED
5
FFFF
0
ENDSEC
0
SECTION
2
TABLES
0
TABLE
2
VPORT
5
8
100
AcDbSymbolTable
0
ENDTAB
0
TABLE
2
LTYPE
5
5
100
AcDbSymbolTable
0
LTYPE
5
14
100
AcDbSymbolTableRecord
100
AcDbLinetypeTableRecord
2
BYBLOCK
70
0
0
LTYPE
5
15
100
AcDbSymbolTableRecord
100
AcDbLinetypeTableRecord
2
BYLAYER
70
0
0
ENDTAB
0
TABLE
2
LAYER
5
2
100
AcDbSymbolTable
70
2
0
LAYER
5
50
100
AcDbSymbolTableRecord
100
AcDbLayerTableRecord
2
0
70
0
6
CONTINUOUS
0
ENDTAB
0
TABLE
2
STYLE
5
3
100
AcDbSymbolTable
70
1
0
STYLE
5
11
100
AcDbSymbolTableRecord
100
AcDbTextStyleTableRecord
2
STANDARD
70
0
0
ENDTAB
0
TABLE
2
VIEW
5
6
100
AcDbSymbolTable
70
0
0
ENDTAB
0
TABLE
2
UCS
5
7
100
AcDbSymbolTable
70
0
0
ENDTAB
0
TABLE
2
APPID
5
9
100
AcDbSymbolTable
70
2
0
APPID
5
12
100
AcDbSymbolTableRecord
100
AcDbRegAppTableRecord
2
ACAD
70
0
0
ENDTAB
0
TABLE
2
DIMSTYLE
5
A
100
AcDbSymbolTable
70
1
0
ENDTAB
0
TABLE
2
BLOCK_RECORD
5
1
100
AcDbSymbolTable
70
1
0
BLOCK_RECORD
5
1F
100
AcDbSymbolTableRecord
100
AcDbBlockTableRecord
2
*MODEL_SPACE
0
BLOCK_RECORD
5
1B
100
AcDbSymbolTableRecord
100
AcDbBlockTableRecord
2
*PAPER_SPACE
0
ENDTAB
0
ENDSEC
0
SECTION
2
BLOCKS
0
BLOCK
5
20
100
AcDbEntity
100
AcDbBlockBegin
2
*MODEL_SPACE
0
ENDBLK
5
21
100
AcDbEntity
100
AcDbBlockEnd
0
BLOCK
5
1C
100
AcDbEntity
100
AcDbBlockBegin
2
*PAPER_SPACE
0
ENDBLK
5
1D
100
AcDbEntity
100
AcDbBlockEnd
0
ENDSEC
0
SECTION
2
ENTITIES
0
LWPOLYLINE
5
100
100
AcDbEntity
8
OUTER_PROFILES
100
AcDbPolyline
90
20
70
1
43
0.0
10
-5.0000000000000844
20
47.047786842338596
10
-5.0000000000000844
20
53.047786842338603
42
-0.41421356237309515
10
-8.6903557620549048e-14
20
58.047786842338603
10
429.04778684233867
20
58.047786842338603
42
-0.41421356237309603
10
434.04778684233867
20
53.047786842338589
10
434.04778684233867
20
47.047786842338617
42
-0.41421356237309603
10
429.04778684233867
20
42.047786842338596
10
413.52389342116936
20
42.047786842338596
10
413.52389342116953
20
16.000000000000007
10
429.04778684233884
20
16.000000000000007
42
-0.41421356237309581
10
434.04778684233884
20
10.999999999999993
10
434.04778684233884
20
5.0000000000000089
42
-0.41421356237309603
10
429.04778684233884
20
-8.8817841970012523e-15
10
0
20
5.5511151231257827e-16
42
-0.41421356237309515
10
-4.9999999999999991
20
5.0000000000000018
10
-4.9999999999999956
20
11
42
-0.41421356237309509
10
5.2449534233389448e-15
20
16
10
15.523893421169346
20
16.000000000000007
10
15.523893421169239
20
42.047786842338596
10
-8.4376949871511897e-14
20
42.047786842338596
42
-0.41421356237309509
0
CIRCLE
5
101
100
AcDbEntity
8
INTERIOR_PROFILES
100
AcDbCircle
10
-314.52389342116936
20
50.04778684233861
30
0
40
2.2499999999999787
210
0
220
0
230
-1
0
CIRCLE
5
102
100
AcDbEntity
8
INTERIOR_PROFILES
100
AcDbCircle
10
-54.523893421169369
20
29.023893421169301
30
0
40
2.2500000000000142
210
0
220
0
230
-1
0
CIRCLE
5
103
100
AcDbEntity
8
INTERIOR_PROFILES
100
AcDbCircle
10
-194.52389342116933
20
7.9999999999999893
30
0
40
2.2500000000000142
210
0
220
0
230
-1
0
CIRCLE
5
104
100
AcDbEntity
8
INTERIOR_PROFILES
100
AcDbCircle
10
-234.52389342116933
20
7.9999999999999893
30
0
40
2.2500000000000142
210
0
220
0
230
-1
0
CIRCLE
5
105
100
AcDbEntity
8
INTERIOR_PROFILES
100
AcDbCircle
10
-314.52389342116936
20
7.9999999999999893
30
0
40
2.2499999999999787
210
0
220
0
230
-1
0
CIRCLE
5
106
100
AcDbEntity
8
INTERIOR_PROFILES
100
AcDbCircle
10
-54.523893421169333
20
50.04778684233861
30
0
40
2.2499999999999964
210
0
220
0
230
-1
0
CIRCLE
5
107
100
AcDbEntity
8
INTERIOR_PROFILES
100
AcDbCircle
10
-274.52389342116936
20
50.04778684233861
30
0
40
2.2499999999999787
210
0
220
0
230
-1
0
CIRCLE
5
108
100
AcDbEntity
8
INTERIOR_PROFILES
100
AcDbCircle
10
-34.523893421169369
20
29.023893421169301
30
0
40
2.2500000000000142
210
0
220
0
230
-1
0
CIRCLE
5
109
100
AcDbEntity
8
INTERIOR_PROFILES
100
AcDbCircle
10
-154.52389342116933
20
50.04778684233861
30
0
40
2.2499999999999964
210
0
220
0
230
-1
0
CIRCLE
5
110
100
AcDbEntity
8
INTERIOR_PROFILES
100
AcDbCircle
10
-254.52389342116936
20
29.023893421169301
30
0
40
2.2500000000000142
210
0
220
0
230
-1
0
CIRCLE
5
111
100
AcDbEntity
8
INTERIOR_PROFILES
100
AcDbCircle
10
-114.52389342116933
20
7.9999999999999893
30
0
40
2.2499999999999964
210
0
220
0
230
-1
0
CIRCLE
5
112
100
AcDbEntity
8
INTERIOR_PROFILES
100
AcDbCircle
10
-334.5238934211693
20
50.04778684233861
30
0
40
2.2500000000000142
210
0
220
0
230
-1
0
CIRCLE
5
113
100
AcDbEntity
8
INTERIOR_PROFILES
100
AcDbCircle
10
-334.5238934211693
20
7.9999999999999893
30
0
40
2.2500000000000142
210
0
220
0
230
-1
0
CIRCLE
5
114
100
AcDbEntity
8
INTERIOR_PROFILES
100
AcDbCircle
10
-194.52389342116933
20
50.04778684233861
30
0
40
2.2500000000000142
210
0
220
0
230
-1
0
CIRCLE
5
115
100
AcDbEntity
8
INTERIOR_PROFILES
100
AcDbCircle
10
-426.04778684233878
20
7.9999999999999938
30
0
40
2.2500000000000142
210
0
220
0
230
-1
0
CIRCLE
5
116
100
AcDbEntity
8
INTERIOR_PROFILES
100
AcDbCircle
10
-374.52389342116936
20
29.023893421169301
30
0
40
2.2500000000000142
210
0
220
0
230
-1
0
CIRCLE
5
117
100
AcDbEntity
8
INTERIOR_PROFILES
100
AcDbCircle
10
-294.52389342116936
20
50.04778684233861
30
0
40
2.2499999999999787
210
0
220
0
230
-1
0
CIRCLE
5
118
100
AcDbEntity
8
INTERIOR_PROFILES
100
AcDbCircle
10
-94.523893421169333
20
7.9999999999999893
30
0
40
2.2499999999999964
210
0
220
0
230
-1
0
CIRCLE
5
119
100
AcDbEntity
8
INTERIOR_PROFILES
100
AcDbCircle
10
-114.52389342116938
20
29.023893421169301
30
0
40
2.2499999999999964
210
0
220
0
230
-1
0
CIRCLE
5
120
100
AcDbEntity
8
INTERIOR_PROFILES
100
AcDbCircle
10
-174.52389342116933
20
7.9999999999999893
30
0
40
2.2500000000000142
210
0
220
0
230
-1
0
CIRCLE
5
121
100
AcDbEntity
8
INTERIOR_PROFILES
100
AcDbCircle
10
-74.523893421169362
20
29.023893421169301
30
0
40
2.2499999999999964
210
0
220
0
230
-1
0
CIRCLE
5
122
100
AcDbEntity
8
INTERIOR_PROFILES
100
AcDbCircle
10
-426.04778684233872
20
50.04778684233861
30
0
40
2.2500000000000142
210
0
220
0
230
-1
0
CIRCLE
5
123
100
AcDbEntity
8
INTERIOR_PROFILES
100
AcDbCircle
10
-74.523893421169333
20
7.9999999999999893
30
0
40
2.2499999999999964
210
0
220
0
230
-1
0
CIRCLE
5
124
100
AcDbEntity
8
INTERIOR_PROFILES
100
AcDbCircle
10
-194.52389342116936
20
29.023893421169301
30
0
40
2.2500000000000142
210
0
220
0
230
-1
0
CIRCLE
5
125
100
AcDbEntity
8
INTERIOR_PROFILES
100
AcDbCircle
10
-274.52389342116936
20
29.023893421169301
30
0
40
2.2500000000000142
210
0
220
0
230
-1
0
CIRCLE
5
126
100
AcDbEntity
8
INTERIOR_PROFILES
100
AcDbCircle
10
-174.52389342116936
20
29.023893421169301
30
0
40
2.2500000000000142
210
0
220
0
230
-1
0
CIRCLE
5
127
100
AcDbEntity
8
INTERIOR_PROFILES
100
AcDbCircle
10
-54.523893421169333
20
7.9999999999999893
30
0
40
2.2499999999999964
210
0
220
0
230
-1
0
CIRCLE
5
128
100
AcDbEntity
8
INTERIOR_PROFILES
100
AcDbCircle
10
-34.523893421169333
20
50.04778684233861
30
0
40
2.2500000000000142
210
0
220
0
230
-1
0
CIRCLE
5
129
100
AcDbEntity
8
INTERIOR_PROFILES
100
AcDbCircle
10
-94.523893421169333
20
50.04778684233861
30
0
40
2.2499999999999964
210
0
220
0
230
-1
0
CIRCLE
5
130
100
AcDbEntity
8
INTERIOR_PROFILES
100
AcDbCircle
10
-394.52389342116936
20
29.023893421169301
30
0
40
2.2500000000000142
210
0
220
0
230
-1
0
CIRCLE
5
131
100
AcDbEntity
8
INTERIOR_PROFILES
100
AcDbCircle
10
-234.52389342116936
20
29.023893421169301
30
0
40
2.2500000000000142
210
0
220
0
230
-1
0
CIRCLE
5
132
100
AcDbEntity
8
INTERIOR_PROFILES
100
AcDbCircle
10
-294.52389342116936
20
29.023893421169301
30
0
40
2.2500000000000142
210
0
220
0
230
-1
0
CIRCLE
5
133
100
AcDbEntity
8
INTERIOR_PROFILES
100
AcDbCircle
10
-154.52389342116933
20
7.9999999999999893
30
0
40
2.2499999999999964
210
0
220
0
230
-1
0
CIRCLE
5
134
100
AcDbEntity
8
INTERIOR_PROFILES
100
AcDbCircle
10
-314.52389342116936
20
29.023893421169301
30
0
40
2.2500000000000142
210
0
220
0
230
-1
0
CIRCLE
5
135
100
AcDbEntity
8
INTERIOR_PROFILES
100
AcDbCircle
10
-3.0000000000035953
20
8.0000000000000036
30
0
40
2.2500000000000009
210
0
220
0
230
-1
0
CIRCLE
5
136
100
AcDbEntity
8
INTERIOR_PROFILES
100
AcDbCircle
10
-34.523893421169333
20
7.9999999999999893
30
0
40
2.2500000000000142
210
0
220
0
230
-1
0
CIRCLE
5
137
100
AcDbEntity
8
INTERIOR_PROFILES
100
AcDbCircle
10
-354.52389342116936
20
29.023893421169301
30
0
40
2.2500000000000142
210
0
220
0
230
-1
0
CIRCLE
5
138
100
AcDbEntity
8
INTERIOR_PROFILES
100
AcDbCircle
10
-334.52389342116936
20
29.023893421169301
30
0
40
2.2500000000000142
210
0
220
0
230
-1
0
CIRCLE
5
139
100
AcDbEntity
8
INTERIOR_PROFILES
100
AcDbCircle
10
-154.52389342116936
20
29.023893421169301
30
0
40
2.2499999999999964
210
0
220
0
230
-1
0
CIRCLE
5
140
100
AcDbEntity
8
INTERIOR_PROFILES
100
AcDbCircle
10
-374.5238934211693
20
50.04778684233861
30
0
40
2.2500000000000142
210
0
220
0
230
-1
0
CIRCLE
5
141
100
AcDbEntity
8
INTERIOR_PROFILES
100
AcDbCircle
10
-214.52389342116936
20
29.023893421169301
30
0
40
2.2500000000000142
210
0
220
0
230
-1
0
CIRCLE
5
142
100
AcDbEntity
8
INTERIOR_PROFILES
100
AcDbCircle
10
-234.52389342116933
20
50.04778684233861
30
0
40
2.2500000000000142
210
0
220
0
230
-1
0
CIRCLE
5
143
100
AcDbEntity
8
INTERIOR_PROFILES
100
AcDbCircle
10
-94.523893421169376
20
29.023893421169301
30
0
40
2.2499999999999964
210
0
220
0
230
-1
0
CIRCLE
5
144
100
AcDbEntity
8
INTERIOR_PROFILES
100
AcDbCircle
10
-214.52389342116933
20
50.04778684233861
30
0
40
2.2500000000000142
210
0
220
0
230
-1
0
CIRCLE
5
145
100
AcDbEntity
8
INTERIOR_PROFILES
100
AcDbCircle
10
-134.52389342116933
20
7.9999999999999893
30
0
40
2.2499999999999964
210
0
220
0
230
-1
0
CIRCLE
5
146
100
AcDbEntity
8
INTERIOR_PROFILES
100
AcDbCircle
10
-374.5238934211693
20
7.9999999999999893
30
0
40
2.2500000000000142
210
0
220
0
230
-1
0
CIRCLE
5
147
100
AcDbEntity
8
INTERIOR_PROFILES
100
AcDbCircle
10
-354.5238934211693
20
50.04778684233861
30
0
40
2.2500000000000142
210
0
220
0
230
-1
0
CIRCLE
5
148
100
AcDbEntity
8
INTERIOR_PROFILES
100
AcDbCircle
10
-254.52389342116933
20
7.9999999999999893
30
0
40
2.2499999999999787
210
0
220
0
230
-1
0
CIRCLE
5
149
100
AcDbEntity
8
INTERIOR_PROFILES
100
AcDbCircle
10
-134.52389342116936
20
29.023893421169301
30
0
40
2.2499999999999964
210
0
220
0
230
-1
0
CIRCLE
5
150
100
AcDbEntity
8
INTERIOR_PROFILES
100
AcDbCircle
10
-134.52389342116933
20
50.04778684233861
30
0
40
2.2499999999999964
210
0
220
0
230
-1
0
CIRCLE
5
151
100
AcDbEntity
8
INTERIOR_PROFILES
100
AcDbCircle
10
-254.52389342116933
20
50.04778684233861
30
0
40
2.2499999999999787
210
0
220
0
230
-1
0
CIRCLE
5
152
100
AcDbEntity
8
INTERIOR_PROFILES
100
AcDbCircle
10
-174.52389342116933
20
50.04778684233861
30
0
40
2.2500000000000142
210
0
220
0
230
-1
0
CIRCLE
5
153
100
AcDbEntity
8
INTERIOR_PROFILES
100
AcDbCircle
10
-354.5238934211693
20
7.9999999999999893
30
0
40
2.2500000000000142
210
0
220
0
230
-1
0
CIRCLE
5
154
100
AcDbEntity
8
INTERIOR_PROFILES
100
AcDbCircle
10
-394.5238934211693
20
7.9999999999999893
30
0
40
2.2500000000000142
210
0
220
0
230
-1
0
CIRCLE
5
155
100
AcDbEntity
8
INTERIOR_PROFILES
100
AcDbCircle
10
-114.52389342116933
20
50.04778684233861
30
0
40
2.2499999999999964
210
0
220
0
230
-1
0
CIRCLE
5
156
100
AcDbEntity
8
INTERIOR_PROFILES
100
AcDbCircle
10
-74.523893421169333
20
50.04778684233861
30
0
40
2.2499999999999964
210
0
220
0
230
-1
0
CIRCLE
5
157
100
AcDbEntity
8
INTERIOR_PROFILES
100
AcDbCircle
10
-274.52389342116936
20
7.9999999999999893
30
0
40
2.2499999999999787
210
0
220
0
230
-1
0
CIRCLE
5
158
100
AcDbEntity
8
INTERIOR_PROFILES
100
AcDbCircle
10
-394.5238934211693
20
50.04778684233861
30
0
40
2.2500000000000142
210
0
220
0
230
-1
0
CIRCLE
5
159
100
AcDbEntity
8
INTERIOR_PROFILES
100
AcDbCircle
10
-294.52389342116936
20
7.9999999999999893
30
0
40
2.2499999999999787
210
0
220
0
230
-1
0
CIRCLE
5
160
100
AcDbEntity
8
INTERIOR_PROFILES
100
AcDbCircle
10
-3.0000000000034754
20
50.047786842338539
30
0
40
2.2500000000000009
210
0
220
0
230
-1
0
CIRCLE
5
161
100
AcDbEntity
8
INTERIOR_PROFILES
100
AcDbCircle
10
-214.52389342116933
20
7.9999999999999893
30
0
40
2.2500000000000142
210
0
220
0
230
-1
0
LINE
5
162
100
AcDbEntity
8
BEND
100
AcDbLine
10
415.78584013175396
20
42.047786842338596
30
1.4916031228769329e-12
11
415.78584013175396
21
58.047786842338603
31
1.5322048629878177e-12
0
LINE
5
163
100
AcDbEntity
8
BEND
100
AcDbLine
10
13.261946710584764
20
16.000000000000007
30
-6.1517018589210629e-14
11
13.261946710584764
21
0
31
-2.0915278478325761e-14
0
LINE
5
164
100
AcDbEntity
8
BEND
100
AcDbLine
10
415.78584013175418
20
0
30
1.49937468404931e-12
11
415.78584013175418
21
16.000000000000007
31
1.4471942018919277e-12
0
LINE
5
165
100
AcDbEntity
8
BEND
100
AcDbLine
10
13.261946710584587
20
58.047786842338596
30
-5.1525011367584915e-14
11
13.261946710584587
21
42.047786842338596
31
-1.0370549352496727e-13
0
LINE
5
166
100
AcDbEntity
8
BEND
100
AcDbLine
10
15.523893421169204
20
39.785840131753957
30
-4.64056176573273e-14
11
413.52389342116936
21
39.785840131753957
31
1.4892592867282383e-12
0
LINE
5
167
100
AcDbEntity
8
BEND
100
AcDbLine
10
413.52389342116953
20
18.261946710584645
30
1.4892592867282389e-12
11
15.52389342116939
21
18.261946710584645
31
-4.6405617657326517e-14
0
LINE
5
168
100
AcDbEntity
8
BEND_EXTENT
100
AcDbLine
10
15.523893421169346
20
20.523893421169301
30
-4.6960729169639335e-14
11
413.52389342116953
21
20.523893421169301
31
1.4887041752159263e-12
0
LINE
5
169
100
AcDbEntity
8
BEND_EXTENT
100
AcDbLine
10
413.52389342116936
20
37.523893421169305
30
1.4887041752159257e-12
11
15.523893421169248
21
37.523893421169305
31
-4.6960729169639853e-14
0
LINE
5
170
100
AcDbEntity
8
BEND_EXTENT
100
AcDbLine
10
11.00000000000005
20
0
30
-2.8611273706057011e-14
11
11.000000000000034
21
16
31
-2.8611273706057075e-14
0
LINE
5
171
100
AcDbEntity
8
BEND_EXTENT
100
AcDbLine
10
15.523893421169346
20
16.000000000000007
30
-4.8903619462733359e-14
11
15.523893421169346
21
0
31
-4.224228131498242e-14
0
LINE
5
172
100
AcDbEntity
8
BEND_EXTENT
100
AcDbLine
10
413.52389342116953
20
16.000000000000007
30
1.4867612849228323e-12
11
15.523893421169346
21
16.000000000000007
31
-4.8903619462733359e-14
0
LINE
5
173
100
AcDbEntity
8
BEND_EXTENT
100
AcDbLine
10
413.52389342116953
20
0
30
1.4934226230705833e-12
11
413.52389342116953
21
16.000000000000007
31
1.4867612849228323e-12
0
LINE
5
174
100
AcDbEntity
8
BEND_EXTENT
100
AcDbLine
10
418.04778684233884
20
16.000000000000007
30
1.4709098312646568e-12
11
418.04778684233884
21
-4.4408920985006262e-15
31
1.5064369680526618e-12
0
LINE
5
175
100
AcDbEntity
8
BEND_EXTENT
100
AcDbLine
10
418.04778684233867
20
58.047786842338603
30
1.5419641048406662e-12
11
418.04778684233867
21
42.047786842338596
31
1.5419641048406662e-12
0
LINE
5
176
100
AcDbEntity
8
BEND_EXTENT
100
AcDbLine
10
413.52389342116936
20
42.047786842338596
30
1.4867612849228317e-12
11
413.52389342116936
21
58.047786842338603
31
1.4934226230705827e-12
0
LINE
5
177
100
AcDbEntity
8
BEND_EXTENT
100
AcDbLine
10
15.523893421169239
20
42.047786842338596
30
-4.8903619462733763e-14
11
413.52389342116936
21
42.047786842338596
31
1.4867612849228317e-12
0
LINE
5
178
100
AcDbEntity
8
BEND_EXTENT
100
AcDbLine
10
15.523893421169239
20
58.047786842338603
30
-4.2242281314982824e-14
11
15.523893421169239
21
42.047786842338596
31
-4.8903619462733763e-14
0
LINE
5
179
100
AcDbEntity
8
BEND_EXTENT
100
AcDbLine
10
10.999999999999929
20
42.047786842338596
30
-9.9665547282067497e-14
11
10.999999999999943
21
58.047786842338596
31
-6.4138410494062437e-14
0
ENDSEC
0
SECTION
2
OBJECTS
0
DICTIONARY
5
C
100
AcDbDictionary
3
ACAD_GROUP
350
D
3
ACAD_MLINESTYLE
350
17
0
DICTIONARY
5
D
100
AcDbDictionary
0
DICTIONARY
5
1A
330
C
100
AcDbDictionary
0
DICTIONARY
5
17
100
AcDbDictionary
0
ENDSEC
0
EOF
