0
SECTION
2
HEADER
9
$INSUNITS
70
4
9
$ACADVER
1
AC1014
9
$HANDSEED
5
FFFF
0
ENDSEC
0
SECTION
2
TABLES
0
TABLE
2
VPORT
5
8
100
AcDbSymbolTable
0
ENDTAB
0
TABLE
2
LTYPE
5
5
100
AcDbSymbolTable
0
LTYPE
5
14
100
AcDbSymbolTableRecord
100
AcDbLinetypeTableRecord
2
BYBLOCK
70
0
0
LTYPE
5
15
100
AcDbSymbolTableRecord
100
AcDbLinetypeTableRecord
2
BYLAYER
70
0
0
ENDTAB
0
TABLE
2
LAYER
5
2
100
AcDbSymbolTable
70
2
0
LAYER
5
50
100
AcDbSymbolTableRecord
100
AcDbLayerTableRecord
2
0
70
0
6
CONTINUOUS
0
ENDTAB
0
TABLE
2
STYLE
5
3
100
AcDbSymbolTable
70
1
0
STYLE
5
11
100
AcDbSymbolTableRecord
100
AcDbTextStyleTableRecord
2
STANDARD
70
0
0
ENDTAB
0
TABLE
2
VIEW
5
6
100
AcDbSymbolTable
70
0
0
ENDTAB
0
TABLE
2
UCS
5
7
100
AcDbSymbolTable
70
0
0
ENDTAB
0
TABLE
2
APPID
5
9
100
AcDbSymbolTable
70
2
0
APPID
5
12
100
AcDbSymbolTableRecord
100
AcDbRegAppTableRecord
2
ACAD
70
0
0
ENDTAB
0
TABLE
2
DIMSTYLE
5
A
100
AcDbSymbolTable
70
1
0
ENDTAB
0
TABLE
2
BLOCK_RECORD
5
1
100
AcDbSymbolTable
70
1
0
BLOCK_RECORD
5
1F
100
AcDbSymbolTableRecord
100
AcDbBlockTableRecord
2
*MODEL_SPACE
0
BLOCK_RECORD
5
1B
100
AcDbSymbolTableRecord
100
AcDbBlockTableRecord
2
*PAPER_SPACE
0
ENDTAB
0
ENDSEC
0
SECTION
2
BLOCKS
0
BLOCK
5
20
100
AcDbEntity
100
AcDbBlockBegin
2
*MODEL_SPACE
0
ENDBLK
5
21
100
AcDbEntity
100
AcDbBlockEnd
0
BLOCK
5
1C
100
AcDbEntity
100
AcDbBlockBegin
2
*PAPER_SPACE
0
ENDBLK
5
1D
100
AcDbEntity
100
AcDbBlockEnd
0
ENDSEC
0
SECTION
2
ENTITIES
0
LWPOLYLINE
5
100
100
AcDbEntity
8
OUTER_PROFILES
100
AcDbPolyline
90
46
70
1
43
0.0
10
389.58578643762689
20
254.37379696870923
10
405.10967985879631
20
254.37379696870923
42
-0.41421356237309509
10
410.10967985879631
20
249.37379696870923
10
410.10967985879631
20
24.938106983542419
42
-0.41421356237309509
10
405.10967985879631
20
19.938106983542419
10
394.10967985879631
20
19.93810698354233
10
394.10967985879631
20
20.523893421169319
10
389.58578643762701
20
20.523893421169284
10
389.58578643762701
20
15.999999999999979
10
390.17157287525367
20
15.999999999999979
10
390.1715728752539
20
5.0000000000000222
42
-0.41421356237309637
10
385.1715728752539
20
5.5511151231257827e-16
10
0
20
0
42
-0.41421356237309492
10
-4.9999999999999991
20
4.9999999999999982
10
-5.0000000000000711
20
15.999999999999979
10
-4.4142135623730994
20
15.999999999999979
10
-4.4142135623730994
20
20.523893421169284
10
-8.9381069835424043
20
20.523893421169284
10
-8.9381069835424043
20
19.93810698354233
10
-19.938106983542419
20
19.938106983542365
42
-0.41421356237309509
10
-24.938106983542419
20
24.938106983542365
10
-24.938106983542419
20
249.37379696870914
42
-0.41421356237309448
10
-19.938106983542426
20
254.37379696870914
10
-4.4142135623730994
20
254.37379696870906
10
-4.4142135623730994
20
254.60463108486124
10
-4.2470593951907176
20
254.76382867772395
10
-14.953303800060363
20
266.00516301556013
42
-0.41421356237309725
10
-14.780959814421808
20
273.07413023507775
10
38.423996289708782
20
323.74651898201955
42
-0.41421356237310053
10
45.492963509226421
20
323.57417499638098
10
56.199207914096121
20
312.33284065854468
10
56.399809348138859
20
312.52389342116919
10
56.676832981510415
20
312.52389342116919
10
56.676832981510401
20
328.0477868423385
42
-0.41421356237309603
10
61.676832981510415
20
333.0477868423385
10
323.49473989374331
20
333.0477868423385
42
-0.41421356237309509
10
328.49473989374331
20
328.0477868423385
10
328.49473989374331
20
312.52389342116919
10
328.77176352711501
20
312.52389342116919
10
328.97236496115784
20
312.33284065854485
10
339.67860936602733
20
323.57417499638098
42
-0.41421356237309509
10
346.74757658554489
20
323.74651898201961
10
399.95253268967565
20
273.07413023507775
42
-0.41421356237309503
10
400.12487667531417
20
266.00516301556019
10
389.4186322704445
20
254.76382867772395
10
389.58578643762689
20
254.60463108486124
0
CIRCLE
5
101
100
AcDbEntity
8
INTERIOR_PROFILES
100
AcDbCircle
10
-172.58578643762692
20
302.52389342116919
30
0
40
2.2499999999999787
210
0
220
0
230
-1
0
CIRCLE
5
102
100
AcDbEntity
8
INTERIOR_PROFILES
100
AcDbCircle
10
-33.096231935283775
20
276.51991761740157
30
0
40
2.2499999999999964
210
0
220
0
230
-1
0
CIRCLE
5
103
100
AcDbEntity
8
INTERIOR_PROFILES
100
AcDbCircle
10
-403.52380104540515
20
116.31900277341245
30
0
40
2.2500000000000142
210
0
220
0
230
-1
0
CIRCLE
5
104
100
AcDbEntity
8
INTERIOR_PROFILES
100
AcDbCircle
10
-403.52380104540487
20
176.31900277341245
30
0
40
2.2500000000000142
210
0
220
0
230
-1
0
CIRCLE
5
105
100
AcDbEntity
8
INTERIOR_PROFILES
100
AcDbCircle
10
-337.59271852965787
20
290.31316408515954
30
0
40
2.2500000000000142
210
0
220
0
230
-1
0
CIRCLE
5
106
100
AcDbEntity
8
INTERIOR_PROFILES
100
AcDbCircle
10
-132.58578643762689
20
7.9999999999999716
30
0
40
2.2499999999999964
210
0
220
0
230
-1
0
CIRCLE
5
107
100
AcDbEntity
8
INTERIOR_PROFILES
100
AcDbCircle
10
-17.338816824746708
20
292.61727564442373
30
0
40
2.2500000000000209
210
0
220
0
230
-1
0
CIRCLE
5
108
100
AcDbEntity
8
INTERIOR_PROFILES
100
AcDbCircle
10
-403.52380104540487
20
196.31900277341245
30
0
40
2.2500000000000142
210
0
220
0
230
-1
0
CIRCLE
5
109
100
AcDbEntity
8
INTERIOR_PROFILES
100
AcDbCircle
10
-252.58578643762692
20
166.52389342116925
30
0
40
2.2499999999999787
210
0
220
0
230
-1
0
CIRCLE
5
110
100
AcDbEntity
8
INTERIOR_PROFILES
100
AcDbCircle
10
-31.821439235058975
20
306.41052211218181
30
0
40
2.2500000000000089
210
0
220
0
230
-1
0
CIRCLE
5
111
100
AcDbEntity
8
INTERIOR_PROFILES
100
AcDbCircle
10
-47.578854345596127
20
290.31316408515954
30
0
40
2.2499999999999964
210
0
220
0
230
-1
0
CIRCLE
5
112
100
AcDbEntity
8
INTERIOR_PROFILES
100
AcDbCircle
10
-379.58578643762689
20
206.52389342116925
30
0
40
2.2500000000000142
210
0
220
0
230
-1
0
CIRCLE
5
113
100
AcDbEntity
8
INTERIOR_PROFILES
100
AcDbCircle
10
-366.55796335028253
20
262.72667114964349
30
0
40
2.2499999999999432
210
0
220
0
230
-1
0
CIRCLE
5
114
100
AcDbEntity
8
INTERIOR_PROFILES
100
AcDbCircle
10
-403.52380104540475
20
216.31900277341245
30
0
40
2.2500000000000142
210
0
220
0
230
-1
0
CIRCLE
5
115
100
AcDbEntity
8
INTERIOR_PROFILES
100
AcDbCircle
10
-403.52380104540515
20
96.31900277341245
30
0
40
2.2500000000000142
210
0
220
0
230
-1
0
CIRCLE
5
116
100
AcDbEntity
8
INTERIOR_PROFILES
100
AcDbCircle
10
-272.58578643762689
20
7.9999999999999538
30
0
40
2.2499999999999787
210
0
220
0
230
-1
0
CIRCLE
5
117
100
AcDbEntity
8
INTERIOR_PROFILES
100
AcDbCircle
10
-403.52380104540532
20
56.319002773412464
30
0
40
2.2500000000000142
210
0
220
0
230
-1
0
CIRCLE
5
118
100
AcDbEntity
8
INTERIOR_PROFILES
100
AcDbCircle
10
-212.58578643762689
20
7.9999999999999538
30
0
40
2.2500000000000142
210
0
220
0
230
-1
0
CIRCLE
5
119
100
AcDbEntity
8
INTERIOR_PROFILES
100
AcDbCircle
10
-312.58578643762689
20
7.9999999999999538
30
0
40
2.2500000000000142
210
0
220
0
230
-1
0
CIRCLE
5
120
100
AcDbEntity
8
INTERIOR_PROFILES
100
AcDbCircle
10
-403.52380104540543
20
36.31900277341245
30
0
40
2.2500000000000142
210
0
220
0
230
-1
0
CIRCLE
5
121
100
AcDbEntity
8
INTERIOR_PROFILES
100
AcDbCircle
10
-112.58578643762689
20
7.9999999999999716
30
0
40
2.2499999999999964
210
0
220
0
230
-1
0
CIRCLE
5
122
100
AcDbEntity
8
INTERIOR_PROFILES
100
AcDbCircle
10
-52.585786437626894
20
7.9999999999999893
30
0
40
2.2499999999999964
210
0
220
0
230
-1
0
CIRCLE
5
123
100
AcDbEntity
8
INTERIOR_PROFILES
100
AcDbCircle
10
-152.58578643762689
20
7.9999999999999716
30
0
40
2.2499999999999964
210
0
220
0
230
-1
0
CIRCLE
5
124
100
AcDbEntity
8
INTERIOR_PROFILES
100
AcDbCircle
10
-32.585786437626894
20
7.9999999999999893
30
0
40
2.2499999999999964
210
0
220
0
230
-1
0
CIRCLE
5
125
100
AcDbEntity
8
INTERIOR_PROFILES
100
AcDbCircle
10
-403.52380104540498
20
136.31900277341245
30
0
40
2.2500000000000142
210
0
220
0
230
-1
0
CIRCLE
5
126
100
AcDbEntity
8
INTERIOR_PROFILES
100
AcDbCircle
10
-403.52380104540475
20
236.31900277341245
30
0
40
2.2500000000000142
210
0
220
0
230
-1
0
CIRCLE
5
127
100
AcDbEntity
8
INTERIOR_PROFILES
100
AcDbCircle
10
-72.585786437626894
20
7.9999999999999716
30
0
40
2.2499999999999964
210
0
220
0
230
-1
0
CIRCLE
5
128
100
AcDbEntity
8
INTERIOR_PROFILES
100
AcDbCircle
10
-403.52380104540532
20
76.319002773412464
30
0
40
2.2500000000000142
210
0
220
0
230
-1
0
CIRCLE
5
129
100
AcDbEntity
8
INTERIOR_PROFILES
100
AcDbCircle
10
-403.52380104540498
20
156.31900277341245
30
0
40
2.2500000000000142
210
0
220
0
230
-1
0
CIRCLE
5
130
100
AcDbEntity
8
INTERIOR_PROFILES
100
AcDbCircle
10
-232.58578643762689
20
7.9999999999999538
30
0
40
2.2500000000000142
210
0
220
0
230
-1
0
CIRCLE
5
131
100
AcDbEntity
8
INTERIOR_PROFILES
100
AcDbCircle
10
-172.58578643762689
20
7.9999999999999716
30
0
40
2.2500000000000142
210
0
220
0
230
-1
0
CIRCLE
5
132
100
AcDbEntity
8
INTERIOR_PROFILES
100
AcDbCircle
10
-332.58578643762689
20
7.9999999999999538
30
0
40
2.2500000000000142
210
0
220
0
230
-1
0
CIRCLE
5
133
100
AcDbEntity
8
INTERIOR_PROFILES
100
AcDbCircle
10
-292.58578643762689
20
7.9999999999999538
30
0
40
2.2500000000000142
210
0
220
0
230
-1
0
CIRCLE
5
134
100
AcDbEntity
8
INTERIOR_PROFILES
100
AcDbCircle
10
-12.585786437626894
20
7.9999999999999893
30
0
40
2.2500000000000142
210
0
220
0
230
-1
0
CIRCLE
5
135
100
AcDbEntity
8
INTERIOR_PROFILES
100
AcDbCircle
10
-372.58578643762689
20
7.9999999999999361
30
0
40
2.2500000000000142
210
0
220
0
230
-1
0
CIRCLE
5
136
100
AcDbEntity
8
INTERIOR_PROFILES
100
AcDbCircle
10
-92.585786437626894
20
7.9999999999999716
30
0
40
2.2499999999999964
210
0
220
0
230
-1
0
CIRCLE
5
137
100
AcDbEntity
8
INTERIOR_PROFILES
100
AcDbCircle
10
-192.58578643762689
20
7.9999999999999716
30
0
40
2.2500000000000142
210
0
220
0
230
-1
0
CIRCLE
5
138
100
AcDbEntity
8
INTERIOR_PROFILES
100
AcDbCircle
10
-252.58578643762689
20
7.9999999999999538
30
0
40
2.2500000000000142
210
0
220
0
230
-1
0
CIRCLE
5
139
100
AcDbEntity
8
INTERIOR_PROFILES
100
AcDbCircle
10
-352.58578643762689
20
7.9999999999999538
30
0
40
2.2500000000000142
210
0
220
0
230
-1
0
CIRCLE
5
140
100
AcDbEntity
8
INTERIOR_PROFILES
100
AcDbCircle
10
-192.58578643762692
20
206.52389342116925
30
0
40
2.2500000000000142
210
0
220
0
230
-1
0
CIRCLE
5
141
100
AcDbEntity
8
INTERIOR_PROFILES
100
AcDbCircle
10
-292.58578643762695
20
166.52389342116925
30
0
40
2.2499999999999787
210
0
220
0
230
-1
0
CIRCLE
5
142
100
AcDbEntity
8
INTERIOR_PROFILES
100
AcDbCircle
10
-92.585786437626922
20
166.52389342116925
30
0
40
2.2499999999999964
210
0
220
0
230
-1
0
CIRCLE
5
143
100
AcDbEntity
8
INTERIOR_PROFILES
100
AcDbCircle
10
-112.58578643762692
20
302.52389342116919
30
0
40
2.2499999999999964
210
0
220
0
230
-1
0
CIRCLE
5
144
100
AcDbEntity
8
INTERIOR_PROFILES
100
AcDbCircle
10
-379.58578643762689
20
126.52389342116925
30
0
40
2.2500000000000142
210
0
220
0
230
-1
0
CIRCLE
5
145
100
AcDbEntity
8
INTERIOR_PROFILES
100
AcDbCircle
10
-52.585786437626929
20
166.52389342116925
30
0
40
2.2499999999999964
210
0
220
0
230
-1
0
CIRCLE
5
146
100
AcDbEntity
8
INTERIOR_PROFILES
100
AcDbCircle
10
-312.58578643762695
20
302.52389342116919
30
0
40
2.2499999999999787
210
0
220
0
230
-1
0
CIRCLE
5
147
100
AcDbEntity
8
INTERIOR_PROFILES
100
AcDbCircle
10
-379.58578643762689
20
166.52389342116925
30
0
40
2.2500000000000142
210
0
220
0
230
-1
0
CIRCLE
5
148
100
AcDbEntity
8
INTERIOR_PROFILES
100
AcDbCircle
10
-379.58578643762689
20
246.52389342116925
30
0
40
2.2500000000000142
210
0
220
0
230
-1
0
CIRCLE
5
149
100
AcDbEntity
8
INTERIOR_PROFILES
100
AcDbCircle
10
-292.58578643762695
20
302.52389342116919
30
0
40
2.2499999999999787
210
0
220
0
230
-1
0
CIRCLE
5
150
100
AcDbEntity
8
INTERIOR_PROFILES
100
AcDbCircle
10
-132.58578643762692
20
166.52389342116925
30
0
40
2.2499999999999964
210
0
220
0
230
-1
0
CIRCLE
5
151
100
AcDbEntity
8
INTERIOR_PROFILES
100
AcDbCircle
10
-379.58578643762689
20
46.523893421169248
30
0
40
2.2500000000000142
210
0
220
0
230
-1
0
CIRCLE
5
152
100
AcDbEntity
8
INTERIOR_PROFILES
100
AcDbCircle
10
-272.58578643762695
20
302.52389342116919
30
0
40
2.2499999999999787
210
0
220
0
230
-1
0
CIRCLE
5
153
100
AcDbEntity
8
INTERIOR_PROFILES
100
AcDbCircle
10
-5.5857864376269006
20
106.52389342116925
30
0
40
2.2500000000000142
210
0
220
0
230
-1
0
CIRCLE
5
154
100
AcDbEntity
8
INTERIOR_PROFILES
100
AcDbCircle
10
-292.58578643762695
20
30.523893421169266
30
0
40
2.2499999999999787
210
0
220
0
230
-1
0
CIRCLE
5
155
100
AcDbEntity
8
INTERIOR_PROFILES
100
AcDbCircle
10
-52.585786437626929
20
30.523893421169266
30
0
40
2.2499999999999964
210
0
220
0
230
-1
0
CIRCLE
5
156
100
AcDbEntity
8
INTERIOR_PROFILES
100
AcDbCircle
10
-72.585786437626922
20
30.523893421169266
30
0
40
2.2499999999999964
210
0
220
0
230
-1
0
CIRCLE
5
157
100
AcDbEntity
8
INTERIOR_PROFILES
100
AcDbCircle
10
-5.5857864376269006
20
246.52389342116925
30
0
40
2.2500000000000142
210
0
220
0
230
-1
0
CIRCLE
5
158
100
AcDbEntity
8
INTERIOR_PROFILES
100
AcDbCircle
10
-132.58578643762692
20
30.523893421169266
30
0
40
2.2500000000000142
210
0
220
0
230
-1
0
CIRCLE
5
159
100
AcDbEntity
8
INTERIOR_PROFILES
100
AcDbCircle
10
-172.58578643762692
20
30.523893421169266
30
0
40
2.2500000000000142
210
0
220
0
230
-1
0
CIRCLE
5
160
100
AcDbEntity
8
INTERIOR_PROFILES
100
AcDbCircle
10
-352.58578643762689
20
166.52389342116925
30
0
40
2.2500000000000142
210
0
220
0
230
-1
0
CIRCLE
5
161
100
AcDbEntity
8
INTERIOR_PROFILES
100
AcDbCircle
10
-92.585786437626922
20
30.523893421169266
30
0
40
2.2499999999999964
210
0
220
0
230
-1
0
CIRCLE
5
162
100
AcDbEntity
8
INTERIOR_PROFILES
100
AcDbCircle
10
-5.5857864376269006
20
166.52389342116925
30
0
40
2.2500000000000142
210
0
220
0
230
-1
0
CIRCLE
5
163
100
AcDbEntity
8
INTERIOR_PROFILES
100
AcDbCircle
10
-212.58578643762692
20
166.52389342116925
30
0
40
2.2500000000000142
210
0
220
0
230
-1
0
CIRCLE
5
164
100
AcDbEntity
8
INTERIOR_PROFILES
100
AcDbCircle
10
-5.5857864376269006
20
206.52389342116925
30
0
40
2.2500000000000142
210
0
220
0
230
-1
0
CIRCLE
5
165
100
AcDbEntity
8
INTERIOR_PROFILES
100
AcDbCircle
10
-192.58578643762692
20
86.523893421169248
30
0
40
2.2500000000000142
210
0
220
0
230
-1
0
CIRCLE
5
166
100
AcDbEntity
8
INTERIOR_PROFILES
100
AcDbCircle
10
-192.58578643762692
20
302.52389342116919
30
0
40
2.2499999999999787
210
0
220
0
230
-1
0
CIRCLE
5
167
100
AcDbEntity
8
INTERIOR_PROFILES
100
AcDbCircle
10
-212.58578643762692
20
30.523893421169266
30
0
40
2.2500000000000142
210
0
220
0
230
-1
0
CIRCLE
5
168
100
AcDbEntity
8
INTERIOR_PROFILES
100
AcDbCircle
10
-252.58578643762692
20
302.52389342116919
30
0
40
2.2499999999999787
210
0
220
0
230
-1
0
CIRCLE
5
169
100
AcDbEntity
8
INTERIOR_PROFILES
100
AcDbCircle
10
-192.58578643762692
20
186.52389342116925
30
0
40
2.2500000000000142
210
0
220
0
230
-1
0
CIRCLE
5
170
100
AcDbEntity
8
INTERIOR_PROFILES
100
AcDbCircle
10
-172.58578643762692
20
166.52389342116925
30
0
40
2.2500000000000142
210
0
220
0
230
-1
0
CIRCLE
5
171
100
AcDbEntity
8
INTERIOR_PROFILES
100
AcDbCircle
10
-272.58578643762695
20
166.52389342116925
30
0
40
2.2499999999999787
210
0
220
0
230
-1
0
CIRCLE
5
172
100
AcDbEntity
8
INTERIOR_PROFILES
100
AcDbCircle
10
-192.58578643762692
20
146.52389342116925
30
0
40
2.2500000000000142
210
0
220
0
230
-1
0
CIRCLE
5
173
100
AcDbEntity
8
INTERIOR_PROFILES
100
AcDbCircle
10
-379.58578643762689
20
226.52389342116925
30
0
40
2.2500000000000142
210
0
220
0
230
-1
0
CIRCLE
5
174
100
AcDbEntity
8
INTERIOR_PROFILES
100
AcDbCircle
10
-192.58578643762692
20
30.523893421169266
30
0
40
2.2500000000000142
210
0
220
0
230
-1
0
CIRCLE
5
175
100
AcDbEntity
8
INTERIOR_PROFILES
100
AcDbCircle
10
-132.58578643762692
20
302.52389342116919
30
0
40
2.2499999999999964
210
0
220
0
230
-1
0
CIRCLE
5
176
100
AcDbEntity
8
INTERIOR_PROFILES
100
AcDbCircle
10
-152.58578643762692
20
30.523893421169266
30
0
40
2.2500000000000142
210
0
220
0
230
-1
0
CIRCLE
5
177
100
AcDbEntity
8
INTERIOR_PROFILES
100
AcDbCircle
10
-252.58578643762692
20
30.523893421169266
30
0
40
2.2500000000000142
210
0
220
0
230
-1
0
CIRCLE
5
178
100
AcDbEntity
8
INTERIOR_PROFILES
100
AcDbCircle
10
-5.5857864376269006
20
146.52389342116925
30
0
40
2.2500000000000142
210
0
220
0
230
-1
0
CIRCLE
5
179
100
AcDbEntity
8
INTERIOR_PROFILES
100
AcDbCircle
10
-192.58578643762692
20
286.52389342116925
30
0
40
2.2500000000000142
210
0
220
0
230
-1
0
CIRCLE
5
180
100
AcDbEntity
8
INTERIOR_PROFILES
100
AcDbCircle
10
-5.5857864376269006
20
66.523893421169248
30
0
40
2.2500000000000142
210
0
220
0
230
-1
0
CIRCLE
5
181
100
AcDbEntity
8
INTERIOR_PROFILES
100
AcDbCircle
10
-212.58578643762692
20
302.52389342116919
30
0
40
2.2499999999999787
210
0
220
0
230
-1
0
CIRCLE
5
182
100
AcDbEntity
8
INTERIOR_PROFILES
100
AcDbCircle
10
-72.585786437626922
20
166.52389342116925
30
0
40
2.2499999999999964
210
0
220
0
230
-1
0
CIRCLE
5
183
100
AcDbEntity
8
INTERIOR_PROFILES
100
AcDbCircle
10
-192.58578643762692
20
266.52389342116925
30
0
40
2.2500000000000142
210
0
220
0
230
-1
0
CIRCLE
5
184
100
AcDbEntity
8
INTERIOR_PROFILES
100
AcDbCircle
10
-5.5857864376269006
20
186.52389342116925
30
0
40
2.2500000000000142
210
0
220
0
230
-1
0
CIRCLE
5
185
100
AcDbEntity
8
INTERIOR_PROFILES
100
AcDbCircle
10
-152.58578643762692
20
166.52389342116925
30
0
40
2.2499999999999964
210
0
220
0
230
-1
0
CIRCLE
5
186
100
AcDbEntity
8
INTERIOR_PROFILES
100
AcDbCircle
10
-192.58578643762692
20
66.523893421169248
30
0
40
2.2500000000000142
210
0
220
0
230
-1
0
CIRCLE
5
187
100
AcDbEntity
8
INTERIOR_PROFILES
100
AcDbCircle
10
-5.5857864376269006
20
86.523893421169248
30
0
40
2.2500000000000142
210
0
220
0
230
-1
0
CIRCLE
5
188
100
AcDbEntity
8
INTERIOR_PROFILES
100
AcDbCircle
10
-352.0753409399702
20
276.51991761740146
30
0
40
2.2500000000000142
210
0
220
0
230
-1
0
LWPOLYLINE
5
189
100
AcDbEntity
8
INTERIOR_PROFILES
100
AcDbPolyline
90
5
70
1
43
0.0
10
15.585786437626901
20
246.03331940332157
10
15.585786437626901
20
176.52389342116925
10
182.58578643762692
20
176.52389342116922
10
182.58578643762692
20
292.52389342116919
10
64.399923900698582
20
292.52389342116919
0
CIRCLE
5
190
100
AcDbEntity
8
INTERIOR_PROFILES
100
AcDbCircle
10
-92.585786437626922
20
302.52389342116919
30
0
40
2.2499999999999964
210
0
220
0
230
-1
0
LWPOLYLINE
5
191
100
AcDbEntity
8
INTERIOR_PROFILES
100
AcDbPolyline
90
4
70
1
43
0.0
10
182.58578643762692
20
156.52389342116925
10
15.585786437626901
20
156.52389342116925
10
15.585786437626901
20
40.523893421169284
10
182.58578643762692
20
40.523893421169262
0
CIRCLE
5
192
100
AcDbEntity
8
INTERIOR_PROFILES
100
AcDbCircle
10
-379.58578643762689
20
106.52389342116925
30
0
40
2.2500000000000142
210
0
220
0
230
-1
0
CIRCLE
5
193
100
AcDbEntity
8
INTERIOR_PROFILES
100
AcDbCircle
10
-2.8561944144344409
20
278.82402917666559
30
0
40
2.2500000000000018
210
0
220
0
230
-1
0
CIRCLE
5
194
100
AcDbEntity
8
INTERIOR_PROFILES
100
AcDbCircle
10
-18.613609524971402
20
262.72667114964361
30
0
40
2.2500000000000142
210
0
220
0
230
-1
0
CIRCLE
5
195
100
AcDbEntity
8
INTERIOR_PROFILES
100
AcDbCircle
10
-352.58578643762689
20
30.523893421169266
30
0
40
2.2500000000000142
210
0
220
0
230
-1
0
CIRCLE
5
196
100
AcDbEntity
8
INTERIOR_PROFILES
100
AcDbCircle
10
-272.58578643762695
20
30.523893421169266
30
0
40
2.2500000000000142
210
0
220
0
230
-1
0
LWPOLYLINE
5
197
100
AcDbEntity
8
INTERIOR_PROFILES
100
AcDbPolyline
90
4
70
1
43
0.0
10
202.58578643762692
20
156.52389342116925
10
202.58578643762692
20
40.523893421169262
10
369.58578643762706
20
40.523893421169262
10
369.58578643762689
20
156.52389342116925
0
LWPOLYLINE
5
198
100
AcDbEntity
8
INTERIOR_PROFILES
100
AcDbPolyline
90
5
70
1
43
0.0
10
320.77164897455543
20
292.52389342116919
10
202.58578643762692
20
292.52389342116919
10
202.58578643762695
20
176.52389342116925
10
369.58578643762689
20
176.52389342116925
10
369.58578643762689
20
246.03331940332146
0
CIRCLE
5
199
100
AcDbEntity
8
INTERIOR_PROFILES
100
AcDbCircle
10
-192.58578643762692
20
226.52389342116925
30
0
40
2.2500000000000142
210
0
220
0
230
-1
0
CIRCLE
5
200
100
AcDbEntity
8
INTERIOR_PROFILES
100
AcDbCircle
10
-192.58578643762692
20
246.52389342116925
30
0
40
2.2500000000000142
210
0
220
0
230
-1
0
CIRCLE
5
201
100
AcDbEntity
8
INTERIOR_PROFILES
100
AcDbCircle
10
-72.585786437626922
20
302.52389342116919
30
0
40
2.2499999999999964
210
0
220
0
230
-1
0
CIRCLE
5
202
100
AcDbEntity
8
INTERIOR_PROFILES
100
AcDbCircle
10
-232.58578643762692
20
302.52389342116919
30
0
40
2.2499999999999787
210
0
220
0
230
-1
0
CIRCLE
5
203
100
AcDbEntity
8
INTERIOR_PROFILES
100
AcDbCircle
10
-152.58578643762692
20
302.52389342116919
30
0
40
2.2499999999999964
210
0
220
0
230
-1
0
CIRCLE
5
204
100
AcDbEntity
8
INTERIOR_PROFILES
100
AcDbCircle
10
-5.5857864376269006
20
46.523893421169248
30
0
40
2.2500000000000142
210
0
220
0
230
-1
0
CIRCLE
5
205
100
AcDbEntity
8
INTERIOR_PROFILES
100
AcDbCircle
10
-5.5857864376269006
20
126.52389342116925
30
0
40
2.2500000000000142
210
0
220
0
230
-1
0
CIRCLE
5
206
100
AcDbEntity
8
INTERIOR_PROFILES
100
AcDbCircle
10
-32.585786437626929
20
30.523893421169266
30
0
40
2.2500000000000142
210
0
220
0
230
-1
0
CIRCLE
5
207
100
AcDbEntity
8
INTERIOR_PROFILES
100
AcDbCircle
10
-379.58578643762689
20
66.523893421169248
30
0
40
2.2500000000000142
210
0
220
0
230
-1
0
CIRCLE
5
208
100
AcDbEntity
8
INTERIOR_PROFILES
100
AcDbCircle
10
-232.58578643762692
20
30.523893421169266
30
0
40
2.2500000000000142
210
0
220
0
230
-1
0
CIRCLE
5
209
100
AcDbEntity
8
INTERIOR_PROFILES
100
AcDbCircle
10
-379.58578643762689
20
146.52389342116925
30
0
40
2.2500000000000142
210
0
220
0
230
-1
0
CIRCLE
5
210
100
AcDbEntity
8
INTERIOR_PROFILES
100
AcDbCircle
10
-312.58578643762695
20
30.523893421169266
30
0
40
2.2499999999999787
210
0
220
0
230
-1
0
CIRCLE
5
211
100
AcDbEntity
8
INTERIOR_PROFILES
100
AcDbCircle
10
-112.58578643762692
20
30.523893421169266
30
0
40
2.2499999999999964
210
0
220
0
230
-1
0
CIRCLE
5
212
100
AcDbEntity
8
INTERIOR_PROFILES
100
AcDbCircle
10
-192.58578643762692
20
126.52389342116925
30
0
40
2.2500000000000142
210
0
220
0
230
-1
0
CIRCLE
5
213
100
AcDbEntity
8
INTERIOR_PROFILES
100
AcDbCircle
10
-192.58578643762692
20
106.52389342116925
30
0
40
2.2500000000000142
210
0
220
0
230
-1
0
CIRCLE
5
214
100
AcDbEntity
8
INTERIOR_PROFILES
100
AcDbCircle
10
-232.58578643762692
20
166.52389342116925
30
0
40
2.2500000000000142
210
0
220
0
230
-1
0
CIRCLE
5
215
100
AcDbEntity
8
INTERIOR_PROFILES
100
AcDbCircle
10
-192.58578643762692
20
166.52389342116925
30
0
40
2.2500000000000142
210
0
220
0
230
-1
0
CIRCLE
5
216
100
AcDbEntity
8
INTERIOR_PROFILES
100
AcDbCircle
10
-379.58578643762689
20
186.52389342116925
30
0
40
2.2500000000000142
210
0
220
0
230
-1
0
CIRCLE
5
217
100
AcDbEntity
8
INTERIOR_PROFILES
100
AcDbCircle
10
-312.58578643762695
20
166.52389342116925
30
0
40
2.2499999999999787
210
0
220
0
230
-1
0
CIRCLE
5
218
100
AcDbEntity
8
INTERIOR_PROFILES
100
AcDbCircle
10
-5.5857864376269006
20
226.52389342116925
30
0
40
2.2500000000000142
210
0
220
0
230
-1
0
CIRCLE
5
219
100
AcDbEntity
8
INTERIOR_PROFILES
100
AcDbCircle
10
-32.585786437626929
20
166.52389342116925
30
0
40
2.2500000000000142
210
0
220
0
230
-1
0
CIRCLE
5
220
100
AcDbEntity
8
INTERIOR_PROFILES
100
AcDbCircle
10
-112.58578643762692
20
166.52389342116925
30
0
40
2.2499999999999964
210
0
220
0
230
-1
0
CIRCLE
5
221
100
AcDbEntity
8
INTERIOR_PROFILES
100
AcDbCircle
10
-192.58578643762692
20
46.523893421169248
30
0
40
2.2500000000000142
210
0
220
0
230
-1
0
CIRCLE
5
222
100
AcDbEntity
8
INTERIOR_PROFILES
100
AcDbCircle
10
-332.58578643762689
20
166.52389342116925
30
0
40
2.2500000000000142
210
0
220
0
230
-1
0
CIRCLE
5
223
100
AcDbEntity
8
INTERIOR_PROFILES
100
AcDbCircle
10
-379.58578643762689
20
86.523893421169248
30
0
40
2.2500000000000142
210
0
220
0
230
-1
0
CIRCLE
5
224
100
AcDbEntity
8
INTERIOR_PROFILES
100
AcDbCircle
10
-332.58578643762689
20
30.523893421169266
30
0
40
2.2500000000000142
210
0
220
0
230
-1
0
CIRCLE
5
225
100
AcDbEntity
8
INTERIOR_PROFILES
100
AcDbCircle
10
-112.58578643762689
20
327.81389619457548
30
0
40
2.2499999999999964
210
0
220
0
230
-1
0
CIRCLE
5
226
100
AcDbEntity
8
INTERIOR_PROFILES
100
AcDbCircle
10
-172.58578643762689
20
327.81389619457548
30
0
40
2.2500000000000142
210
0
220
0
230
-1
0
CIRCLE
5
227
100
AcDbEntity
8
INTERIOR_PROFILES
100
AcDbCircle
10
-92.585786437626894
20
327.81389619457548
30
0
40
2.2499999999999964
210
0
220
0
230
-1
0
CIRCLE
5
228
100
AcDbEntity
8
INTERIOR_PROFILES
100
AcDbCircle
10
-132.58578643762689
20
327.81389619457548
30
0
40
2.2499999999999964
210
0
220
0
230
-1
0
CIRCLE
5
229
100
AcDbEntity
8
INTERIOR_PROFILES
100
AcDbCircle
10
-212.58578643762689
20
327.81389619457548
30
0
40
2.2500000000000142
210
0
220
0
230
-1
0
CIRCLE
5
230
100
AcDbEntity
8
INTERIOR_PROFILES
100
AcDbCircle
10
-292.58578643762689
20
327.81389619457548
30
0
40
2.2500000000000142
210
0
220
0
230
-1
0
CIRCLE
5
231
100
AcDbEntity
8
INTERIOR_PROFILES
100
AcDbCircle
10
-192.58578643762689
20
327.81389619457548
30
0
40
2.2500000000000142
210
0
220
0
230
-1
0
CIRCLE
5
232
100
AcDbEntity
8
INTERIOR_PROFILES
100
AcDbCircle
10
-272.58578643762689
20
327.81389619457548
30
0
40
2.2500000000000142
210
0
220
0
230
-1
0
CIRCLE
5
233
100
AcDbEntity
8
INTERIOR_PROFILES
100
AcDbCircle
10
-252.58578643762689
20
327.81389619457548
30
0
40
2.2500000000000142
210
0
220
0
230
-1
0
CIRCLE
5
234
100
AcDbEntity
8
INTERIOR_PROFILES
100
AcDbCircle
10
-312.58578643762689
20
327.81389619457548
30
0
40
2.2500000000000142
210
0
220
0
230
-1
0
CIRCLE
5
235
100
AcDbEntity
8
INTERIOR_PROFILES
100
AcDbCircle
10
-232.58578643762689
20
327.81389619457548
30
0
40
2.2500000000000142
210
0
220
0
230
-1
0
CIRCLE
5
236
100
AcDbEntity
8
INTERIOR_PROFILES
100
AcDbCircle
10
-152.58578643762689
20
327.81389619457548
30
0
40
2.2499999999999964
210
0
220
0
230
-1
0
CIRCLE
5
237
100
AcDbEntity
8
INTERIOR_PROFILES
100
AcDbCircle
10
-72.585786437626894
20
327.81389619457548
30
0
40
2.2499999999999964
210
0
220
0
230
-1
0
CIRCLE
5
238
100
AcDbEntity
8
INTERIOR_PROFILES
100
AcDbCircle
10
18.35222817014742
20
196.31900277341245
30
0
40
2.2499999999999964
210
0
220
0
230
-1
0
CIRCLE
5
239
100
AcDbEntity
8
INTERIOR_PROFILES
100
AcDbCircle
10
18.352228170147704
20
116.31900277341245
30
0
40
2.2499999999999964
210
0
220
0
230
-1
0
CIRCLE
5
240
100
AcDbEntity
8
INTERIOR_PROFILES
100
AcDbCircle
10
18.352228170147988
20
36.31900277341245
30
0
40
2.2499999999999964
210
0
220
0
230
-1
0
CIRCLE
5
241
100
AcDbEntity
8
INTERIOR_PROFILES
100
AcDbCircle
10
18.352228170147775
20
96.31900277341245
30
0
40
2.2499999999999964
210
0
220
0
230
-1
0
CIRCLE
5
242
100
AcDbEntity
8
INTERIOR_PROFILES
100
AcDbCircle
10
18.352228170147491
20
176.31900277341245
30
0
40
2.2499999999999964
210
0
220
0
230
-1
0
CIRCLE
5
243
100
AcDbEntity
8
INTERIOR_PROFILES
100
AcDbCircle
10
18.352228170147349
20
216.31900277341245
30
0
40
2.2499999999999964
210
0
220
0
230
-1
0
CIRCLE
5
244
100
AcDbEntity
8
INTERIOR_PROFILES
100
AcDbCircle
10
18.352228170147633
20
136.31900277341245
30
0
40
2.2499999999999964
210
0
220
0
230
-1
0
CIRCLE
5
245
100
AcDbEntity
8
INTERIOR_PROFILES
100
AcDbCircle
10
18.352228170147917
20
56.319002773412464
30
0
40
2.2499999999999964
210
0
220
0
230
-1
0
CIRCLE
5
246
100
AcDbEntity
8
INTERIOR_PROFILES
100
AcDbCircle
10
18.352228170147846
20
76.319002773412464
30
0
40
2.2499999999999964
210
0
220
0
230
-1
0
CIRCLE
5
247
100
AcDbEntity
8
INTERIOR_PROFILES
100
AcDbCircle
10
18.352228170147562
20
156.31900277341245
30
0
40
2.2499999999999964
210
0
220
0
230
-1
0
CIRCLE
5
248
100
AcDbEntity
8
INTERIOR_PROFILES
100
AcDbCircle
10
18.352228170147278
20
236.31900277341245
30
0
40
2.2499999999999964
210
0
220
0
230
-1
0
CIRCLE
5
249
100
AcDbEntity
8
INTERIOR_PROFILES
100
AcDbCircle
10
-353.35013364019494
20
306.41052211218209
30
0
40
2.2500000000000075
210
0
220
0
230
-1
0
CIRCLE
5
250
100
AcDbEntity
8
INTERIOR_PROFILES
100
AcDbCircle
10
-367.83275605050704
20
292.61727564442378
30
0
40
2.2500000000000075
210
0
220
0
230
-1
0
CIRCLE
5
251
100
AcDbEntity
8
INTERIOR_PROFILES
100
AcDbCircle
10
-382.31537846081903
20
278.82402917666553
30
0
40
2.2500000000000075
210
0
220
0
230
-1
0
LINE
5
252
100
AcDbEntity
8
BEND
100
AcDbLine
10
-6.6761602729577518
20
20.523893421169284
30
9.5479180117763462e-14
11
-6.6761602729577518
21
254.37379696870909
31
9.6034291630076041e-14
0
LINE
5
253
100
AcDbEntity
8
BEND
100
AcDbLine
10
-5.8070388189921118
20
256.4017746838062
30
1.5509744140230138e-13
11
54.639228490294641
21
313.9707866646271
31
1.515264952117473e-13
0
LINE
5
254
100
AcDbEntity
8
BEND
100
AcDbLine
10
391.84773314821155
20
254.37379696870923
30
9.6034291630076041e-14
11
391.84773314821155
21
20.523893421169319
31
9.5479180117763462e-14
0
LINE
5
255
100
AcDbEntity
8
BEND
100
AcDbLine
10
330.53234438495917
20
313.9707866646271
30
9.775520783292452e-14
11
390.9786116942459
21
256.4017746838062
31
1.0497118343423692e-13
0
LINE
5
256
100
AcDbEntity
8
BEND
100
AcDbLine
10
56.676832981510401
20
314.78584013175384
30
9.6034291630076041e-14
11
328.49473989374331
21
314.78584013175384
31
9.6034291630076041e-14
0
LINE
5
257
100
AcDbEntity
8
BEND
100
AcDbLine
10
389.58578643762701
20
18.261946710584613
30
9.6034291630076041e-14
11
-4.4142135623730638
21
18.261946710584613
31
9.6034291630076041e-14
0
LINE
5
258
100
AcDbEntity
8
BEND_EXTENT
100
AcDbLine
10
389.58578643762701
20
15.999999999999979
30
1.0658141036401503e-13
11
-4.4142135623730638
21
15.999999999999979
31
1.0658141036401503e-13
0
LINE
5
259
100
AcDbEntity
8
BEND_EXTENT
100
AcDbLine
10
-8.9381069835424043
20
20.523893421169284
30
5.3290705182007514e-14
11
-8.9381069835424043
21
254.37379696870906
31
5.3290705182007514e-14
0
LINE
5
260
100
AcDbEntity
8
BEND_EXTENT
100
AcDbLine
10
394.10967985879631
20
254.37379696870923
30
5.3290705182007514e-14
11
394.10967985879631
21
20.523893421169319
31
5.3290705182007514e-14
0
LINE
5
261
100
AcDbEntity
8
BEND_EXTENT
100
AcDbLine
10
332.09232380876051
20
315.60873267070929
30
1.5987211554602254e-13
11
392.53859111804729
21
258.0397206898885
31
2.3092638912203256e-13
0
LINE
5
262
100
AcDbEntity
8
BEND_EXTENT
100
AcDbLine
10
56.676832981510401
20
317.0477868423385
30
1.0658141036401503e-13
11
328.49473989374331
21
317.0477868423385
31
1.0658141036401503e-13
0
LINE
5
263
100
AcDbEntity
8
BEND_EXTENT
100
AcDbLine
10
-7.367018242793435
20
258.03972068988833
30
1.9539925233402755e-13
11
53.079249066493318
21
315.60873267070923
31
2.6645352591003757e-13
0
LINE
5
264
100
AcDbEntity
8
BEND_EXTENT
100
AcDbLine
10
56.199207914096121
20
312.33284065854468
30
9.6589403142388619e-14
11
-4.2470593951907176
21
254.76382867772395
31
9.631184738623233e-14
0
LINE
5
265
100
AcDbEntity
8
BEND_EXTENT
100
AcDbLine
10
328.49473989374331
20
312.52389342116919
30
9.6034291630076041e-14
11
56.676832981510401
21
312.52389342116919
31
9.6034291630076041e-14
0
LINE
5
266
100
AcDbEntity
8
BEND_EXTENT
100
AcDbLine
10
389.58578643762701
20
20.523893421169284
30
8.8817841970012523e-14
11
389.58578643762689
21
254.37379696870923
31
9.6034291630076041e-14
0
LINE
5
267
100
AcDbEntity
8
BEND_EXTENT
100
AcDbLine
10
-4.4142135623730994
20
20.523893421169284
30
8.8817841970012523e-14
11
389.58578643762701
21
20.523893421169284
31
8.8817841970012523e-14
0
LINE
5
268
100
AcDbEntity
8
BEND_EXTENT
100
AcDbLine
10
-4.4142135623730994
20
254.37379696870906
30
9.6034291630076041e-14
11
-4.4142135623730994
21
20.523893421169284
31
8.8817841970012523e-14
0
LINE
5
269
100
AcDbEntity
8
BEND_EXTENT
100
AcDbLine
10
389.4186322704445
20
254.76382867772395
30
9.631184738623233e-14
11
328.97236496115784
21
312.33284065854485
31
9.631184738623233e-14
0
ENDSEC
0
SECTION
2
OBJECTS
0
DICTIONARY
5
C
100
AcDbDictionary
3
ACAD_GROUP
350
D
3
ACAD_MLINESTYLE
350
17
0
DICTIONARY
5
D
100
AcDbDictionary
0
DICTIONARY
5
1A
330
C
100
AcDbDictionary
0
DICTIONARY
5
17
100
AcDbDictionary
0
ENDSEC
0
EOF
