0
SECTION
2
HEADER
9
$INSUNITS
70
4
9
$ACADVER
1
AC1014
9
$HANDSEED
5
FFFF
0
ENDSEC
0
SECTION
2
TABLES
0
TABLE
2
VPORT
5
8
100
AcDbSymbolTable
0
ENDTAB
0
TABLE
2
LTYPE
5
5
100
AcDbSymbolTable
0
LTYPE
5
14
100
AcDbSymbolTableRecord
100
AcDbLinetypeTableRecord
2
BYBLOCK
70
0
0
LTYPE
5
15
100
AcDbSymbolTableRecord
100
AcDbLinetypeTableRecord
2
BYLAYER
70
0
0
ENDTAB
0
TABLE
2
LAYER
5
2
100
AcDbSymbolTable
70
2
0
LAYER
5
50
100
AcDbSymbolTableRecord
100
AcDbLayerTableRecord
2
0
70
0
6
CONTINUOUS
0
ENDTAB
0
TABLE
2
STYLE
5
3
100
AcDbSymbolTable
70
1
0
STYLE
5
11
100
AcDbSymbolTableRecord
100
AcDbTextStyleTableRecord
2
STANDARD
70
0
0
ENDTAB
0
TABLE
2
VIEW
5
6
100
AcDbSymbolTable
70
0
0
ENDTAB
0
TABLE
2
UCS
5
7
100
AcDbSymbolTable
70
0
0
ENDTAB
0
TABLE
2
APPID
5
9
100
AcDbSymbolTable
70
2
0
APPID
5
12
100
AcDbSymbolTableRecord
100
AcDbRegAppTableRecord
2
ACAD
70
0
0
ENDTAB
0
TABLE
2
DIMSTYLE
5
A
100
AcDbSymbolTable
70
1
0
ENDTAB
0
TABLE
2
BLOCK_RECORD
5
1
100
AcDbSymbolTable
70
1
0
BLOCK_RECORD
5
1F
100
AcDbSymbolTableRecord
100
AcDbBlockTableRecord
2
*MODEL_SPACE
0
BLOCK_RECORD
5
1B
100
AcDbSymbolTableRecord
100
AcDbBlockTableRecord
2
*PAPER_SPACE
0
ENDTAB
0
ENDSEC
0
SECTION
2
BLOCKS
0
BLOCK
5
20
100
AcDbEntity
100
AcDbBlockBegin
2
*MODEL_SPACE
0
ENDBLK
5
21
100
AcDbEntity
100
AcDbBlockEnd
0
BLOCK
5
1C
100
AcDbEntity
100
AcDbBlockBegin
2
*PAPER_SPACE
0
ENDBLK
5
1D
100
AcDbEntity
100
AcDbBlockEnd
0
ENDSEC
0
SECTION
2
ENTITIES
0
LWPOLYLINE
5
100
100
AcDbEntity
8
OUTER_PROFILES
100
AcDbPolyline
90
46
70
1
43
0.0
10
57.052605762665252
20
128.04778684233861
42
-0.41421356237309404
10
62.052605762665252
20
133.04778684233861
10
327.11896711258839
20
133.04778684233861
42
-0.41421356237309509
10
332.11896711258828
20
128.04778684233861
10
332.11896711258828
20
112.5238934211693
10
332.37293218813454
20
112.5238934211693
10
332.5525126152379
20
112.34431299406602
10
343.52956292376393
20
123.32136330259203
42
-0.41421356237309509
10
350.60063073562935
20
123.32136330259203
10
404.38325631904974
20
69.538737719171621
42
-0.41421356237309132
10
404.38325631904974
20
62.467669907306174
10
393.40620601052365
20
51.490619598780221
10
393.58578643762701
20
51.311039171676924
10
393.58578643762701
20
51.057074096130719
10
409.10967985879631
20
51.057074096130719
42
-0.41421356237309509
10
414.10967985879631
20
46.057074096130719
10
414.10967985879631
20
24.938106983542411
42
-0.41421356237309603
10
409.10967985879631
20
19.93810698354239
10
398.10967985879631
20
19.938106983542376
10
398.10967985879631
20
20.523893421169291
10
393.58578643762701
20
20.523893421169291
10
393.58578643762701
20
15.999999999999996
10
394.17157287525384
20
15.999999999999996
10
394.17157287525384
20
5.0000000000000231
42
-0.41421356237309642
10
389.17157287525384
20
5.5511151231257827e-16
10
1.1102230246251563e-15
20
5.5511151231257827e-16
42
-0.41421356237309503
10
-4.9999999999999991
20
4.9999999999999982
10
-4.9999999999999289
20
15.999999999999996
10
-4.4142135623730638
20
15.999999999999996
10
-4.4142135623730638
20
20.523893421169291
10
-8.9381069835423688
20
20.523893421169291
10
-8.9381069835423688
20
19.938106983542376
10
-19.938106983542383
20
19.93810698354239
42
-0.41421356237309509
10
-24.938106983542383
20
24.93810698354239
10
-24.938106983542383
20
46.057074096130734
42
-0.41421356237309509
10
-19.938106983542383
20
51.057074096130748
10
-4.4142135623730638
20
51.057074096130748
10
-4.4142135623730638
20
51.311039171676939
10
-4.2346331352698741
20
51.490619598780214
10
-15.211683443795931
20
62.467669907306217
42
-0.4142135623730937
10
-15.211683443795966
20
69.538737719171692
10
38.570942139624421
20
123.3213633025921
42
-0.41421356237309748
10
45.642009951489939
20
123.3213633025921
10
56.619060260016028
20
112.34431299406602
10
56.798640687119288
20
112.5238934211693
10
57.052605762665252
20
112.5238934211693
0
CIRCLE
5
101
100
AcDbEntity
8
INTERIOR_PROFILES
100
AcDbCircle
10
-194.58578643762692
20
8.0000000000000959
30
0
40
2.2500000000000142
210
0
220
0
230
-1
0
CIRCLE
5
102
100
AcDbEntity
8
INTERIOR_PROFILES
100
AcDbCircle
10
-334.58578643762689
20
28.523893421169291
30
0
40
2.2500000000000142
210
0
220
0
230
-1
0
CIRCLE
5
103
100
AcDbEntity
8
INTERIOR_PROFILES
100
AcDbCircle
10
-357.6929536541162
20
104.91533188512038
30
0
40
2.2499999999999956
210
0
220
0
230
-1
0
CIRCLE
5
104
100
AcDbEntity
8
INTERIOR_PROFILES
100
AcDbCircle
10
-174.58578643762692
20
28.523893421169291
30
0
40
2.2500000000000142
210
0
220
0
230
-1
0
CIRCLE
5
105
100
AcDbEntity
8
INTERIOR_PROFILES
100
AcDbCircle
10
-38.549687033003082
20
111.98639969698593
30
0
40
2.2499999999999987
210
0
220
0
230
-1
0
CIRCLE
5
106
100
AcDbEntity
8
INTERIOR_PROFILES
100
AcDbCircle
10
-378.90615708971262
20
83.70212844952394
30
0
40
2.2499999999999956
210
0
220
0
230
-1
0
CIRCLE
5
107
100
AcDbEntity
8
INTERIOR_PROFILES
100
AcDbCircle
10
-31.47861922113762
20
104.91533188512045
30
0
40
2.2500000000000018
210
0
220
0
230
-1
0
CIRCLE
5
108
100
AcDbEntity
8
INTERIOR_PROFILES
100
AcDbCircle
10
-214.58578643762692
20
103.13035258209621
30
0
40
2.2500000000000142
210
0
220
0
230
-1
0
LWPOLYLINE
5
109
100
AcDbEntity
8
INTERIOR_PROFILES
100
AcDbPolyline
90
12
70
1
43
0.0
10
368.58578643762701
20
36.523893421169305
42
0.41421356237309603
10
373.58578643762701
20
41.523893421169326
10
373.58578643762701
20
46.612554361841944
42
0.19891236737965681
10
372.12132034355977
20
50.148088267774675
10
331.2099812842323
20
91.059427327102071
42
0.19891236737965537
10
327.67444737829965
20
92.523893421169305
10
61.497125496954297
20
92.523893421169333
42
0.19891236737965831
10
57.961591591021559
20
91.059427327102057
10
17.050252531694177
20
50.148088267774646
42
0.19891236737965629
10
15.585786437626936
20
46.61255436184193
10
15.585786437626936
20
41.523893421169305
42
0.41421356237309509
10
20.585786437626936
20
36.523893421169305
0
CIRCLE
5
110
100
AcDbEntity
8
INTERIOR_PROFILES
100
AcDbCircle
10
-94.585786437626922
20
28.523893421169291
30
0
40
2.2499999999999964
210
0
220
0
230
-1
0
CIRCLE
5
111
100
AcDbEntity
8
INTERIOR_PROFILES
100
AcDbCircle
10
-194.58578643762692
20
28.523893421169291
30
0
40
2.2500000000000142
210
0
220
0
230
-1
0
CIRCLE
5
112
100
AcDbEntity
8
INTERIOR_PROFILES
100
AcDbCircle
10
-114.58578643762692
20
8.0000000000000959
30
0
40
2.2499999999999964
210
0
220
0
230
-1
0
CIRCLE
5
113
100
AcDbEntity
8
INTERIOR_PROFILES
100
AcDbCircle
10
-406.10967985879267
20
27.997590539836562
30
0
40
2.2500000000000009
210
0
220
0
230
-1
0
CIRCLE
5
114
100
AcDbEntity
8
INTERIOR_PROFILES
100
AcDbCircle
10
-371.83508927784715
20
90.773196261389444
30
0
40
2.2499999999999956
210
0
220
0
230
-1
0
CIRCLE
5
115
100
AcDbEntity
8
INTERIOR_PROFILES
100
AcDbCircle
10
-254.58578643762692
20
8.0000000000000959
30
0
40
2.2500000000000142
210
0
220
0
230
-1
0
CIRCLE
5
116
100
AcDbEntity
8
INTERIOR_PROFILES
100
AcDbCircle
10
-174.58578643762692
20
103.13035258209621
30
0
40
2.2500000000000142
210
0
220
0
230
-1
0
CIRCLE
5
117
100
AcDbEntity
8
INTERIOR_PROFILES
100
AcDbCircle
10
-54.585786437626922
20
28.523893421169291
30
0
40
2.2499999999999964
210
0
220
0
230
-1
0
CIRCLE
5
118
100
AcDbEntity
8
INTERIOR_PROFILES
100
AcDbCircle
10
-74.585786437626922
20
28.523893421169291
30
0
40
2.2499999999999964
210
0
220
0
230
-1
0
CIRCLE
5
119
100
AcDbEntity
8
INTERIOR_PROFILES
100
AcDbCircle
10
-54.585786437626922
20
8.0000000000000959
30
0
40
2.2499999999999964
210
0
220
0
230
-1
0
CIRCLE
5
120
100
AcDbEntity
8
INTERIOR_PROFILES
100
AcDbCircle
10
-74.585786437626922
20
103.13035258209621
30
0
40
2.2499999999999964
210
0
220
0
230
-1
0
CIRCLE
5
121
100
AcDbEntity
8
INTERIOR_PROFILES
100
AcDbCircle
10
-14.585786437626922
20
8.0000000000000959
30
0
40
2.2500000000000142
210
0
220
0
230
-1
0
CIRCLE
5
122
100
AcDbEntity
8
INTERIOR_PROFILES
100
AcDbCircle
10
-314.58578643762689
20
103.13035258209621
30
0
40
2.2500000000000142
210
0
220
0
230
-1
0
CIRCLE
5
123
100
AcDbEntity
8
INTERIOR_PROFILES
100
AcDbCircle
10
-354.58578643762689
20
8.0000000000000959
30
0
40
2.2500000000000142
210
0
220
0
230
-1
0
CIRCLE
5
124
100
AcDbEntity
8
INTERIOR_PROFILES
100
AcDbCircle
10
-294.58578643762689
20
28.523893421169291
30
0
40
2.2500000000000142
210
0
220
0
230
-1
0
CIRCLE
5
125
100
AcDbEntity
8
INTERIOR_PROFILES
100
AcDbCircle
10
-114.58578643762692
20
103.13035258209621
30
0
40
2.2499999999999964
210
0
220
0
230
-1
0
CIRCLE
5
126
100
AcDbEntity
8
INTERIOR_PROFILES
100
AcDbCircle
10
-134.58578643762692
20
28.523893421169291
30
0
40
2.2499999999999964
210
0
220
0
230
-1
0
CIRCLE
5
127
100
AcDbEntity
8
INTERIOR_PROFILES
100
AcDbCircle
10
-254.58578643762692
20
103.13035258209621
30
0
40
2.2500000000000142
210
0
220
0
230
-1
0
CIRCLE
5
128
100
AcDbEntity
8
INTERIOR_PROFILES
100
AcDbCircle
10
-374.58578643762689
20
8.0000000000000959
30
0
40
2.2500000000000142
210
0
220
0
230
-1
0
CIRCLE
5
129
100
AcDbEntity
8
INTERIOR_PROFILES
100
AcDbCircle
10
-114.58578643762692
20
125.04778684233852
30
0
40
2.2499999999999964
210
0
220
0
230
-1
0
CIRCLE
5
130
100
AcDbEntity
8
INTERIOR_PROFILES
100
AcDbCircle
10
-254.58578643762692
20
28.523893421169291
30
0
40
2.2500000000000142
210
0
220
0
230
-1
0
CIRCLE
5
131
100
AcDbEntity
8
INTERIOR_PROFILES
100
AcDbCircle
10
-364.76402146598167
20
97.844264073254905
30
0
40
2.2499999999999956
210
0
220
0
230
-1
0
CIRCLE
5
132
100
AcDbEntity
8
INTERIOR_PROFILES
100
AcDbCircle
10
-134.58578643762692
20
8.0000000000000959
30
0
40
2.2499999999999964
210
0
220
0
230
-1
0
CIRCLE
5
133
100
AcDbEntity
8
INTERIOR_PROFILES
100
AcDbCircle
10
-154.58578643762692
20
103.13035258209621
30
0
40
2.2499999999999964
210
0
220
0
230
-1
0
CIRCLE
5
134
100
AcDbEntity
8
INTERIOR_PROFILES
100
AcDbCircle
10
-254.58578643762692
20
125.04778684233852
30
0
40
2.2500000000000142
210
0
220
0
230
-1
0
CIRCLE
5
135
100
AcDbEntity
8
INTERIOR_PROFILES
100
AcDbCircle
10
-94.585786437626922
20
103.13035258209621
30
0
40
2.2499999999999964
210
0
220
0
230
-1
0
CIRCLE
5
136
100
AcDbEntity
8
INTERIOR_PROFILES
100
AcDbCircle
10
-274.58578643762689
20
8.0000000000000959
30
0
40
2.2500000000000142
210
0
220
0
230
-1
0
CIRCLE
5
137
100
AcDbEntity
8
INTERIOR_PROFILES
100
AcDbCircle
10
-274.58578643762689
20
103.13035258209621
30
0
40
2.2500000000000142
210
0
220
0
230
-1
0
CIRCLE
5
138
100
AcDbEntity
8
INTERIOR_PROFILES
100
AcDbCircle
10
-174.58578643762692
20
125.04778684233852
30
0
40
2.2500000000000142
210
0
220
0
230
-1
0
CIRCLE
5
139
100
AcDbEntity
8
INTERIOR_PROFILES
100
AcDbCircle
10
-234.58578643762692
20
28.523893421169291
30
0
40
2.2500000000000142
210
0
220
0
230
-1
0
CIRCLE
5
140
100
AcDbEntity
8
INTERIOR_PROFILES
100
AcDbCircle
10
-214.58578643762692
20
28.523893421169291
30
0
40
2.2500000000000142
210
0
220
0
230
-1
0
CIRCLE
5
141
100
AcDbEntity
8
INTERIOR_PROFILES
100
AcDbCircle
10
-17.336483597406627
20
90.773196261389501
30
0
40
2.2500000000000004
210
0
220
0
230
-1
0
CIRCLE
5
142
100
AcDbEntity
8
INTERIOR_PROFILES
100
AcDbCircle
10
-214.58578643762692
20
8.0000000000000959
30
0
40
2.2500000000000142
210
0
220
0
230
-1
0
CIRCLE
5
143
100
AcDbEntity
8
INTERIOR_PROFILES
100
AcDbCircle
10
-393.04829271344363
20
69.559992825793003
30
0
40
2.2499999999999893
210
0
220
0
230
-1
0
CIRCLE
5
144
100
AcDbEntity
8
INTERIOR_PROFILES
100
AcDbCircle
10
-134.58578643762692
20
125.04778684233852
30
0
40
2.2499999999999964
210
0
220
0
230
-1
0
CIRCLE
5
145
100
AcDbEntity
8
INTERIOR_PROFILES
100
AcDbCircle
10
-134.58578643762692
20
103.13035258209621
30
0
40
2.2499999999999964
210
0
220
0
230
-1
0
CIRCLE
5
146
100
AcDbEntity
8
INTERIOR_PROFILES
100
AcDbCircle
10
-354.58578643762689
20
28.523893421169291
30
0
40
2.2500000000000142
210
0
220
0
230
-1
0
CIRCLE
5
147
100
AcDbEntity
8
INTERIOR_PROFILES
100
AcDbCircle
10
-154.58578643762692
20
8.0000000000000959
30
0
40
2.2499999999999964
210
0
220
0
230
-1
0
CIRCLE
5
148
100
AcDbEntity
8
INTERIOR_PROFILES
100
AcDbCircle
10
-74.585786437626922
20
125.04778684233852
30
0
40
2.2499999999999964
210
0
220
0
230
-1
0
CIRCLE
5
149
100
AcDbEntity
8
INTERIOR_PROFILES
100
AcDbCircle
10
-34.585786437626922
20
8.0000000000000959
30
0
40
2.2500000000000142
210
0
220
0
230
-1
0
CIRCLE
5
150
100
AcDbEntity
8
INTERIOR_PROFILES
100
AcDbCircle
10
-94.585786437626922
20
8.0000000000000959
30
0
40
2.2499999999999964
210
0
220
0
230
-1
0
CIRCLE
5
151
100
AcDbEntity
8
INTERIOR_PROFILES
100
AcDbCircle
10
3.8767198381898282
20
69.559992825793046
30
0
40
2.2499999999999964
210
0
220
0
230
-1
0
CIRCLE
5
152
100
AcDbEntity
8
INTERIOR_PROFILES
100
AcDbCircle
10
-74.585786437626922
20
8.0000000000000959
30
0
40
2.2499999999999964
210
0
220
0
230
-1
0
CIRCLE
5
153
100
AcDbEntity
8
INTERIOR_PROFILES
100
AcDbCircle
10
-294.58578643762689
20
103.13035258209621
30
0
40
2.2500000000000142
210
0
220
0
230
-1
0
CIRCLE
5
154
100
AcDbEntity
8
INTERIOR_PROFILES
100
AcDbCircle
10
-114.58578643762692
20
28.523893421169291
30
0
40
2.2499999999999964
210
0
220
0
230
-1
0
CIRCLE
5
155
100
AcDbEntity
8
INTERIOR_PROFILES
100
AcDbCircle
10
-294.58578643762689
20
125.04778684233852
30
0
40
2.2500000000000142
210
0
220
0
230
-1
0
CIRCLE
5
156
100
AcDbEntity
8
INTERIOR_PROFILES
100
AcDbCircle
10
-24.407551409272088
20
97.844264073254976
30
0
40
2.2499999999999987
210
0
220
0
230
-1
0
CIRCLE
5
157
100
AcDbEntity
8
INTERIOR_PROFILES
100
AcDbCircle
10
-314.58578643762689
20
28.523893421169291
30
0
40
2.2500000000000142
210
0
220
0
230
-1
0
CIRCLE
5
158
100
AcDbEntity
8
INTERIOR_PROFILES
100
AcDbCircle
10
-94.585786437626922
20
125.04778684233852
30
0
40
2.2499999999999964
210
0
220
0
230
-1
0
CIRCLE
5
159
100
AcDbEntity
8
INTERIOR_PROFILES
100
AcDbCircle
10
-154.58578643762692
20
125.04778684233852
30
0
40
2.2499999999999964
210
0
220
0
230
-1
0
CIRCLE
5
160
100
AcDbEntity
8
INTERIOR_PROFILES
100
AcDbCircle
10
-34.585786437626922
20
28.523893421169291
30
0
40
2.2499999999999964
210
0
220
0
230
-1
0
CIRCLE
5
161
100
AcDbEntity
8
INTERIOR_PROFILES
100
AcDbCircle
10
-14.585786437626922
20
28.523893421169291
30
0
40
2.2500000000000142
210
0
220
0
230
-1
0
CIRCLE
5
162
100
AcDbEntity
8
INTERIOR_PROFILES
100
AcDbCircle
10
-3.1943479736757041
20
76.63106063765855
30
0
40
2.249999999999996
210
0
220
0
230
-1
0
CIRCLE
5
163
100
AcDbEntity
8
INTERIOR_PROFILES
100
AcDbCircle
10
-234.58578643762692
20
125.04778684233852
30
0
40
2.2500000000000142
210
0
220
0
230
-1
0
CIRCLE
5
164
100
AcDbEntity
8
INTERIOR_PROFILES
100
AcDbCircle
10
-406.10967985879267
20
42.997590539836565
30
0
40
2.2499999999999964
210
0
220
0
230
-1
0
CIRCLE
5
165
100
AcDbEntity
8
INTERIOR_PROFILES
100
AcDbCircle
10
16.93810698354234
20
42.997590539836565
30
0
40
2.2499999999999964
210
0
220
0
230
-1
0
CIRCLE
5
166
100
AcDbEntity
8
INTERIOR_PROFILES
100
AcDbCircle
10
-334.58578643762689
20
8.0000000000000959
30
0
40
2.2500000000000142
210
0
220
0
230
-1
0
CIRCLE
5
167
100
AcDbEntity
8
INTERIOR_PROFILES
100
AcDbCircle
10
-274.58578643762689
20
28.523893421169291
30
0
40
2.2500000000000142
210
0
220
0
230
-1
0
CIRCLE
5
168
100
AcDbEntity
8
INTERIOR_PROFILES
100
AcDbCircle
10
-10.265415785541165
20
83.702128449524025
30
0
40
2.2500000000000044
210
0
220
0
230
-1
0
CIRCLE
5
169
100
AcDbEntity
8
INTERIOR_PROFILES
100
AcDbCircle
10
-174.58578643762692
20
8.0000000000000959
30
0
40
2.2500000000000142
210
0
220
0
230
-1
0
CIRCLE
5
170
100
AcDbEntity
8
INTERIOR_PROFILES
100
AcDbCircle
10
-274.58578643762689
20
125.04778684233852
30
0
40
2.2500000000000142
210
0
220
0
230
-1
0
CIRCLE
5
171
100
AcDbEntity
8
INTERIOR_PROFILES
100
AcDbCircle
10
-234.58578643762692
20
103.13035258209621
30
0
40
2.2500000000000142
210
0
220
0
230
-1
0
CIRCLE
5
172
100
AcDbEntity
8
INTERIOR_PROFILES
100
AcDbCircle
10
-234.58578643762692
20
8.0000000000000959
30
0
40
2.2500000000000142
210
0
220
0
230
-1
0
CIRCLE
5
173
100
AcDbEntity
8
INTERIOR_PROFILES
100
AcDbCircle
10
16.93810698354234
20
27.997590539836562
30
0
40
2.2500000000000009
210
0
220
0
230
-1
0
CIRCLE
5
174
100
AcDbEntity
8
INTERIOR_PROFILES
100
AcDbCircle
10
-194.58578643762692
20
125.04778684233852
30
0
40
2.2500000000000142
210
0
220
0
230
-1
0
CIRCLE
5
175
100
AcDbEntity
8
INTERIOR_PROFILES
100
AcDbCircle
10
-154.58578643762692
20
28.523893421169291
30
0
40
2.2499999999999964
210
0
220
0
230
-1
0
CIRCLE
5
176
100
AcDbEntity
8
INTERIOR_PROFILES
100
AcDbCircle
10
-294.58578643762689
20
8.0000000000000959
30
0
40
2.2500000000000142
210
0
220
0
230
-1
0
CIRCLE
5
177
100
AcDbEntity
8
INTERIOR_PROFILES
100
AcDbCircle
10
-214.58578643762692
20
125.04778684233852
30
0
40
2.2500000000000142
210
0
220
0
230
-1
0
CIRCLE
5
178
100
AcDbEntity
8
INTERIOR_PROFILES
100
AcDbCircle
10
-314.58578643762689
20
125.04778684233852
30
0
40
2.2500000000000142
210
0
220
0
230
-1
0
CIRCLE
5
179
100
AcDbEntity
8
INTERIOR_PROFILES
100
AcDbCircle
10
-350.62188584225066
20
111.98639969698587
30
0
40
2.2499999999999956
210
0
220
0
230
-1
0
CIRCLE
5
180
100
AcDbEntity
8
INTERIOR_PROFILES
100
AcDbCircle
10
-385.97722490157815
20
76.631060637658479
30
0
40
2.2499999999999769
210
0
220
0
230
-1
0
CIRCLE
5
181
100
AcDbEntity
8
INTERIOR_PROFILES
100
AcDbCircle
10
-194.58578643762692
20
103.13035258209621
30
0
40
2.2500000000000142
210
0
220
0
230
-1
0
CIRCLE
5
182
100
AcDbEntity
8
INTERIOR_PROFILES
100
AcDbCircle
10
-314.58578643762689
20
8.0000000000000959
30
0
40
2.2500000000000142
210
0
220
0
230
-1
0
CIRCLE
5
183
100
AcDbEntity
8
INTERIOR_PROFILES
100
AcDbCircle
10
-374.58578643762689
20
28.523893421169291
30
0
40
2.2500000000000142
210
0
220
0
230
-1
0
LINE
5
184
100
AcDbEntity
8
BEND
100
AcDbLine
10
57.052605762665252
20
114.78584013175396
30
-2.8588242884097781e-14
11
332.11896711258828
21
114.78584013175396
31
-2.8310687127941492e-14
0
LINE
5
185
100
AcDbEntity
8
BEND
100
AcDbLine
10
395.84773314821166
20
51.057074096130719
30
-2.8310687127941492e-14
11
395.84773314821166
21
20.523893421169291
31
-2.886579864025407e-14
0
LINE
5
186
100
AcDbEntity
8
BEND
100
AcDbLine
10
393.58578643762701
20
18.261946710584631
30
-2.8310687127941492e-14
11
-4.4142135623730638
21
18.261946710584631
31
-2.8310687127941492e-14
0
LINE
5
187
100
AcDbEntity
8
BEND
100
AcDbLine
10
334.15195047297487
20
113.94375085180303
30
-1.8186739268884965e-14
11
395.00564386826068
21
53.090057456517243
31
-1.6289186854838149e-14
0
LINE
5
188
100
AcDbEntity
8
BEND
100
AcDbLine
10
-6.6761602729577163
20
20.523893421169291
30
-2.886579864025407e-14
11
-6.6761602729577163
21
51.057074096130748
31
-2.8310687127941492e-14
0
LINE
5
189
100
AcDbEntity
8
BEND
100
AcDbLine
10
-5.8340709930067902
20
53.090057456517137
30
-1.3762426873081999e-14
11
55.019622402279076
21
113.943750851803
31
-1.5455024490958531e-14
0
LINE
5
190
100
AcDbEntity
8
BEND_EXTENT
100
AcDbLine
10
398.10967985879631
20
51.057074096130719
30
-3.5527136788005009e-14
11
398.10967985879631
21
20.523893421169291
31
-3.5527136788005009e-14
0
LINE
5
191
100
AcDbEntity
8
BEND_EXTENT
100
AcDbLine
10
393.58578643762701
20
15.999999999999996
30
-2.6645352591003757e-14
11
-4.4142135623730638
21
15.999999999999996
31
-2.6645352591003757e-14
0
LINE
5
192
100
AcDbEntity
8
BEND_EXTENT
100
AcDbLine
10
335.75138833071185
20
115.54318870953999
30
-1.7763568394002505e-14
11
396.60508172599759
21
54.689495314254202
31
0
0
LINE
5
193
100
AcDbEntity
8
BEND_EXTENT
100
AcDbLine
10
57.052605762665252
20
117.04778684233858
30
-2.6645352591003757e-14
11
332.11896711258828
21
117.04778684233858
31
-2.6645352591003757e-14
0
LINE
5
194
100
AcDbEntity
8
BEND_EXTENT
100
AcDbLine
10
-7.4335088507439195
20
54.689495314254202
30
0
11
53.420184544541982
21
115.54318870954006
31
-1.7763568394002505e-14
0
LINE
5
195
100
AcDbEntity
8
BEND_EXTENT
100
AcDbLine
10
-8.9381069835423688
20
20.523893421169291
30
-3.5527136788005009e-14
11
-8.9381069835423688
21
51.057074096130748
31
-3.5527136788005009e-14
0
LINE
5
196
100
AcDbEntity
8
BEND_EXTENT
100
AcDbLine
10
56.619060260016028
20
112.34431299406602
30
-2.8171909249863347e-14
11
-4.2346331352698741
21
51.490619598780214
31
-2.8171909249863344e-14
0
LINE
5
197
100
AcDbEntity
8
BEND_EXTENT
100
AcDbLine
10
332.11896711258828
20
112.5238934211693
30
-2.8449465006019636e-14
11
57.052605762665252
21
112.5238934211693
31
-2.8449465006019636e-14
0
LINE
5
198
100
AcDbEntity
8
BEND_EXTENT
100
AcDbLine
10
-4.4142135623730638
20
20.523893421169291
30
-3.5527136788005009e-14
11
393.58578643762701
21
20.523893421169291
31
-3.5527136788005009e-14
0
LINE
5
199
100
AcDbEntity
8
BEND_EXTENT
100
AcDbLine
10
393.58578643762701
20
20.523893421169291
30
-3.5527136788005009e-14
11
393.58578643762701
21
51.057074096130719
31
-2.8449465006019636e-14
0
LINE
5
200
100
AcDbEntity
8
BEND_EXTENT
100
AcDbLine
10
-4.4142135623730638
20
51.057074096130748
30
-2.8449465006019636e-14
11
-4.4142135623730638
21
20.523893421169291
31
-3.5527136788005009e-14
0
LINE
5
201
100
AcDbEntity
8
BEND_EXTENT
100
AcDbLine
10
393.40620601052365
20
51.490619598780221
30
-2.8727020762175925e-14
11
332.5525126152379
21
112.34431299406602
31
-2.9004576518332208e-14
0
ENDSEC
0
SECTION
2
OBJECTS
0
DICTIONARY
5
C
100
AcDbDictionary
3
ACAD_GROUP
350
D
3
ACAD_MLINESTYLE
350
17
0
DICTIONARY
5
D
100
AcDbDictionary
0
DICTIONARY
5
1A
330
C
100
AcDbDictionary
0
DICTIONARY
5
17
100
AcDbDictionary
0
ENDSEC
0
EOF
