0
SECTION
2
HEADER
9
$INSUNITS
70
4
9
$ACADVER
1
AC1014
9
$HANDSEED
5
FFFF
0
ENDSEC
0
SECTION
2
TABLES
0
TABLE
2
VPORT
5
8
100
AcDbSymbolTable
0
ENDTAB
0
TABLE
2
LTYPE
5
5
100
AcDbSymbolTable
0
LTYPE
5
14
100
AcDbSymbolTableRecord
100
AcDbLinetypeTableRecord
2
BYBLOCK
70
0
0
LTYPE
5
15
100
AcDbSymbolTableRecord
100
AcDbLinetypeTableRecord
2
BYLAYER
70
0
0
ENDTAB
0
TABLE
2
LAYER
5
2
100
AcDbSymbolTable
70
2
0
LAYER
5
50
100
AcDbSymbolTableRecord
100
AcDbLayerTableRecord
2
0
70
0
6
CONTINUOUS
0
ENDTAB
0
TABLE
2
STYLE
5
3
100
AcDbSymbolTable
70
1
0
STYLE
5
11
100
AcDbSymbolTableRecord
100
AcDbTextStyleTableRecord
2
STANDARD
70
0
0
ENDTAB
0
TABLE
2
VIEW
5
6
100
AcDbSymbolTable
70
0
0
ENDTAB
0
TABLE
2
UCS
5
7
100
AcDbSymbolTable
70
0
0
ENDTAB
0
TABLE
2
APPID
5
9
100
AcDbSymbolTable
70
2
0
APPID
5
12
100
AcDbSymbolTableRecord
100
AcDbRegAppTableRecord
2
ACAD
70
0
0
ENDTAB
0
TABLE
2
DIMSTYLE
5
A
100
AcDbSymbolTable
70
1
0
ENDTAB
0
TABLE
2
BLOCK_RECORD
5
1
100
AcDbSymbolTable
70
1
0
BLOCK_RECORD
5
1F
100
AcDbSymbolTableRecord
100
AcDbBlockTableRecord
2
*MODEL_SPACE
0
BLOCK_RECORD
5
1B
100
AcDbSymbolTableRecord
100
AcDbBlockTableRecord
2
*PAPER_SPACE
0
ENDTAB
0
ENDSEC
0
SECTION
2
BLOCKS
0
BLOCK
5
20
100
AcDbEntity
100
AcDbBlockBegin
2
*MODEL_SPACE
0
ENDBLK
5
21
100
AcDbEntity
100
AcDbBlockEnd
0
BLOCK
5
1C
100
AcDbEntity
100
AcDbBlockBegin
2
*PAPER_SPACE
0
ENDBLK
5
1D
100
AcDbEntity
100
AcDbBlockEnd
0
ENDSEC
0
SECTION
2
ENTITIES
0
LWPOLYLINE
5
100
100
AcDbEntity
8
OUTER_PROFILES
100
AcDbPolyline
90
32
70
1
43
0.0
10
644.82533067268969
20
433.71233067268736
42
-0.41421356237309509
10
649.82533067268969
20
428.71233067268736
10
649.82533067268889
20
159.82533067268719
42
-0.41421356237309509
10
644.82533067268889
20
154.82533067268719
10
546.43351958583867
20
154.82533067268753
10
544.17157287525401
20
153.99690354794132
10
495.82842712474616
20
105.65375779743391
10
495
20
103.39181108684933
10
494.99999999999972
20
5
42
-0.41421356237309603
10
489.99999999999972
20
-1.7763568394002505e-14
10
0
20
0
42
-0.41421356237309809
10
-5.0000000000000711
20
4.9999999999999813
10
-5
20
103.39181108685113
10
-5.8284271247461561
20
105.6537577974357
10
-54.171572875253631
20
153.99690354794359
10
-56.433519585838212
20
154.82533067268955
10
-154.82533067268855
20
154.82533067269023
42
-0.41421356237309603
10
-159.82533067268855
20
159.82533067269026
10
-159.82533067268781
20
428.71233067269031
42
-0.41421356237309298
10
-154.82533067268778
20
433.71233067269026
10
-56.43351958583736
20
433.71233067268986
10
-54.171572875252707
20
434.5407577974359
10
-5.8284271247448061
20
482.88390354794336
10
-4.9999999999985789
20
485.1458502585279
10
-4.9999999999982947
20
583.53766134537784
42
-0.4142135623730952
10
1.7083270731983289e-12
20
588.53766134537784
10
490.00000000000182
20
588.53766134537648
42
-0.41421356237309509
10
495.00000000000182
20
583.53766134537648
10
495.00000000000142
20
485.14585025852614
10
495.82842712474763
20
482.88390354794154
10
544.17157287525515
20
434.5407577974338
10
546.43351958583969
20
433.71233067268776
0
CIRCLE
5
101
100
AcDbEntity
8
INTERIOR_PROFILES
100
AcDbCircle
10
-89.999999076128177
20
134.26898184421327
30
0
40
2.2499999999999964
210
0
220
0
230
-1
0
CIRCLE
5
102
100
AcDbEntity
8
INTERIOR_PROFILES
100
AcDbCircle
10
-245.00000000000125
20
442.88390354794245
30
0
40
2.2500000000000142
210
0
220
0
230
-1
0
CIRCLE
5
103
100
AcDbEntity
8
INTERIOR_PROFILES
100
AcDbCircle
10
-245.00000000000117
20
422.88390354794245
30
0
40
2.2500000000000142
210
0
220
0
230
-1
0
CIRCLE
5
104
100
AcDbEntity
8
INTERIOR_PROFILES
100
AcDbCircle
10
-245.00000000000026
20
165.65375779743482
30
0
40
2.2500000000000142
210
0
220
0
230
-1
0
CIRCLE
5
105
100
AcDbEntity
8
INTERIOR_PROFILES
100
AcDbCircle
10
-405.00000000000114
20
402.88390354794188
30
0
40
2.2500000000000142
210
0
220
0
230
-1
0
CIRCLE
5
106
100
AcDbEntity
8
INTERIOR_PROFILES
100
AcDbCircle
10
-205.00000000000108
20
402.88390354794262
30
0
40
2.2500000000000142
210
0
220
0
230
-1
0
CIRCLE
5
107
100
AcDbEntity
8
INTERIOR_PROFILES
100
AcDbCircle
10
-45.000000000001066
20
402.88390354794319
30
0
40
2.2500000000000142
210
0
220
0
230
-1
0
CIRCLE
5
108
100
AcDbEntity
8
INTERIOR_PROFILES
100
AcDbCircle
10
-165.00000000000034
20
185.65375779743511
30
0
40
2.2500000000000142
210
0
220
0
230
-1
0
CIRCLE
5
109
100
AcDbEntity
8
INTERIOR_PROFILES
100
AcDbCircle
10
-365.00000000000028
20
185.65375779743442
30
0
40
2.2500000000000142
210
0
220
0
230
-1
0
CIRCLE
5
110
100
AcDbEntity
8
INTERIOR_PROFILES
100
AcDbCircle
10
-150.00000000000091
20
454.26867950116508
30
0
40
2.2500000000000142
210
0
220
0
230
-1
0
CIRCLE
5
111
100
AcDbEntity
8
INTERIOR_PROFILES
100
AcDbCircle
10
-245.00000000000111
20
402.88390354794245
30
0
40
2.2500000000000142
210
0
220
0
230
-1
0
CIRCLE
5
112
100
AcDbEntity
8
INTERIOR_PROFILES
100
AcDbCircle
10
-365.00000000000114
20
402.88390354794205
30
0
40
2.2500000000000142
210
0
220
0
230
-1
0
CIRCLE
5
113
100
AcDbEntity
8
INTERIOR_PROFILES
100
AcDbCircle
10
-165.00000000000108
20
402.88390354794274
30
0
40
2.2500000000000142
210
0
220
0
230
-1
0
CIRCLE
5
114
100
AcDbEntity
8
INTERIOR_PROFILES
100
AcDbCircle
10
-45.000000000000355
20
185.65375779743556
30
0
40
2.2500000000000142
210
0
220
0
230
-1
0
CIRCLE
5
115
100
AcDbEntity
8
INTERIOR_PROFILES
100
AcDbCircle
10
-205.00000000000034
20
185.65375779743499
30
0
40
2.2500000000000142
210
0
220
0
230
-1
0
CIRCLE
5
116
100
AcDbEntity
8
INTERIOR_PROFILES
100
AcDbCircle
10
-405.00000000000034
20
185.65375779743425
30
0
40
2.2500000000000142
210
0
220
0
230
-1
0
CIRCLE
5
117
100
AcDbEntity
8
INTERIOR_PROFILES
100
AcDbCircle
10
-340.00000000000114
20
454.2686795011644
30
0
40
2.2500000000000142
210
0
220
0
230
-1
0
CIRCLE
5
118
100
AcDbEntity
8
INTERIOR_PROFILES
100
AcDbCircle
10
-150.00000092387216
20
134.26898184421299
30
0
40
2.2499999999999964
210
0
220
0
230
-1
0
CIRCLE
5
119
100
AcDbEntity
8
INTERIOR_PROFILES
100
AcDbCircle
10
-400.00000000000028
20
134.26898184421208
30
0
40
2.2499999999999964
210
0
220
0
230
-1
0
CIRCLE
5
120
100
AcDbEntity
8
INTERIOR_PROFILES
100
AcDbCircle
10
-90.000000000001208
20
454.26867950116531
30
0
40
2.2500000000000142
210
0
220
0
230
-1
0
CIRCLE
5
121
100
AcDbEntity
8
INTERIOR_PROFILES
100
AcDbCircle
10
-325.00000000000028
20
185.65375779743454
30
0
40
2.2500000000000142
210
0
220
0
230
-1
0
CIRCLE
5
122
100
AcDbEntity
8
INTERIOR_PROFILES
100
AcDbCircle
10
-125.00000000000036
20
185.65375779743528
30
0
40
2.2500000000000142
210
0
220
0
230
-1
0
CIRCLE
5
123
100
AcDbEntity
8
INTERIOR_PROFILES
100
AcDbCircle
10
-85.000000000001066
20
402.88390354794302
30
0
40
2.2500000000000142
210
0
220
0
230
-1
0
CIRCLE
5
124
100
AcDbEntity
8
INTERIOR_PROFILES
100
AcDbCircle
10
-285.00000000000108
20
402.88390354794228
30
0
40
2.2500000000000142
210
0
220
0
230
-1
0
CIRCLE
5
125
100
AcDbEntity
8
INTERIOR_PROFILES
100
AcDbCircle
10
-445.00000000000114
20
402.88390354794171
30
0
40
2.2500000000000142
210
0
220
0
230
-1
0
CIRCLE
5
126
100
AcDbEntity
8
INTERIOR_PROFILES
100
AcDbCircle
10
-245.00000000000017
20
145.65375779743482
30
0
40
2.2499999999999964
210
0
220
0
230
-1
0
CIRCLE
5
127
100
AcDbEntity
8
INTERIOR_PROFILES
100
AcDbCircle
10
-245.00000000000131
20
462.88390354794245
30
0
40
2.2500000000000142
210
0
220
0
230
-1
0
CIRCLE
5
128
100
AcDbEntity
8
INTERIOR_PROFILES
100
AcDbCircle
10
-245.00000000000011
20
125.65375779743482
30
0
40
2.2500000000000142
210
0
220
0
230
-1
0
CIRCLE
5
129
100
AcDbEntity
8
INTERIOR_PROFILES
100
AcDbCircle
10
-245.00000000000031
20
185.65375779743482
30
0
40
2.2500000000000142
210
0
220
0
230
-1
0
CIRCLE
5
130
100
AcDbEntity
8
INTERIOR_PROFILES
100
AcDbCircle
10
-325.00000000000114
20
402.88390354794217
30
0
40
2.2500000000000142
210
0
220
0
230
-1
0
CIRCLE
5
131
100
AcDbEntity
8
INTERIOR_PROFILES
100
AcDbCircle
10
-125.00000000000107
20
402.88390354794285
30
0
40
2.2500000000000142
210
0
220
0
230
-1
0
CIRCLE
5
132
100
AcDbEntity
8
INTERIOR_PROFILES
100
AcDbCircle
10
-85.000000000000355
20
185.65375779743539
30
0
40
2.2500000000000142
210
0
220
0
230
-1
0
CIRCLE
5
133
100
AcDbEntity
8
INTERIOR_PROFILES
100
AcDbCircle
10
-285.00000000000034
20
185.65375779743471
30
0
40
2.2500000000000142
210
0
220
0
230
-1
0
CIRCLE
5
134
100
AcDbEntity
8
INTERIOR_PROFILES
100
AcDbCircle
10
-445.00000000000034
20
185.65375779743414
30
0
40
2.2500000000000142
210
0
220
0
230
-1
0
CIRCLE
5
135
100
AcDbEntity
8
INTERIOR_PROFILES
100
AcDbCircle
10
-400.00000000000102
20
454.26867950116417
30
0
40
2.2500000000000142
210
0
220
0
230
-1
0
CIRCLE
5
136
100
AcDbEntity
8
INTERIOR_PROFILES
100
AcDbCircle
10
-340.00000000000045
20
134.26898184421236
30
0
40
2.2499999999999964
210
0
220
0
230
-1
0
CIRCLE
5
137
100
AcDbEntity
8
INTERIOR_PROFILES
100
AcDbCircle
10
127.82533067268822
20
281.56883067269013
30
0
40
1.6000000000000014
210
0
220
0
230
-1
0
CIRCLE
5
138
100
AcDbEntity
8
INTERIOR_PROFILES
100
AcDbCircle
10
-617.82533067269321
20
281.56883067268745
30
0
40
1.6000000000000014
210
0
220
0
230
-1
0
CIRCLE
5
139
100
AcDbEntity
8
INTERIOR_PROFILES
100
AcDbCircle
10
98.71018492218262
20
264.26883067268983
30
0
40
10
210
0
220
0
230
-1
0
CIRCLE
5
140
100
AcDbEntity
8
INTERIOR_PROFILES
100
AcDbCircle
10
-588.71018492218741
20
264.26883067268739
30
0
40
10
210
0
220
0
230
-1
0
CIRCLE
5
141
100
AcDbEntity
8
INTERIOR_PROFILES
100
AcDbCircle
10
98.710184922182336
20
426.21233067269003
30
0
40
2.2500000000000142
210
0
220
0
230
-1
0
CIRCLE
5
142
100
AcDbEntity
8
INTERIOR_PROFILES
100
AcDbCircle
10
-588.71018492218832
20
426.21233067268759
30
0
40
2.2500000000000142
210
0
220
0
230
-1
0
CIRCLE
5
143
100
AcDbEntity
8
INTERIOR_PROFILES
100
AcDbCircle
10
98.710184922182478
20
351.21233067269003
30
0
40
2.2500000000000142
210
0
220
0
230
-1
0
CIRCLE
5
144
100
AcDbEntity
8
INTERIOR_PROFILES
100
AcDbCircle
10
-588.71018492218798
20
351.21233067268759
30
0
40
2.2500000000000142
210
0
220
0
230
-1
0
LWPOLYLINE
5
145
100
AcDbEntity
8
INTERIOR_PROFILES
100
AcDbPolyline
90
4
70
1
43
0.0
10
-111.21018492218305
20
169.82533067269006
10
-86.210184922182975
20
169.82533067269003
10
-86.210184922182762
20
229.82533067269003
10
-111.21018492218276
20
229.82533067269009
0
LWPOLYLINE
5
146
100
AcDbEntity
8
INTERIOR_PROFILES
100
AcDbPolyline
90
4
70
1
43
0.0
10
576.21018492218695
20
169.82533067268773
10
601.21018492218695
20
169.82533067268753
10
601.2101849221873
20
229.82533067268758
10
576.2101849221873
20
229.8253306726877
0
LWPOLYLINE
5
147
100
AcDbEntity
8
INTERIOR_PROFILES
100
AcDbPolyline
90
4
70
1
43
0.0
10
-133.92533067268806
20
284.51883067269017
10
-121.72533067268809
20
284.51883067269011
10
-121.72533067268809
20
304.01883067269011
10
-133.92533067268806
20
304.01883067269017
0
LWPOLYLINE
5
148
100
AcDbEntity
8
INTERIOR_PROFILES
100
AcDbPolyline
90
4
70
1
43
0.0
10
611.72533067269319
20
284.5188306726875
10
623.92533067269324
20
284.51883067268744
10
623.92533067269324
20
304.01883067268744
10
611.7253306726933
20
304.0188306726875
0
CIRCLE
5
149
100
AcDbEntity
8
INTERIOR_PROFILES
100
AcDbCircle
10
98.710184922182762
20
237.32533067269003
30
0
40
2.2500000000000142
210
0
220
0
230
-1
0
CIRCLE
5
150
100
AcDbEntity
8
INTERIOR_PROFILES
100
AcDbCircle
10
-588.7101849221873
20
237.32533067268761
30
0
40
2.2500000000000142
210
0
220
0
230
-1
0
LWPOLYLINE
5
151
100
AcDbEntity
8
INTERIOR_PROFILES
100
AcDbPolyline
90
4
70
1
43
0.0
10
-111.21018492218234
20
358.71233067269009
10
-86.210184922182407
20
358.71233067269003
10
-86.210184922182265
20
418.71233067269003
10
-111.21018492218219
20
418.71233067269009
0
LWPOLYLINE
5
152
100
AcDbEntity
8
INTERIOR_PROFILES
100
AcDbPolyline
90
4
70
1
43
0.0
10
576.21018492218798
20
358.71233067268776
10
601.21018492218798
20
358.71233067268759
10
601.21018492218832
20
418.71233067268759
10
576.21018492218832
20
418.71233067268776
0
CIRCLE
5
153
100
AcDbEntity
8
INTERIOR_PROFILES
100
AcDbCircle
10
98.710184922182478
20
324.26883067268983
30
0
40
10
210
0
220
0
230
-1
0
CIRCLE
5
154
100
AcDbEntity
8
INTERIOR_PROFILES
100
AcDbCircle
10
-588.71018492218786
20
324.26883067268739
30
0
40
10
210
0
220
0
230
-1
0
CIRCLE
5
155
100
AcDbEntity
8
INTERIOR_PROFILES
100
AcDbCircle
10
98.710184922183046
20
162.32533067269006
30
0
40
2.2499999999999787
210
0
220
0
230
-1
0
CIRCLE
5
156
100
AcDbEntity
8
INTERIOR_PROFILES
100
AcDbCircle
10
-588.71018492218695
20
162.32533067268761
30
0
40
2.2500000000000142
210
0
220
0
230
-1
0
CIRCLE
5
157
100
AcDbEntity
8
INTERIOR_PROFILES
100
AcDbCircle
10
127.82533067268822
20
306.96883067269016
30
0
40
1.6000000000000014
210
0
220
0
230
-1
0
CIRCLE
5
158
100
AcDbEntity
8
INTERIOR_PROFILES
100
AcDbCircle
10
-617.82533067269333
20
306.96883067268749
30
0
40
1.6000000000000014
210
0
220
0
230
-1
0
CIRCLE
5
159
100
AcDbEntity
8
INTERIOR_PROFILES
100
AcDbCircle
10
6.6654762208438711
20
117.80451539251821
30
0
40
2.2500000000000142
210
0
220
0
230
-1
0
CIRCLE
5
160
100
AcDbEntity
8
INTERIOR_PROFILES
100
AcDbCircle
10
-532.02081528017266
20
435.37780689353156
30
0
40
2.2499999999999432
210
0
220
0
230
-1
0
CIRCLE
5
161
100
AcDbEntity
8
INTERIOR_PROFILES
100
AcDbCircle
10
-496.66547622084408
20
117.80451539251642
30
0
40
2.2500000000000142
210
0
220
0
230
-1
0
CIRCLE
5
162
100
AcDbEntity
8
INTERIOR_PROFILES
100
AcDbCircle
10
42.020815280170183
20
435.37780689353372
30
0
40
2.2500000000000142
210
0
220
0
230
-1
0
CIRCLE
5
163
100
AcDbEntity
8
INTERIOR_PROFILES
100
AcDbCircle
10
42.020815280171107
20
153.15985445184572
30
0
40
2.2500000000000142
210
0
220
0
230
-1
0
CIRCLE
5
164
100
AcDbEntity
8
INTERIOR_PROFILES
100
AcDbCircle
10
-496.66547622084533
20
470.7331459528591
30
0
40
2.2499999999999432
210
0
220
0
230
-1
0
CIRCLE
5
165
100
AcDbEntity
8
INTERIOR_PROFILES
100
AcDbCircle
10
-532.02081528017152
20
153.15985445184364
30
0
40
2.2500000000000142
210
0
220
0
230
-1
0
CIRCLE
5
166
100
AcDbEntity
8
INTERIOR_PROFILES
100
AcDbCircle
10
6.6654762208426632
20
470.73314595286081
30
0
40
2.2499999999999432
210
0
220
0
230
-1
0
CIRCLE
5
167
100
AcDbEntity
8
INTERIOR_PROFILES
100
AcDbCircle
10
-230.00000000000026
20
211.88500314063262
30
0
40
2.2500000000000142
210
0
220
0
230
-1
0
CIRCLE
5
168
100
AcDbEntity
8
INTERIOR_PROFILES
100
AcDbCircle
10
-230.00000000000088
20
376.88500314063265
30
0
40
2.2500000000000142
210
0
220
0
230
-1
0
CIRCLE
5
169
100
AcDbEntity
8
INTERIOR_PROFILES
100
AcDbCircle
10
-110.00000000000028
20
211.88500314063307
30
0
40
2.2499999999999787
210
0
220
0
230
-1
0
CIRCLE
5
170
100
AcDbEntity
8
INTERIOR_PROFILES
100
AcDbCircle
10
-110.00000000000092
20
376.88500314063305
30
0
40
2.2500000000000142
210
0
220
0
230
-1
0
CIRCLE
5
171
100
AcDbEntity
8
INTERIOR_PROFILES
100
AcDbCircle
10
-307.99999907612806
20
115.26898184421245
30
0
40
2.2500000000000142
210
0
220
0
230
-1
0
CIRCLE
5
172
100
AcDbEntity
8
INTERIOR_PROFILES
100
AcDbCircle
10
-58.000000000000611
20
153.2689814865856
30
0
40
2.2500000000000142
210
0
220
0
230
-1
0
CIRCLE
5
173
100
AcDbEntity
8
INTERIOR_PROFILES
100
AcDbCircle
10
-432.00000092387336
20
473.26867950116412
30
0
40
2.2500000000000142
210
0
220
0
230
-1
0
CIRCLE
5
174
100
AcDbEntity
8
INTERIOR_PROFILES
100
AcDbCircle
10
-58.000000000001108
20
435.26867985879329
30
0
40
2.2500000000000142
210
0
220
0
230
-1
0
CIRCLE
5
175
100
AcDbEntity
8
INTERIOR_PROFILES
100
AcDbCircle
10
-182.00000000000088
20
435.26867985879272
30
0
40
2.2500000000000142
210
0
220
0
230
-1
0
CIRCLE
5
176
100
AcDbEntity
8
INTERIOR_PROFILES
100
AcDbCircle
10
-308.00000000000108
20
435.26867985879232
30
0
40
2.2500000000000142
210
0
220
0
230
-1
0
CIRCLE
5
177
100
AcDbEntity
8
INTERIOR_PROFILES
100
AcDbCircle
10
-182.00000092387214
20
115.26898184421286
30
0
40
2.2499999999999787
210
0
220
0
230
-1
0
CIRCLE
5
178
100
AcDbEntity
8
INTERIOR_PROFILES
100
AcDbCircle
10
-432.00000092387205
20
115.26898184421194
30
0
40
2.2499999999999787
210
0
220
0
230
-1
0
CIRCLE
5
179
100
AcDbEntity
8
INTERIOR_PROFILES
100
AcDbCircle
10
-308.00000000000051
20
153.26898148658469
30
0
40
2.2500000000000142
210
0
220
0
230
-1
0
CIRCLE
5
180
100
AcDbEntity
8
INTERIOR_PROFILES
100
AcDbCircle
10
-57.999999076128077
20
115.26898184421339
30
0
40
2.2500000000000142
210
0
220
0
230
-1
0
CIRCLE
5
181
100
AcDbEntity
8
INTERIOR_PROFILES
100
AcDbCircle
10
-432.00000000000091
20
435.26867985879176
30
0
40
2.2500000000000142
210
0
220
0
230
-1
0
CIRCLE
5
182
100
AcDbEntity
8
INTERIOR_PROFILES
100
AcDbCircle
10
-57.999999076129356
20
473.26867950116542
30
0
40
2.2500000000000142
210
0
220
0
230
-1
0
CIRCLE
5
183
100
AcDbEntity
8
INTERIOR_PROFILES
100
AcDbCircle
10
-182.00000092387336
20
473.26867950116491
30
0
40
2.2500000000000142
210
0
220
0
230
-1
0
CIRCLE
5
184
100
AcDbEntity
8
INTERIOR_PROFILES
100
AcDbCircle
10
-307.99999907612931
20
473.26867950116451
30
0
40
2.2500000000000142
210
0
220
0
230
-1
0
CIRCLE
5
185
100
AcDbEntity
8
INTERIOR_PROFILES
100
AcDbCircle
10
-182.0000000000004
20
153.26898148658498
30
0
40
2.2499999999999964
210
0
220
0
230
-1
0
CIRCLE
5
186
100
AcDbEntity
8
INTERIOR_PROFILES
100
AcDbCircle
10
-432.00000000000034
20
153.2689814865841
30
0
40
2.2499999999999964
210
0
220
0
230
-1
0
CIRCLE
5
187
100
AcDbEntity
8
INTERIOR_PROFILES
100
AcDbCircle
10
151.82533067268827
20
214.2688306726902
30
0
40
2.2499999999999787
210
0
220
0
230
-1
0
CIRCLE
5
188
100
AcDbEntity
8
INTERIOR_PROFILES
100
AcDbCircle
10
-641.82533067269276
20
214.26883067268733
30
0
40
2.2500000000000142
210
0
220
0
230
-1
0
CIRCLE
5
189
100
AcDbEntity
8
INTERIOR_PROFILES
100
AcDbCircle
10
151.82533067268815
20
294.26883067269023
30
0
40
2.2499999999999787
210
0
220
0
230
-1
0
CIRCLE
5
190
100
AcDbEntity
8
INTERIOR_PROFILES
100
AcDbCircle
10
-641.82533067269321
20
294.26883067268733
30
0
40
2.2499999999999787
210
0
220
0
230
-1
0
CIRCLE
5
191
100
AcDbEntity
8
INTERIOR_PROFILES
100
AcDbCircle
10
151.82533067268798
20
374.26883067269017
30
0
40
2.2500000000000142
210
0
220
0
230
-1
0
CIRCLE
5
192
100
AcDbEntity
8
INTERIOR_PROFILES
100
AcDbCircle
10
-641.82533067269355
20
374.26883067268733
30
0
40
2.2500000000000142
210
0
220
0
230
-1
0
CIRCLE
5
193
100
AcDbEntity
8
INTERIOR_PROFILES
100
AcDbCircle
10
151.82533067268798
20
394.26883067269017
30
0
40
2.2500000000000142
210
0
220
0
230
-1
0
CIRCLE
5
194
100
AcDbEntity
8
INTERIOR_PROFILES
100
AcDbCircle
10
-641.82533067269378
20
394.26883067268733
30
0
40
2.2500000000000142
210
0
220
0
230
-1
0
CIRCLE
5
195
100
AcDbEntity
8
INTERIOR_PROFILES
100
AcDbCircle
10
151.82533067268815
20
314.26883067269023
30
0
40
2.2499999999999787
210
0
220
0
230
-1
0
CIRCLE
5
196
100
AcDbEntity
8
INTERIOR_PROFILES
100
AcDbCircle
10
-641.82533067269333
20
314.26883067268739
30
0
40
2.2499999999999787
210
0
220
0
230
-1
0
CIRCLE
5
197
100
AcDbEntity
8
INTERIOR_PROFILES
100
AcDbCircle
10
151.82533067268844
20
234.2688306726902
30
0
40
2.2499999999999787
210
0
220
0
230
-1
0
CIRCLE
5
198
100
AcDbEntity
8
INTERIOR_PROFILES
100
AcDbCircle
10
-641.82533067269287
20
234.26883067268733
30
0
40
2.2500000000000142
210
0
220
0
230
-1
0
CIRCLE
5
199
100
AcDbEntity
8
INTERIOR_PROFILES
100
AcDbCircle
10
151.82533067268844
20
194.2688306726902
30
0
40
2.2499999999999787
210
0
220
0
230
-1
0
CIRCLE
5
200
100
AcDbEntity
8
INTERIOR_PROFILES
100
AcDbCircle
10
-641.82533067269264
20
194.26883067268733
30
0
40
2.2500000000000142
210
0
220
0
230
-1
0
CIRCLE
5
201
100
AcDbEntity
8
INTERIOR_PROFILES
100
AcDbCircle
10
151.82533067268827
20
274.26883067269023
30
0
40
2.2499999999999787
210
0
220
0
230
-1
0
CIRCLE
5
202
100
AcDbEntity
8
INTERIOR_PROFILES
100
AcDbCircle
10
-641.8253306726931
20
274.26883067268733
30
0
40
2.2500000000000142
210
0
220
0
230
-1
0
CIRCLE
5
203
100
AcDbEntity
8
INTERIOR_PROFILES
100
AcDbCircle
10
151.82533067268798
20
354.26883067269017
30
0
40
2.2500000000000142
210
0
220
0
230
-1
0
CIRCLE
5
204
100
AcDbEntity
8
INTERIOR_PROFILES
100
AcDbCircle
10
-641.82533067269344
20
354.26883067268733
30
0
40
2.2500000000000142
210
0
220
0
230
-1
0
CIRCLE
5
205
100
AcDbEntity
8
INTERIOR_PROFILES
100
AcDbCircle
10
151.82533067268787
20
414.26883067269017
30
0
40
2.2500000000000142
210
0
220
0
230
-1
0
CIRCLE
5
206
100
AcDbEntity
8
INTERIOR_PROFILES
100
AcDbCircle
10
-641.82533067269389
20
414.26883067268733
30
0
40
2.2500000000000142
210
0
220
0
230
-1
0
CIRCLE
5
207
100
AcDbEntity
8
INTERIOR_PROFILES
100
AcDbCircle
10
151.82533067268798
20
334.26883067269017
30
0
40
2.2500000000000142
210
0
220
0
230
-1
0
CIRCLE
5
208
100
AcDbEntity
8
INTERIOR_PROFILES
100
AcDbCircle
10
-641.82533067269344
20
334.26883067268733
30
0
40
2.2500000000000142
210
0
220
0
230
-1
0
CIRCLE
5
209
100
AcDbEntity
8
INTERIOR_PROFILES
100
AcDbCircle
10
151.82533067268827
20
254.2688306726902
30
0
40
2.2499999999999787
210
0
220
0
230
-1
0
CIRCLE
5
210
100
AcDbEntity
8
INTERIOR_PROFILES
100
AcDbCircle
10
-641.8253306726931
20
254.26883067268733
30
0
40
2.2500000000000142
210
0
220
0
230
-1
0
CIRCLE
5
211
100
AcDbEntity
8
INTERIOR_PROFILES
100
AcDbCircle
10
151.82533067268844
20
174.2688306726902
30
0
40
2.2499999999999787
210
0
220
0
230
-1
0
CIRCLE
5
212
100
AcDbEntity
8
INTERIOR_PROFILES
100
AcDbCircle
10
-641.82533067269242
20
174.26883067268733
30
0
40
2.2500000000000142
210
0
220
0
230
-1
0
CIRCLE
5
213
100
AcDbEntity
8
INTERIOR_PROFILES
100
AcDbCircle
10
-357.49999999999591
20
7.9999220613564503
30
0
40
2.2500000000000142
210
0
220
0
230
-1
0
CIRCLE
5
214
100
AcDbEntity
8
INTERIOR_PROFILES
100
AcDbCircle
10
-87.500000000002913
20
7.9999220613564859
30
0
40
2.2499999999999964
210
0
220
0
230
-1
0
CIRCLE
5
215
100
AcDbEntity
8
INTERIOR_PROFILES
100
AcDbCircle
10
-267.49999999999591
20
7.9999220613567523
30
0
40
2.2500000000000142
210
0
220
0
230
-1
0
CIRCLE
5
216
100
AcDbEntity
8
INTERIOR_PROFILES
100
AcDbCircle
10
-470.03004630477022
20
7.9999220613563793
30
0
40
2.2500000000000142
210
0
220
0
230
-1
0
CIRCLE
5
217
100
AcDbEntity
8
INTERIOR_PROFILES
100
AcDbCircle
10
-4.9699536952287104
20
7.9999220613527022
30
0
40
2.2500000000000142
210
0
220
0
230
-1
0
CIRCLE
5
218
100
AcDbEntity
8
INTERIOR_PROFILES
100
AcDbCircle
10
-132.5000000000029
20
7.999922061356326
30
0
40
2.2499999999999964
210
0
220
0
230
-1
0
CIRCLE
5
219
100
AcDbEntity
8
INTERIOR_PROFILES
100
AcDbCircle
10
-402.49999999999596
20
7.9999220613562727
30
0
40
2.2500000000000142
210
0
220
0
230
-1
0
CIRCLE
5
220
100
AcDbEntity
8
INTERIOR_PROFILES
100
AcDbCircle
10
-312.49999999999591
20
7.9999220613566102
30
0
40
2.2500000000000142
210
0
220
0
230
-1
0
CIRCLE
5
221
100
AcDbEntity
8
INTERIOR_PROFILES
100
AcDbCircle
10
-42.500000000002913
20
7.9999220613566457
30
0
40
2.2500000000000142
210
0
220
0
230
-1
0
CIRCLE
5
222
100
AcDbEntity
8
INTERIOR_PROFILES
100
AcDbCircle
10
-222.5000000000029
20
7.9999220613560063
30
0
40
2.2500000000000142
210
0
220
0
230
-1
0
CIRCLE
5
223
100
AcDbEntity
8
INTERIOR_PROFILES
100
AcDbCircle
10
-485.03004630477022
20
7.9999220613566102
30
0
40
2.2500000000000142
210
0
220
0
230
-1
0
CIRCLE
5
224
100
AcDbEntity
8
INTERIOR_PROFILES
100
AcDbCircle
10
-19.96995369522871
20
7.9999220613529332
30
0
40
2.2500000000000142
210
0
220
0
230
-1
0
CIRCLE
5
225
100
AcDbEntity
8
INTERIOR_PROFILES
100
AcDbCircle
10
-177.5000000000029
20
7.9999220613561661
30
0
40
2.2500000000000142
210
0
220
0
230
-1
0
CIRCLE
5
226
100
AcDbEntity
8
INTERIOR_PROFILES
100
AcDbCircle
10
-447.49999999999596
20
7.9999220613561306
30
0
40
2.2500000000000142
210
0
220
0
230
-1
0
CIRCLE
5
227
100
AcDbEntity
8
INTERIOR_PROFILES
100
AcDbCircle
10
-132.50000000000517
20
580.5377392840237
30
0
40
2.2499999999999964
210
0
220
0
230
-1
0
CIRCLE
5
228
100
AcDbEntity
8
INTERIOR_PROFILES
100
AcDbCircle
10
-402.49999999999818
20
580.53773928402109
30
0
40
2.2500000000000142
210
0
220
0
230
-1
0
CIRCLE
5
229
100
AcDbEntity
8
INTERIOR_PROFILES
100
AcDbCircle
10
-267.49999999999818
20
580.53773928402188
30
0
40
2.2500000000000142
210
0
220
0
230
-1
0
CIRCLE
5
230
100
AcDbEntity
8
INTERIOR_PROFILES
100
AcDbCircle
10
-4.9699536952309131
20
580.53773928402859
30
0
40
2.2500000000000142
210
0
220
0
230
-1
0
CIRCLE
5
231
100
AcDbEntity
8
INTERIOR_PROFILES
100
AcDbCircle
10
-485.03004630477244
20
580.53773928401984
30
0
40
2.2500000000000142
210
0
220
0
230
-1
0
CIRCLE
5
232
100
AcDbEntity
8
INTERIOR_PROFILES
100
AcDbCircle
10
-357.49999999999818
20
580.53773928402143
30
0
40
2.2500000000000142
210
0
220
0
230
-1
0
CIRCLE
5
233
100
AcDbEntity
8
INTERIOR_PROFILES
100
AcDbCircle
10
-87.500000000005187
20
580.53773928402404
30
0
40
2.2499999999999964
210
0
220
0
230
-1
0
CIRCLE
5
234
100
AcDbEntity
8
INTERIOR_PROFILES
100
AcDbCircle
10
-177.50000000000517
20
580.53773928402347
30
0
40
2.2500000000000142
210
0
220
0
230
-1
0
CIRCLE
5
235
100
AcDbEntity
8
INTERIOR_PROFILES
100
AcDbCircle
10
-447.49999999999818
20
580.53773928402074
30
0
40
2.2500000000000142
210
0
220
0
230
-1
0
CIRCLE
5
236
100
AcDbEntity
8
INTERIOR_PROFILES
100
AcDbCircle
10
-222.50000000000517
20
580.53773928402302
30
0
40
2.2500000000000142
210
0
220
0
230
-1
0
CIRCLE
5
237
100
AcDbEntity
8
INTERIOR_PROFILES
100
AcDbCircle
10
-19.969953695230913
20
580.53773928402825
30
0
40
2.2500000000000142
210
0
220
0
230
-1
0
CIRCLE
5
238
100
AcDbEntity
8
INTERIOR_PROFILES
100
AcDbCircle
10
-470.03004630477244
20
580.53773928402029
30
0
40
2.2500000000000142
210
0
220
0
230
-1
0
CIRCLE
5
239
100
AcDbEntity
8
INTERIOR_PROFILES
100
AcDbCircle
10
-312.49999999999818
20
580.53773928402154
30
0
40
2.2499999999999787
210
0
220
0
230
-1
0
CIRCLE
5
240
100
AcDbEntity
8
INTERIOR_PROFILES
100
AcDbCircle
10
-42.500000000005187
20
580.53773928402427
30
0
40
2.2500000000000142
210
0
220
0
230
-1
0
CIRCLE
5
241
100
AcDbEntity
8
INTERIOR_PROFILES
100
AcDbCircle
10
-390.00000000000159
20
520.53773928401927
30
0
40
10
210
0
220
0
230
-1
0
CIRCLE
5
242
100
AcDbEntity
8
INTERIOR_PROFILES
100
AcDbCircle
10
-385.00000000000171
20
538.53773928401927
30
0
40
2.9999999999999716
210
0
220
0
230
-1
0
CIRCLE
5
243
100
AcDbEntity
8
INTERIOR_PROFILES
100
AcDbCircle
10
-370.00000000000171
20
538.53773928401938
30
0
40
5
210
0
220
0
230
-1
0
CIRCLE
5
244
100
AcDbEntity
8
INTERIOR_PROFILES
100
AcDbCircle
10
-105.00000000000171
20
538.53773928402109
30
0
40
3.0000000000000071
210
0
220
0
230
-1
0
CIRCLE
5
245
100
AcDbEntity
8
INTERIOR_PROFILES
100
AcDbCircle
10
-100.00000000000156
20
520.53773928402109
30
0
40
10
210
0
220
0
230
-1
0
CIRCLE
5
246
100
AcDbEntity
8
INTERIOR_PROFILES
100
AcDbCircle
10
-350.00000000000159
20
520.53773928401949
30
0
40
10
210
0
220
0
230
-1
0
CIRCLE
5
247
100
AcDbEntity
8
INTERIOR_PROFILES
100
AcDbCircle
10
-355.00000000000171
20
538.53773928401949
30
0
40
2.9999999999999716
210
0
220
0
230
-1
0
CIRCLE
5
248
100
AcDbEntity
8
INTERIOR_PROFILES
100
AcDbCircle
10
-120.00000000000171
20
538.53773928402097
30
0
40
5
210
0
220
0
230
-1
0
CIRCLE
5
249
100
AcDbEntity
8
INTERIOR_PROFILES
100
AcDbCircle
10
-135.00000000000171
20
538.53773928402086
30
0
40
3.0000000000000071
210
0
220
0
230
-1
0
CIRCLE
5
250
100
AcDbEntity
8
INTERIOR_PROFILES
100
AcDbCircle
10
-140.00000000000156
20
520.53773928402086
30
0
40
10
210
0
220
0
230
-1
0
CIRCLE
5
251
100
AcDbEntity
8
INTERIOR_PROFILES
100
AcDbCircle
10
-1.5000000000004121
20
226.51883067268949
30
0
40
1.7500000000000071
210
0
220
0
230
-1
0
CIRCLE
5
252
100
AcDbEntity
8
INTERIOR_PROFILES
100
AcDbCircle
10
-417.00000000000057
20
273.26883067268801
30
0
40
1.7500000000000071
210
0
220
0
230
-1
0
CIRCLE
5
253
100
AcDbEntity
8
INTERIOR_PROFILES
100
AcDbCircle
10
-325.00000000000051
20
226.51883067268835
30
0
40
1.7500000000000071
210
0
220
0
230
-1
0
CIRCLE
5
254
100
AcDbEntity
8
INTERIOR_PROFILES
100
AcDbCircle
10
-445.00000000000102
20
362.01883067268795
30
0
40
1.7499999999999716
210
0
220
0
230
-1
0
CIRCLE
5
255
100
AcDbEntity
8
INTERIOR_PROFILES
100
AcDbCircle
10
-488.50000000000045
20
226.51883067268778
30
0
40
1.7500000000000071
210
0
220
0
230
-1
0
CIRCLE
5
256
100
AcDbEntity
8
INTERIOR_PROFILES
100
AcDbCircle
10
-325.00000000000091
20
362.01883067268841
30
0
40
1.7499999999999716
210
0
220
0
230
-1
0
CIRCLE
5
257
100
AcDbEntity
8
INTERIOR_PROFILES
100
AcDbCircle
10
-375.00000000000063
20
273.26883067268818
30
0
40
1.7500000000000071
210
0
220
0
230
-1
0
CIRCLE
5
258
100
AcDbEntity
8
INTERIOR_PROFILES
100
AcDbCircle
10
-1.5000000000009095
20
362.01883067268955
30
0
40
1.7499999999999716
210
0
220
0
230
-1
0
CIRCLE
5
259
100
AcDbEntity
8
INTERIOR_PROFILES
100
AcDbCircle
10
-73.000000000000824
20
315.26883067268926
30
0
40
1.7500000000000071
210
0
220
0
230
-1
0
CIRCLE
5
260
100
AcDbEntity
8
INTERIOR_PROFILES
100
AcDbCircle
10
-45.000000000000497
20
226.51883067268932
30
0
40
1.7500000000000071
210
0
220
0
230
-1
0
CIRCLE
5
261
100
AcDbEntity
8
INTERIOR_PROFILES
100
AcDbCircle
10
-395.0000000000008
20
315.26883067268807
30
0
40
1.7500000000000071
210
0
220
0
230
-1
0
CIRCLE
5
262
100
AcDbEntity
8
INTERIOR_PROFILES
100
AcDbCircle
10
-281.50000000000045
20
226.51883067268847
30
0
40
1.7500000000000071
210
0
220
0
230
-1
0
CIRCLE
5
263
100
AcDbEntity
8
INTERIOR_PROFILES
100
AcDbCircle
10
-488.50000000000102
20
362.01883067268784
30
0
40
1.7499999999999716
210
0
220
0
230
-1
0
CIRCLE
5
264
100
AcDbEntity
8
INTERIOR_PROFILES
100
AcDbCircle
10
-445.00000000000045
20
226.5188306726879
30
0
40
1.7500000000000071
210
0
220
0
230
-1
0
CIRCLE
5
265
100
AcDbEntity
8
INTERIOR_PROFILES
100
AcDbCircle
10
-281.50000000000097
20
362.01883067268852
30
0
40
1.7499999999999716
210
0
220
0
230
-1
0
CIRCLE
5
266
100
AcDbEntity
8
INTERIOR_PROFILES
100
AcDbCircle
10
-353.0000000000008
20
315.2688306726883
30
0
40
1.7500000000000071
210
0
220
0
230
-1
0
CIRCLE
5
267
100
AcDbEntity
8
INTERIOR_PROFILES
100
AcDbCircle
10
-45.000000000000995
20
362.01883067268938
30
0
40
1.7499999999999716
210
0
220
0
230
-1
0
CIRCLE
5
268
100
AcDbEntity
8
INTERIOR_PROFILES
100
AcDbCircle
10
-95.000000000000639
20
273.26883067268915
30
0
40
1.7500000000000071
210
0
220
0
230
-1
0
CIRCLE
5
269
100
AcDbEntity
8
INTERIOR_PROFILES
100
AcDbCircle
10
-139.99999999999986
20
67.999922061354027
30
0
40
10
210
0
220
0
230
-1
0
CIRCLE
5
270
100
AcDbEntity
8
INTERIOR_PROFILES
100
AcDbCircle
10
-134.99999999999977
20
49.999922061354063
30
0
40
3.0000000000000071
210
0
220
0
230
-1
0
CIRCLE
5
271
100
AcDbEntity
8
INTERIOR_PROFILES
100
AcDbCircle
10
-119.99999999999979
20
49.999922061354098
30
0
40
5
210
0
220
0
230
-1
0
CIRCLE
5
272
100
AcDbEntity
8
INTERIOR_PROFILES
100
AcDbCircle
10
-354.99999999999989
20
49.99992206135326
30
0
40
2.9999999999999716
210
0
220
0
230
-1
0
CIRCLE
5
273
100
AcDbEntity
8
INTERIOR_PROFILES
100
AcDbCircle
10
-349.99999999999989
20
67.999922061353288
30
0
40
10
210
0
220
0
230
-1
0
CIRCLE
5
274
100
AcDbEntity
8
INTERIOR_PROFILES
100
AcDbCircle
10
-99.999999999999858
20
67.999922061354155
30
0
40
10
210
0
220
0
230
-1
0
CIRCLE
5
275
100
AcDbEntity
8
INTERIOR_PROFILES
100
AcDbCircle
10
-104.99999999999979
20
49.999922061354155
30
0
40
3.0000000000000071
210
0
220
0
230
-1
0
CIRCLE
5
276
100
AcDbEntity
8
INTERIOR_PROFILES
100
AcDbCircle
10
-369.99999999999989
20
49.99992206135321
30
0
40
5
210
0
220
0
230
-1
0
CIRCLE
5
277
100
AcDbEntity
8
INTERIOR_PROFILES
100
AcDbCircle
10
-384.99999999999989
20
49.999922061353161
30
0
40
2.9999999999999716
210
0
220
0
230
-1
0
CIRCLE
5
278
100
AcDbEntity
8
INTERIOR_PROFILES
100
AcDbCircle
10
-389.99999999999989
20
67.999922061353132
30
0
40
10
210
0
220
0
230
-1
0
LINE
5
279
100
AcDbEntity
8
BEND
100
AcDbLine
10
495.41421356237311
20
104.52278444214151
30
2.7012647798591553e-11
11
-5.414213562373078
21
104.52278444214329
31
2.7037810900560891e-11
0
LINE
5
280
100
AcDbEntity
8
BEND
100
AcDbLine
10
-55.302546230545744
20
154.4111171103165
30
2.7040317437997705e-11
11
-55.302546230544962
21
434.12654423506285
31
2.7040317437997705e-11
0
LINE
5
281
100
AcDbEntity
8
BEND
100
AcDbLine
10
-5.414213562371728
20
484.0148769032354
30
2.7122465406188559e-11
11
495.41421356237464
21
484.01487690323364
31
2.6928548404476197e-11
0
LINE
5
282
100
AcDbEntity
8
BEND
100
AcDbLine
10
545.30254623054725
20
434.12654423506081
30
2.6959078866343899e-11
11
545.30254623054634
21
154.41111711031439
31
2.68752570279847e-11
0
LINE
5
283
100
AcDbEntity
8
BEND
100
AcDbLine
10
494.99999999999994
20
84.746119105796794
30
2.8576422620151932e-11
11
-5.0000000000000711
21
84.746119105798556
31
2.8575081737325757e-11
0
LINE
5
284
100
AcDbEntity
8
BEND
100
AcDbLine
10
-75.079211566890365
20
154.82533067269
30
2.8440606563205903e-11
11
-75.079211566889512
21
433.71233067269003
31
2.8489972187945684e-11
0
LINE
5
285
100
AcDbEntity
8
BEND
100
AcDbLine
10
-4.9999999999985079
20
503.79154223958039
30
2.822109006734711e-11
11
495.00000000000148
21
503.79154223957863
31
2.793478862146499e-11
0
LINE
5
286
100
AcDbEntity
8
BEND
100
AcDbLine
10
565.07921156689179
20
433.71233067268759
30
2.8069627971512425e-11
11
565.07921156689099
21
154.82533067268744
31
2.7979287872220492e-11
0
LINE
5
287
100
AcDbEntity
8
BEND_EXTENT
100
AcDbLine
10
566.21018492218423
20
433.71233067268759
30
2.7860354303659217e-11
11
566.21018492218332
21
154.82533067268744
31
2.7718245756507197e-11
0
LINE
5
288
100
AcDbEntity
8
BEND_EXTENT
100
AcDbLine
10
-4.9999999999985079
20
504.922515594873
30
2.7746945046225307e-11
11
495.00000000000148
21
504.92251559487124
31
2.7437606472581734e-11
0
LINE
5
289
100
AcDbEntity
8
BEND_EXTENT
100
AcDbLine
10
494.99999999999994
20
83.615145750504183
30
2.8148149208341834e-11
11
-5.0000000000000711
21
83.615145750505945
31
2.8137743550893362e-11
0
LINE
5
290
100
AcDbEntity
8
BEND_EXTENT
100
AcDbLine
10
-76.210184922183046
20
154.82533067269
30
2.828342990842396e-11
11
-76.210184922182194
21
433.71233067269003
31
2.8318957045211965e-11
0
LINE
5
291
100
AcDbEntity
8
BEND_EXTENT
100
AcDbLine
10
563.94823821159866
20
154.82533067268747
30
2.6474909615822134e-11
11
563.94823821159946
21
433.71233067268753
31
2.6652545299762159e-11
0
LINE
5
292
100
AcDbEntity
8
BEND_EXTENT
100
AcDbLine
10
-5.0000000000000711
20
85.877092461091209
30
2.7338382973163249e-11
11
495
21
85.877092461089433
31
2.7313261493823717e-11
0
LINE
5
293
100
AcDbEntity
8
BEND_EXTENT
100
AcDbLine
10
495.00000000000148
20
502.66056888428591
30
2.6798118010397644e-11
11
-4.9999999999984368
21
502.66056888428773
31
2.7089693015647214e-11
0
LINE
5
294
100
AcDbEntity
8
BEND_EXTENT
100
AcDbLine
10
-73.948238211597257
20
433.71233067268986
30
2.7004339337160661e-11
11
-73.94823821159811
21
154.8253306726898
31
2.7004339337160661e-11
0
LINE
5
295
100
AcDbEntity
8
BEND_EXTENT
100
AcDbLine
10
546.43351958583969
20
433.71233067268776
30
2.7008696658926404e-11
11
546.43351958583867
21
154.82533067268753
31
2.7276942061684184e-11
0
LINE
5
296
100
AcDbEntity
8
BEND_EXTENT
100
AcDbLine
10
-56.433519585838212
20
154.82533067268955
30
2.7038986482664476e-11
11
-56.43351958583736
21
433.71233067268986
31
2.7003459345876471e-11
0
LINE
5
297
100
AcDbEntity
8
BEND_EXTENT
100
AcDbLine
10
495
20
103.39181108684933
30
2.7011280831125674e-11
11
-5
21
103.39181108685113
31
2.7018638742071204e-11
0
LINE
5
298
100
AcDbEntity
8
BEND_EXTENT
100
AcDbLine
10
-4.9999999999985789
20
485.1458502585279
30
2.7036402310465207e-11
11
495.00000000000142
21
485.14585025852614
31
2.7932717129281692e-11
0
LINE
5
299
100
AcDbEntity
8
BEND_EXTENT
100
AcDbLine
10
544.17157287525401
20
153.99690354794132
30
2.7008810305821517e-11
11
544.17157287525515
21
434.5407577974338
31
2.7008810305821517e-11
0
LINE
5
300
100
AcDbEntity
8
BEND_EXTENT
100
AcDbLine
10
-5.8284271247461561
20
105.6537577974357
30
2.7036443933095002e-11
11
495.82842712474616
21
105.65375779743391
31
2.7011239208495872e-11
0
LINE
5
301
100
AcDbEntity
8
BEND_EXTENT
100
AcDbLine
10
495.82842712474763
20
482.88390354794154
30
2.7011239208495872e-11
11
-5.8284271247448061
21
482.88390354794336
31
2.7036443933095002e-11
0
LINE
5
302
100
AcDbEntity
8
BEND_EXTENT
100
AcDbLine
10
-54.171572875252707
20
434.5407577974359
30
2.7038872835769364e-11
11
-54.171572875253631
21
153.99690354794359
31
2.7038872835769364e-11
0
ENDSEC
0
SECTION
2
OBJECTS
0
DICTIONARY
5
C
100
AcDbDictionary
3
ACAD_GROUP
350
D
3
ACAD_MLINESTYLE
350
17
0
DICTIONARY
5
D
100
AcDbDictionary
0
DICTIONARY
5
1A
330
C
100
AcDbDictionary
0
DICTIONARY
5
17
100
AcDbDictionary
0
ENDSEC
0
EOF
