0
SECTION
2
HEADER
9
$INSUNITS
70
4
9
$ACADVER
1
AC1014
9
$HANDSEED
5
FFFF
0
ENDSEC
0
SECTION
2
TABLES
0
TABLE
2
VPORT
5
8
100
AcDbSymbolTable
0
ENDTAB
0
TABLE
2
LTYPE
5
5
100
AcDbSymbolTable
0
LTYPE
5
14
100
AcDbSymbolTableRecord
100
AcDbLinetypeTableRecord
2
BYBLOCK
70
0
0
LTYPE
5
15
100
AcDbSymbolTableRecord
100
AcDbLinetypeTableRecord
2
BYLAYER
70
0
0
ENDTAB
0
TABLE
2
LAYER
5
2
100
AcDbSymbolTable
70
2
0
LAYER
5
50
100
AcDbSymbolTableRecord
100
AcDbLayerTableRecord
2
0
70
0
6
CONTINUOUS
0
ENDTAB
0
TABLE
2
STYLE
5
3
100
AcDbSymbolTable
70
1
0
STYLE
5
11
100
AcDbSymbolTableRecord
100
AcDbTextStyleTableRecord
2
STANDARD
70
0
0
ENDTAB
0
TABLE
2
VIEW
5
6
100
AcDbSymbolTable
70
0
0
ENDTAB
0
TABLE
2
UCS
5
7
100
AcDbSymbolTable
70
0
0
ENDTAB
0
TABLE
2
APPID
5
9
100
AcDbSymbolTable
70
2
0
APPID
5
12
100
AcDbSymbolTableRecord
100
AcDbRegAppTableRecord
2
ACAD
70
0
0
ENDTAB
0
TABLE
2
DIMSTYLE
5
A
100
AcDbSymbolTable
70
1
0
ENDTAB
0
TABLE
2
BLOCK_RECORD
5
1
100
AcDbSymbolTable
70
1
0
BLOCK_RECORD
5
1F
100
AcDbSymbolTableRecord
100
AcDbBlockTableRecord
2
*MODEL_SPACE
0
BLOCK_RECORD
5
1B
100
AcDbSymbolTableRecord
100
AcDbBlockTableRecord
2
*PAPER_SPACE
0
ENDTAB
0
ENDSEC
0
SECTION
2
BLOCKS
0
BLOCK
5
20
100
AcDbEntity
100
AcDbBlockBegin
2
*MODEL_SPACE
0
ENDBLK
5
21
100
AcDbEntity
100
AcDbBlockEnd
0
BLOCK
5
1C
100
AcDbEntity
100
AcDbBlockBegin
2
*PAPER_SPACE
0
ENDBLK
5
1D
100
AcDbEntity
100
AcDbBlockEnd
0
ENDSEC
0
SECTION
2
ENTITIES
0
LWPOLYLINE
5
100
100
AcDbEntity
8
OUTER_PROFILES
100
AcDbPolyline
90
42
70
1
43
0.0
10
344.86899580668364
20
373.95590375030167
10
359.40452971261521
20
359.42036984436896
10
359.40452971261521
20
354.89647642319966
10
361.66647642319992
20
354.89647642319966
10
361.66647642319992
20
358.8964764231996
10
388.03862217370744
20
358.8964764231996
42
-0.41421356237309509
10
393.03862217370744
20
353.8964764231996
10
393.03862217370744
20
123.89647642319964
42
-0.41421356237309603
10
388.03862217370744
20
118.89647642319963
10
274.49223820518972
20
118.8964764231996
42
-0.41418779958097512
10
272.83523821159986
20
120.553330672692
10
270.57329150101521
20
120.553330672692
10
270.57329150101515
20
4.9999999999999645
42
-0.41421356237309509
10
265.57329150101515
20
-3.5527136788005009e-14
10
0
20
0
42
-0.41421356237309492
10
-5
20
4.9999999999999982
10
-5
20
120.55333067269203
10
-7.2619467105846525
20
120.55333067269203
42
-0.41418779958097174
10
-8.9189467041745001
20
118.89647642319966
10
-122.46533067269205
20
118.89647642319969
42
-0.41421356237309298
10
-127.46533067269205
20
123.89647642319964
10
-127.46533067269198
20
353.89647642319966
42
-0.41421356237309709
10
-122.46533067269195
20
358.89647642319966
10
-96.09318492218442
20
358.89647642319972
10
-96.09318492218442
20
354.89647642319972
10
-93.831238211599839
20
354.89647642319966
10
-93.83123821159991
20
359.42036984436896
10
-79.295704305666987
20
373.9559037503019
42
-0.19891236737966106
10
-75.760170399734207
20
375.42036984436919
10
-18.312649098442897
20
375.42036984436902
42
-0.30334668360734185
10
-13.693251435886442
20
372.33378700619454
10
-7.9787324203147865
20
358.53771769636234
42
0.66817863791929222
10
-4.2832142902696519
20
358.53771769636234
10
1.4313047253019566
20
372.33378700619431
42
-0.30334668360734562
10
6.0507023878584443
20
375.42036984436891
10
259.52258911315676
20
375.42036984436891
42
-0.30334668360733935
10
264.14198677571318
20
372.33378700619437
10
269.85650579128497
20
358.53771769636194
42
0.66817863791929433
10
273.55202392133015
20
358.53771769636194
10
279.266542936902
20
372.33378700619448
42
-0.30334668360733807
10
283.88594059945842
20
375.42036984436896
10
341.33346190075082
20
375.42036984436891
42
-0.1989123673796617
0
CIRCLE
5
101
100
AcDbEntity
8
INTERIOR_PROFILES
100
AcDbCircle
10
50.762092461092294
20
238.89647642319966
30
0
40
2.2499999999999964
210
0
220
0
230
-1
0
CIRCLE
5
102
100
AcDbEntity
8
INTERIOR_PROFILES
100
AcDbCircle
10
-52.786645750507688
20
368.81391068344192
30
0
40
2.2499999999999964
210
0
220
0
230
-1
0
CIRCLE
5
103
100
AcDbEntity
8
INTERIOR_PROFILES
100
AcDbCircle
10
-132.78664575050766
20
368.81391068344192
30
0
40
2.2499999999999964
210
0
220
0
230
-1
0
CIRCLE
5
104
100
AcDbEntity
8
INTERIOR_PROFILES
100
AcDbCircle
10
-5.0000000000000711
20
318.89647642319966
30
0
40
2.2499999999999964
210
0
220
0
230
-1
0
CIRCLE
5
105
100
AcDbEntity
8
INTERIOR_PROFILES
100
AcDbCircle
10
-5.0000000000000355
20
138.89647642319966
30
0
40
2.2499999999999964
210
0
220
0
230
-1
0
CIRCLE
5
106
100
AcDbEntity
8
INTERIOR_PROFILES
100
AcDbCircle
10
-5.0000000000000711
20
218.89647642319966
30
0
40
2.2499999999999964
210
0
220
0
230
-1
0
CIRCLE
5
107
100
AcDbEntity
8
INTERIOR_PROFILES
100
AcDbCircle
10
-212.78664575050766
20
368.81391068344186
30
0
40
2.2500000000000142
210
0
220
0
230
-1
0
CIRCLE
5
108
100
AcDbEntity
8
INTERIOR_PROFILES
100
AcDbCircle
10
117.46533067268793
20
158.89647642319969
30
0
40
2.2499999999999964
210
0
220
0
230
-1
0
CIRCLE
5
109
100
AcDbEntity
8
INTERIOR_PROFILES
100
AcDbCircle
10
117.46533067268786
20
278.89647642319966
30
0
40
2.2499999999999964
210
0
220
0
230
-1
0
CIRCLE
5
110
100
AcDbEntity
8
INTERIOR_PROFILES
100
AcDbCircle
10
70.762092461092294
20
344.8964764231996
30
0
40
2.2500000000000142
210
0
220
0
230
-1
0
CIRCLE
5
111
100
AcDbEntity
8
INTERIOR_PROFILES
100
AcDbCircle
10
30.762092461092294
20
128.89647642319966
30
0
40
2.2499999999999964
210
0
220
0
230
-1
0
CIRCLE
5
112
100
AcDbEntity
8
INTERIOR_PROFILES
100
AcDbCircle
10
117.46533067268786
20
298.89647642319966
30
0
40
2.2499999999999964
210
0
220
0
230
-1
0
CIRCLE
5
113
100
AcDbEntity
8
INTERIOR_PROFILES
100
AcDbCircle
10
-260.57329150101521
20
198.8964764231996
30
0
40
2.2500000000000142
210
0
220
0
230
-1
0
CIRCLE
5
114
100
AcDbEntity
8
INTERIOR_PROFILES
100
AcDbCircle
10
117.46533067268793
20
138.89647642319969
30
0
40
2.2499999999999964
210
0
220
0
230
-1
0
CIRCLE
5
115
100
AcDbEntity
8
INTERIOR_PROFILES
100
AcDbCircle
10
117.46533067268786
20
218.89647642319969
30
0
40
2.2499999999999964
210
0
220
0
230
-1
0
CIRCLE
5
116
100
AcDbEntity
8
INTERIOR_PROFILES
100
AcDbCircle
10
117.46533067268793
20
178.89647642319969
30
0
40
2.2499999999999964
210
0
220
0
230
-1
0
CIRCLE
5
117
100
AcDbEntity
8
INTERIOR_PROFILES
100
AcDbCircle
10
-192.78664575050766
20
344.89647642319949
30
0
40
2.2500000000000142
210
0
220
0
230
-1
0
CIRCLE
5
118
100
AcDbEntity
8
INTERIOR_PROFILES
100
AcDbCircle
10
117.46533067268786
20
238.89647642319969
30
0
40
2.2499999999999964
210
0
220
0
230
-1
0
CIRCLE
5
119
100
AcDbEntity
8
INTERIOR_PROFILES
100
AcDbCircle
10
-112.78664575050766
20
344.89647642319949
30
0
40
2.2499999999999964
210
0
220
0
230
-1
0
CIRCLE
5
120
100
AcDbEntity
8
INTERIOR_PROFILES
100
AcDbCircle
10
-172.78664575050766
20
368.81391068344186
30
0
40
2.2500000000000142
210
0
220
0
230
-1
0
CIRCLE
5
121
100
AcDbEntity
8
INTERIOR_PROFILES
100
AcDbCircle
10
-212.78664575050766
20
238.8964764231996
30
0
40
2.2499999999999787
210
0
220
0
230
-1
0
CIRCLE
5
122
100
AcDbEntity
8
INTERIOR_PROFILES
100
AcDbCircle
10
-212.78664575050766
20
344.89647642319949
30
0
40
2.2499999999999787
210
0
220
0
230
-1
0
CIRCLE
5
123
100
AcDbEntity
8
INTERIOR_PROFILES
100
AcDbCircle
10
-12.786645750507688
20
368.81391068344192
30
0
40
2.2499999999999964
210
0
220
0
230
-1
0
CIRCLE
5
124
100
AcDbEntity
8
INTERIOR_PROFILES
100
AcDbCircle
10
117.46533067268786
20
258.89647642319966
30
0
40
2.2499999999999964
210
0
220
0
230
-1
0
CIRCLE
5
125
100
AcDbEntity
8
INTERIOR_PROFILES
100
AcDbCircle
10
-152.78664575050763
20
368.81391068344192
30
0
40
2.2499999999999964
210
0
220
0
230
-1
0
CIRCLE
5
126
100
AcDbEntity
8
INTERIOR_PROFILES
100
AcDbCircle
10
-232.78664575050766
20
368.81391068344186
30
0
40
2.2499999999999787
210
0
220
0
230
-1
0
CIRCLE
5
127
100
AcDbEntity
8
INTERIOR_PROFILES
100
AcDbCircle
10
-132.78664575050766
20
238.89647642319966
30
0
40
2.2499999999999964
210
0
220
0
230
-1
0
CIRCLE
5
128
100
AcDbEntity
8
INTERIOR_PROFILES
100
AcDbCircle
10
-112.78664575050766
20
368.81391068344192
30
0
40
2.2499999999999964
210
0
220
0
230
-1
0
CIRCLE
5
129
100
AcDbEntity
8
INTERIOR_PROFILES
100
AcDbCircle
10
117.46533067268786
20
318.89647642319966
30
0
40
2.2499999999999964
210
0
220
0
230
-1
0
CIRCLE
5
130
100
AcDbEntity
8
INTERIOR_PROFILES
100
AcDbCircle
10
-252.78664575050766
20
368.81391068344186
30
0
40
2.2499999999999787
210
0
220
0
230
-1
0
CIRCLE
5
131
100
AcDbEntity
8
INTERIOR_PROFILES
100
AcDbCircle
10
117.46533067268793
20
198.89647642319969
30
0
40
2.2499999999999964
210
0
220
0
230
-1
0
CIRCLE
5
132
100
AcDbEntity
8
INTERIOR_PROFILES
100
AcDbCircle
10
-32.786645750507688
20
368.81391068344192
30
0
40
2.2499999999999964
210
0
220
0
230
-1
0
CIRCLE
5
133
100
AcDbEntity
8
INTERIOR_PROFILES
100
AcDbCircle
10
-192.78664575050766
20
368.81391068344192
30
0
40
2.2499999999999787
210
0
220
0
230
-1
0
CIRCLE
5
134
100
AcDbEntity
8
INTERIOR_PROFILES
100
AcDbCircle
10
117.46533067268786
20
338.89647642319972
30
0
40
2.2499999999999964
210
0
220
0
230
-1
0
CIRCLE
5
135
100
AcDbEntity
8
INTERIOR_PROFILES
100
AcDbCircle
10
-92.786645750507631
20
368.81391068344192
30
0
40
2.2499999999999964
210
0
220
0
230
-1
0
CIRCLE
5
136
100
AcDbEntity
8
INTERIOR_PROFILES
100
AcDbCircle
10
-32.786645750507688
20
344.8964764231996
30
0
40
2.2499999999999964
210
0
220
0
230
-1
0
CIRCLE
5
137
100
AcDbEntity
8
INTERIOR_PROFILES
100
AcDbCircle
10
-260.57329150101521
20
278.8964764231996
30
0
40
2.2500000000000142
210
0
220
0
230
-1
0
CIRCLE
5
138
100
AcDbEntity
8
INTERIOR_PROFILES
100
AcDbCircle
10
-92.786645750507631
20
130.55333067269203
30
0
40
2.2499999999999964
210
0
220
0
230
-1
0
CIRCLE
5
139
100
AcDbEntity
8
INTERIOR_PROFILES
100
AcDbCircle
10
-72.78664575050766
20
368.81391068344192
30
0
40
2.2499999999999964
210
0
220
0
230
-1
0
CIRCLE
5
140
100
AcDbEntity
8
INTERIOR_PROFILES
100
AcDbCircle
10
17.261946710584581
20
238.89647642319966
30
0
40
2.2499999999999964
210
0
220
0
230
-1
0
CIRCLE
5
141
100
AcDbEntity
8
INTERIOR_PROFILES
100
AcDbCircle
10
17.261946710584581
20
178.89647642319966
30
0
40
2.2499999999999964
210
0
220
0
230
-1
0
CIRCLE
5
142
100
AcDbEntity
8
INTERIOR_PROFILES
100
AcDbCircle
10
83.831238211599981
20
178.89647642319969
30
0
40
2.2500000000000142
210
0
220
0
230
-1
0
CIRCLE
5
143
100
AcDbEntity
8
INTERIOR_PROFILES
100
AcDbCircle
10
70.762092461092294
20
128.89647642319969
30
0
40
2.2500000000000142
210
0
220
0
230
-1
0
LWPOLYLINE
5
144
100
AcDbEntity
8
INTERIOR_PROFILES
100
AcDbPolyline
90
4
70
1
43
0.0
10
339.40452971261521
20
334.89647642319966
10
292.83523821159986
20
334.8964764231996
10
292.83523821159991
20
248.8964764231996
10
339.40452971261521
20
248.8964764231996
0
CIRCLE
5
145
100
AcDbEntity
8
INTERIOR_PROFILES
100
AcDbCircle
10
50.762092461092294
20
128.89647642319966
30
0
40
2.2499999999999964
210
0
220
0
230
-1
0
CIRCLE
5
146
100
AcDbEntity
8
INTERIOR_PROFILES
100
AcDbCircle
10
30.762092461092294
20
344.89647642319949
30
0
40
2.2500000000000142
210
0
220
0
230
-1
0
CIRCLE
5
147
100
AcDbEntity
8
INTERIOR_PROFILES
100
AcDbCircle
10
17.261946710584581
20
158.89647642319966
30
0
40
2.2499999999999964
210
0
220
0
230
-1
0
CIRCLE
5
148
100
AcDbEntity
8
INTERIOR_PROFILES
100
AcDbCircle
10
83.831238211599981
20
198.89647642319969
30
0
40
2.2500000000000142
210
0
220
0
230
-1
0
CIRCLE
5
149
100
AcDbEntity
8
INTERIOR_PROFILES
100
AcDbCircle
10
-72.78664575050766
20
238.89647642319966
30
0
40
2.2499999999999964
210
0
220
0
230
-1
0
CIRCLE
5
150
100
AcDbEntity
8
INTERIOR_PROFILES
100
AcDbCircle
10
-32.786645750507617
20
130.55333067269203
30
0
40
2.2499999999999964
210
0
220
0
230
-1
0
CIRCLE
5
151
100
AcDbEntity
8
INTERIOR_PROFILES
100
AcDbCircle
10
-172.7866457505076
20
130.553330672692
30
0
40
2.2500000000000142
210
0
220
0
230
-1
0
CIRCLE
5
152
100
AcDbEntity
8
INTERIOR_PROFILES
100
AcDbCircle
10
-112.78664575050763
20
130.553330672692
30
0
40
2.2499999999999964
210
0
220
0
230
-1
0
CIRCLE
5
153
100
AcDbEntity
8
INTERIOR_PROFILES
100
AcDbCircle
10
-192.7866457505076
20
130.553330672692
30
0
40
2.2500000000000142
210
0
220
0
230
-1
0
CIRCLE
5
154
100
AcDbEntity
8
INTERIOR_PROFILES
100
AcDbCircle
10
-232.78664575050766
20
238.8964764231996
30
0
40
2.2499999999999787
210
0
220
0
230
-1
0
CIRCLE
5
155
100
AcDbEntity
8
INTERIOR_PROFILES
100
AcDbCircle
10
-152.78664575050766
20
238.89647642319966
30
0
40
2.2499999999999964
210
0
220
0
230
-1
0
CIRCLE
5
156
100
AcDbEntity
8
INTERIOR_PROFILES
100
AcDbCircle
10
30.762092461092294
20
238.89647642319966
30
0
40
2.2499999999999964
210
0
220
0
230
-1
0
CIRCLE
5
157
100
AcDbEntity
8
INTERIOR_PROFILES
100
AcDbCircle
10
83.83123821159991
20
218.89647642319969
30
0
40
2.2500000000000142
210
0
220
0
230
-1
0
CIRCLE
5
158
100
AcDbEntity
8
INTERIOR_PROFILES
100
AcDbCircle
10
-132.78664575050763
20
130.553330672692
30
0
40
2.2499999999999964
210
0
220
0
230
-1
0
CIRCLE
5
159
100
AcDbEntity
8
INTERIOR_PROFILES
100
AcDbCircle
10
-52.786645750507653
20
344.8964764231996
30
0
40
2.2500000000000053
210
0
220
0
230
-1
0
CIRCLE
5
160
100
AcDbEntity
8
INTERIOR_PROFILES
100
AcDbCircle
10
17.261946710584581
20
318.89647642319966
30
0
40
2.2499999999999964
210
0
220
0
230
-1
0
CIRCLE
5
161
100
AcDbEntity
8
INTERIOR_PROFILES
100
AcDbCircle
10
83.831238211599981
20
138.89647642319969
30
0
40
2.2500000000000142
210
0
220
0
230
-1
0
LWPOLYLINE
5
162
100
AcDbEntity
8
INTERIOR_PROFILES
100
AcDbPolyline
90
4
70
1
43
0.0
10
15.000000000000071
20
248.89647642319966
10
250.57329150101523
20
248.8964764231996
10
250.57329150101523
20
334.89647642319949
10
15.000000000000071
20
334.89647642319949
0
CIRCLE
5
163
100
AcDbEntity
8
INTERIOR_PROFILES
100
AcDbCircle
10
83.83123821159991
20
278.89647642319966
30
0
40
2.2500000000000142
210
0
220
0
230
-1
0
CIRCLE
5
164
100
AcDbEntity
8
INTERIOR_PROFILES
100
AcDbCircle
10
-260.57329150101521
20
298.8964764231996
30
0
40
2.2500000000000142
210
0
220
0
230
-1
0
CIRCLE
5
165
100
AcDbEntity
8
INTERIOR_PROFILES
100
AcDbCircle
10
-172.78664575050766
20
344.89647642319949
30
0
40
2.2500000000000142
210
0
220
0
230
-1
0
CIRCLE
5
166
100
AcDbEntity
8
INTERIOR_PROFILES
100
AcDbCircle
10
17.261946710584581
20
258.89647642319966
30
0
40
2.2499999999999964
210
0
220
0
230
-1
0
CIRCLE
5
167
100
AcDbEntity
8
INTERIOR_PROFILES
100
AcDbCircle
10
17.261946710584546
20
338.89647642319966
30
0
40
2.2499999999999964
210
0
220
0
230
-1
0
CIRCLE
5
168
100
AcDbEntity
8
INTERIOR_PROFILES
100
AcDbCircle
10
-52.786645750507653
20
238.89647642319966
30
0
40
2.2499999999999964
210
0
220
0
230
-1
0
CIRCLE
5
169
100
AcDbEntity
8
INTERIOR_PROFILES
100
AcDbCircle
10
83.83123821159991
20
298.89647642319966
30
0
40
2.2500000000000142
210
0
220
0
230
-1
0
CIRCLE
5
170
100
AcDbEntity
8
INTERIOR_PROFILES
100
AcDbCircle
10
-260.57329150101521
20
218.8964764231996
30
0
40
2.2500000000000142
210
0
220
0
230
-1
0
CIRCLE
5
171
100
AcDbEntity
8
INTERIOR_PROFILES
100
AcDbCircle
10
-132.78664575050766
20
344.89647642319949
30
0
40
2.2499999999999964
210
0
220
0
230
-1
0
LWPOLYLINE
5
172
100
AcDbEntity
8
INTERIOR_PROFILES
100
AcDbPolyline
90
4
70
1
43
0.0
10
-73.83123821159991
20
334.89647642319966
10
-73.83123821159991
20
248.89647642319969
10
-27.261946710584581
20
248.89647642319966
10
-27.261946710584581
20
334.89647642319949
0
LWPOLYLINE
5
173
100
AcDbEntity
8
INTERIOR_PROFILES
100
AcDbPolyline
90
4
70
1
43
0.0
10
-73.83123821159991
20
228.89647642319969
10
-73.831238211599981
20
138.89647642319969
10
-27.261946710584617
20
138.89647642319966
10
-27.261946710584581
20
228.89647642319966
0
CIRCLE
5
174
100
AcDbEntity
8
INTERIOR_PROFILES
100
AcDbCircle
10
-232.78664575050766
20
344.89647642319949
30
0
40
2.2499999999999787
210
0
220
0
230
-1
0
CIRCLE
5
175
100
AcDbEntity
8
INTERIOR_PROFILES
100
AcDbCircle
10
83.83123821159991
20
258.89647642319966
30
0
40
2.2500000000000142
210
0
220
0
230
-1
0
CIRCLE
5
176
100
AcDbEntity
8
INTERIOR_PROFILES
100
AcDbCircle
10
17.261946710584581
20
278.89647642319966
30
0
40
2.2499999999999964
210
0
220
0
230
-1
0
CIRCLE
5
177
100
AcDbEntity
8
INTERIOR_PROFILES
100
AcDbCircle
10
83.83123821159991
20
338.89647642319972
30
0
40
2.2500000000000142
210
0
220
0
230
-1
0
CIRCLE
5
178
100
AcDbEntity
8
INTERIOR_PROFILES
100
AcDbCircle
10
17.261946710584581
20
198.89647642319966
30
0
40
2.2499999999999964
210
0
220
0
230
-1
0
CIRCLE
5
179
100
AcDbEntity
8
INTERIOR_PROFILES
100
AcDbCircle
10
-232.7866457505076
20
130.553330672692
30
0
40
2.2500000000000142
210
0
220
0
230
-1
0
CIRCLE
5
180
100
AcDbEntity
8
INTERIOR_PROFILES
100
AcDbCircle
10
-52.786645750507617
20
130.55333067269203
30
0
40
2.2499999999999964
210
0
220
0
230
-1
0
CIRCLE
5
181
100
AcDbEntity
8
INTERIOR_PROFILES
100
AcDbCircle
10
-260.57329150101521
20
318.8964764231996
30
0
40
2.2500000000000142
210
0
220
0
230
-1
0
CIRCLE
5
182
100
AcDbEntity
8
INTERIOR_PROFILES
100
AcDbCircle
10
70.762092461092294
20
238.89647642319969
30
0
40
2.2500000000000142
210
0
220
0
230
-1
0
CIRCLE
5
183
100
AcDbEntity
8
INTERIOR_PROFILES
100
AcDbCircle
10
50.762092461092294
20
344.89647642319949
30
0
40
2.2500000000000142
210
0
220
0
230
-1
0
CIRCLE
5
184
100
AcDbEntity
8
INTERIOR_PROFILES
100
AcDbCircle
10
83.83123821159991
20
318.89647642319966
30
0
40
2.2500000000000142
210
0
220
0
230
-1
0
CIRCLE
5
185
100
AcDbEntity
8
INTERIOR_PROFILES
100
AcDbCircle
10
-260.57329150101521
20
178.8964764231996
30
0
40
2.2500000000000142
210
0
220
0
230
-1
0
CIRCLE
5
186
100
AcDbEntity
8
INTERIOR_PROFILES
100
AcDbCircle
10
-92.78664575050766
20
238.89647642319966
30
0
40
2.2499999999999964
210
0
220
0
230
-1
0
CIRCLE
5
187
100
AcDbEntity
8
INTERIOR_PROFILES
100
AcDbCircle
10
17.261946710584581
20
218.89647642319966
30
0
40
2.2499999999999964
210
0
220
0
230
-1
0
CIRCLE
5
188
100
AcDbEntity
8
INTERIOR_PROFILES
100
AcDbCircle
10
17.261946710584581
20
298.89647642319966
30
0
40
2.2499999999999964
210
0
220
0
230
-1
0
CIRCLE
5
189
100
AcDbEntity
8
INTERIOR_PROFILES
100
AcDbCircle
10
83.83123821159991
20
238.89647642319969
30
0
40
2.2500000000000142
210
0
220
0
230
-1
0
LWPOLYLINE
5
190
100
AcDbEntity
8
INTERIOR_PROFILES
100
AcDbPolyline
90
4
70
1
43
0.0
10
250.57329150101523
20
140.55333067269197
10
250.57329150101523
20
228.8964764231996
10
15.000000000000071
20
228.89647642319966
10
15
20
140.55333067269203
0
CIRCLE
5
191
100
AcDbEntity
8
INTERIOR_PROFILES
100
AcDbCircle
10
17.261946710584617
20
138.89647642319966
30
0
40
2.2499999999999964
210
0
220
0
230
-1
0
CIRCLE
5
192
100
AcDbEntity
8
INTERIOR_PROFILES
100
AcDbCircle
10
83.831238211599981
20
158.89647642319969
30
0
40
2.2500000000000142
210
0
220
0
230
-1
0
CIRCLE
5
193
100
AcDbEntity
8
INTERIOR_PROFILES
100
AcDbCircle
10
-172.78664575050766
20
238.8964764231996
30
0
40
2.2499999999999787
210
0
220
0
230
-1
0
CIRCLE
5
194
100
AcDbEntity
8
INTERIOR_PROFILES
100
AcDbCircle
10
-152.78664575050766
20
344.89647642319949
30
0
40
2.2499999999999964
210
0
220
0
230
-1
0
CIRCLE
5
195
100
AcDbEntity
8
INTERIOR_PROFILES
100
AcDbCircle
10
-260.57329150101521
20
138.8964764231996
30
0
40
2.2499999999999787
210
0
220
0
230
-1
0
CIRCLE
5
196
100
AcDbEntity
8
INTERIOR_PROFILES
100
AcDbCircle
10
-5.0000000000001066
20
338.89647642319966
30
0
40
2.2499999999999964
210
0
220
0
230
-1
0
CIRCLE
5
197
100
AcDbEntity
8
INTERIOR_PROFILES
100
AcDbCircle
10
-5.0000000000000711
20
298.89647642319966
30
0
40
2.2499999999999964
210
0
220
0
230
-1
0
CIRCLE
5
198
100
AcDbEntity
8
INTERIOR_PROFILES
100
AcDbCircle
10
-5.0000000000000711
20
278.89647642319966
30
0
40
2.2499999999999964
210
0
220
0
230
-1
0
CIRCLE
5
199
100
AcDbEntity
8
INTERIOR_PROFILES
100
AcDbCircle
10
-260.57329150101526
20
338.8964764231996
30
0
40
2.2499999999999787
210
0
220
0
230
-1
0
CIRCLE
5
200
100
AcDbEntity
8
INTERIOR_PROFILES
100
AcDbCircle
10
-260.57329150101521
20
238.8964764231996
30
0
40
2.2500000000000142
210
0
220
0
230
-1
0
CIRCLE
5
201
100
AcDbEntity
8
INTERIOR_PROFILES
100
AcDbCircle
10
-152.78664575050763
20
130.553330672692
30
0
40
2.2499999999999964
210
0
220
0
230
-1
0
CIRCLE
5
202
100
AcDbEntity
8
INTERIOR_PROFILES
100
AcDbCircle
10
-32.786645750507653
20
238.89647642319966
30
0
40
2.2499999999999964
210
0
220
0
230
-1
0
CIRCLE
5
203
100
AcDbEntity
8
INTERIOR_PROFILES
100
AcDbCircle
10
-260.57329150101521
20
258.8964764231996
30
0
40
2.2500000000000142
210
0
220
0
230
-1
0
CIRCLE
5
204
100
AcDbEntity
8
INTERIOR_PROFILES
100
AcDbCircle
10
-192.78664575050766
20
238.8964764231996
30
0
40
2.2499999999999787
210
0
220
0
230
-1
0
CIRCLE
5
205
100
AcDbEntity
8
INTERIOR_PROFILES
100
AcDbCircle
10
-212.78664575050766
20
130.553330672692
30
0
40
2.2499999999999787
210
0
220
0
230
-1
0
CIRCLE
5
206
100
AcDbEntity
8
INTERIOR_PROFILES
100
AcDbCircle
10
-5.0000000000000711
20
238.89647642319966
30
0
40
2.2499999999999964
210
0
220
0
230
-1
0
CIRCLE
5
207
100
AcDbEntity
8
INTERIOR_PROFILES
100
AcDbCircle
10
-5.0000000000000711
20
158.89647642319966
30
0
40
2.2499999999999964
210
0
220
0
230
-1
0
CIRCLE
5
208
100
AcDbEntity
8
INTERIOR_PROFILES
100
AcDbCircle
10
-5.0000000000000711
20
198.89647642319966
30
0
40
2.2499999999999964
210
0
220
0
230
-1
0
CIRCLE
5
209
100
AcDbEntity
8
INTERIOR_PROFILES
100
AcDbCircle
10
-72.786645750507617
20
130.55333067269203
30
0
40
2.2499999999999964
210
0
220
0
230
-1
0
CIRCLE
5
210
100
AcDbEntity
8
INTERIOR_PROFILES
100
AcDbCircle
10
-112.78664575050766
20
238.89647642319966
30
0
40
2.2499999999999964
210
0
220
0
230
-1
0
CIRCLE
5
211
100
AcDbEntity
8
INTERIOR_PROFILES
100
AcDbCircle
10
-5.0000000000000711
20
178.89647642319966
30
0
40
2.2499999999999964
210
0
220
0
230
-1
0
CIRCLE
5
212
100
AcDbEntity
8
INTERIOR_PROFILES
100
AcDbCircle
10
-72.78664575050766
20
344.8964764231996
30
0
40
2.2500000000000053
210
0
220
0
230
-1
0
CIRCLE
5
213
100
AcDbEntity
8
INTERIOR_PROFILES
100
AcDbCircle
10
-5.0000000000000711
20
258.89647642319966
30
0
40
2.2499999999999964
210
0
220
0
230
-1
0
CIRCLE
5
214
100
AcDbEntity
8
INTERIOR_PROFILES
100
AcDbCircle
10
-260.57329150101521
20
158.8964764231996
30
0
40
2.2500000000000142
210
0
220
0
230
-1
0
CIRCLE
5
215
100
AcDbEntity
8
INTERIOR_PROFILES
100
AcDbCircle
10
-92.78664575050766
20
344.8964764231996
30
0
40
2.2499999999999964
210
0
220
0
230
-1
0
CIRCLE
5
216
100
AcDbEntity
8
INTERIOR_PROFILES
100
AcDbCircle
10
-349.40452971261521
20
338.89647642319966
30
0
40
2.2500000000000142
210
0
220
0
230
-1
0
CIRCLE
5
217
100
AcDbEntity
8
INTERIOR_PROFILES
100
AcDbCircle
10
-349.40452971261521
20
258.8964764231996
30
0
40
2.2500000000000142
210
0
220
0
230
-1
0
CIRCLE
5
218
100
AcDbEntity
8
INTERIOR_PROFILES
100
AcDbCircle
10
-349.40452971261521
20
178.8964764231996
30
0
40
2.2500000000000142
210
0
220
0
230
-1
0
CIRCLE
5
219
100
AcDbEntity
8
INTERIOR_PROFILES
100
AcDbCircle
10
-282.83523821159991
20
318.89647642319966
30
0
40
2.2499999999999787
210
0
220
0
230
-1
0
CIRCLE
5
220
100
AcDbEntity
8
INTERIOR_PROFILES
100
AcDbCircle
10
-282.83523821159991
20
238.8964764231996
30
0
40
2.2499999999999787
210
0
220
0
230
-1
0
CIRCLE
5
221
100
AcDbEntity
8
INTERIOR_PROFILES
100
AcDbCircle
10
-282.83523821159986
20
158.8964764231996
30
0
40
2.2500000000000142
210
0
220
0
230
-1
0
CIRCLE
5
222
100
AcDbEntity
8
INTERIOR_PROFILES
100
AcDbCircle
10
-282.83523821159986
20
178.8964764231996
30
0
40
2.2500000000000142
210
0
220
0
230
-1
0
CIRCLE
5
223
100
AcDbEntity
8
INTERIOR_PROFILES
100
AcDbCircle
10
-282.83523821159991
20
258.8964764231996
30
0
40
2.2499999999999787
210
0
220
0
230
-1
0
CIRCLE
5
224
100
AcDbEntity
8
INTERIOR_PROFILES
100
AcDbCircle
10
-282.83523821159991
20
338.89647642319966
30
0
40
2.2499999999999787
210
0
220
0
230
-1
0
CIRCLE
5
225
100
AcDbEntity
8
INTERIOR_PROFILES
100
AcDbCircle
10
-349.40452971261521
20
198.8964764231996
30
0
40
2.2500000000000142
210
0
220
0
230
-1
0
CIRCLE
5
226
100
AcDbEntity
8
INTERIOR_PROFILES
100
AcDbCircle
10
-349.40452971261521
20
278.8964764231996
30
0
40
2.2500000000000142
210
0
220
0
230
-1
0
CIRCLE
5
227
100
AcDbEntity
8
INTERIOR_PROFILES
100
AcDbCircle
10
-349.40452971261521
20
318.89647642319966
30
0
40
2.2500000000000142
210
0
220
0
230
-1
0
CIRCLE
5
228
100
AcDbEntity
8
INTERIOR_PROFILES
100
AcDbCircle
10
-349.40452971261521
20
238.8964764231996
30
0
40
2.2500000000000142
210
0
220
0
230
-1
0
CIRCLE
5
229
100
AcDbEntity
8
INTERIOR_PROFILES
100
AcDbCircle
10
-349.40452971261521
20
158.8964764231996
30
0
40
2.2500000000000142
210
0
220
0
230
-1
0
CIRCLE
5
230
100
AcDbEntity
8
INTERIOR_PROFILES
100
AcDbCircle
10
-282.83523821159991
20
298.8964764231996
30
0
40
2.2499999999999787
210
0
220
0
230
-1
0
CIRCLE
5
231
100
AcDbEntity
8
INTERIOR_PROFILES
100
AcDbCircle
10
-282.83523821159991
20
218.8964764231996
30
0
40
2.2499999999999787
210
0
220
0
230
-1
0
CIRCLE
5
232
100
AcDbEntity
8
INTERIOR_PROFILES
100
AcDbCircle
10
-282.83523821159986
20
138.89647642319963
30
0
40
2.2500000000000142
210
0
220
0
230
-1
0
CIRCLE
5
233
100
AcDbEntity
8
INTERIOR_PROFILES
100
AcDbCircle
10
-282.83523821159991
20
198.8964764231996
30
0
40
2.2499999999999787
210
0
220
0
230
-1
0
CIRCLE
5
234
100
AcDbEntity
8
INTERIOR_PROFILES
100
AcDbCircle
10
-282.83523821159991
20
278.8964764231996
30
0
40
2.2499999999999787
210
0
220
0
230
-1
0
CIRCLE
5
235
100
AcDbEntity
8
INTERIOR_PROFILES
100
AcDbCircle
10
-349.40452971261521
20
138.89647642319963
30
0
40
2.2500000000000142
210
0
220
0
230
-1
0
CIRCLE
5
236
100
AcDbEntity
8
INTERIOR_PROFILES
100
AcDbCircle
10
-349.40452971261521
20
218.8964764231996
30
0
40
2.2500000000000142
210
0
220
0
230
-1
0
CIRCLE
5
237
100
AcDbEntity
8
INTERIOR_PROFILES
100
AcDbCircle
10
-349.40452971261521
20
298.8964764231996
30
0
40
2.2500000000000142
210
0
220
0
230
-1
0
CIRCLE
5
238
100
AcDbEntity
8
INTERIOR_PROFILES
100
AcDbCircle
10
-336.3353839621077
20
344.8964764231996
30
0
40
2.2499999999999432
210
0
220
0
230
-1
0
CIRCLE
5
239
100
AcDbEntity
8
INTERIOR_PROFILES
100
AcDbCircle
10
-316.33538396210764
20
238.8964764231996
30
0
40
2.2500000000000142
210
0
220
0
230
-1
0
CIRCLE
5
240
100
AcDbEntity
8
INTERIOR_PROFILES
100
AcDbCircle
10
-296.33538396210758
20
128.8964764231996
30
0
40
2.2499999999999787
210
0
220
0
230
-1
0
CIRCLE
5
241
100
AcDbEntity
8
INTERIOR_PROFILES
100
AcDbCircle
10
-336.3353839621077
20
238.8964764231996
30
0
40
2.2500000000000142
210
0
220
0
230
-1
0
CIRCLE
5
242
100
AcDbEntity
8
INTERIOR_PROFILES
100
AcDbCircle
10
-316.33538396210764
20
344.89647642319949
30
0
40
2.2499999999999787
210
0
220
0
230
-1
0
CIRCLE
5
243
100
AcDbEntity
8
INTERIOR_PROFILES
100
AcDbCircle
10
-296.33538396210758
20
238.8964764231996
30
0
40
2.2500000000000142
210
0
220
0
230
-1
0
CIRCLE
5
244
100
AcDbEntity
8
INTERIOR_PROFILES
100
AcDbCircle
10
-316.33538396210758
20
128.8964764231996
30
0
40
2.2499999999999787
210
0
220
0
230
-1
0
CIRCLE
5
245
100
AcDbEntity
8
INTERIOR_PROFILES
100
AcDbCircle
10
-336.33538396210758
20
128.89647642319963
30
0
40
2.2500000000000142
210
0
220
0
230
-1
0
CIRCLE
5
246
100
AcDbEntity
8
INTERIOR_PROFILES
100
AcDbCircle
10
-296.33538396210758
20
344.89647642319949
30
0
40
2.2500000000000142
210
0
220
0
230
-1
0
CIRCLE
5
247
100
AcDbEntity
8
INTERIOR_PROFILES
100
AcDbCircle
10
-383.03862217370744
20
298.8964764231996
30
0
40
2.2500000000000142
210
0
220
0
230
-1
0
CIRCLE
5
248
100
AcDbEntity
8
INTERIOR_PROFILES
100
AcDbCircle
10
-383.03862217370744
20
218.89647642319957
30
0
40
2.2500000000000142
210
0
220
0
230
-1
0
CIRCLE
5
249
100
AcDbEntity
8
INTERIOR_PROFILES
100
AcDbCircle
10
-383.03862217370744
20
138.8964764231996
30
0
40
2.2500000000000142
210
0
220
0
230
-1
0
CIRCLE
5
250
100
AcDbEntity
8
INTERIOR_PROFILES
100
AcDbCircle
10
-383.03862217370744
20
198.89647642319957
30
0
40
2.2500000000000142
210
0
220
0
230
-1
0
CIRCLE
5
251
100
AcDbEntity
8
INTERIOR_PROFILES
100
AcDbCircle
10
-383.03862217370744
20
278.8964764231996
30
0
40
2.2500000000000142
210
0
220
0
230
-1
0
CIRCLE
5
252
100
AcDbEntity
8
INTERIOR_PROFILES
100
AcDbCircle
10
-383.03862217370744
20
318.8964764231996
30
0
40
2.2500000000000142
210
0
220
0
230
-1
0
CIRCLE
5
253
100
AcDbEntity
8
INTERIOR_PROFILES
100
AcDbCircle
10
-383.03862217370744
20
238.89647642319957
30
0
40
2.2500000000000142
210
0
220
0
230
-1
0
CIRCLE
5
254
100
AcDbEntity
8
INTERIOR_PROFILES
100
AcDbCircle
10
-383.03862217370738
20
158.8964764231996
30
0
40
2.2500000000000142
210
0
220
0
230
-1
0
CIRCLE
5
255
100
AcDbEntity
8
INTERIOR_PROFILES
100
AcDbCircle
10
-383.03862217370738
20
178.89647642319957
30
0
40
2.2500000000000142
210
0
220
0
230
-1
0
CIRCLE
5
256
100
AcDbEntity
8
INTERIOR_PROFILES
100
AcDbCircle
10
-383.03862217370744
20
258.8964764231996
30
0
40
2.2500000000000142
210
0
220
0
230
-1
0
CIRCLE
5
257
100
AcDbEntity
8
INTERIOR_PROFILES
100
AcDbCircle
10
-383.03862217370744
20
338.8964764231996
30
0
40
2.2500000000000142
210
0
220
0
230
-1
0
CIRCLE
5
258
100
AcDbEntity
8
INTERIOR_PROFILES
100
AcDbCircle
10
-32.786645750507581
20
10.000000000000036
30
0
40
2.2499999999999964
210
0
220
0
230
-1
0
CIRCLE
5
259
100
AcDbEntity
8
INTERIOR_PROFILES
100
AcDbCircle
10
-112.78664575050757
20
10.000000000000071
30
0
40
2.2499999999999964
210
0
220
0
230
-1
0
CIRCLE
5
260
100
AcDbEntity
8
INTERIOR_PROFILES
100
AcDbCircle
10
-192.78664575050757
20
10.000000000000036
30
0
40
2.2499999999999787
210
0
220
0
230
-1
0
CIRCLE
5
261
100
AcDbEntity
8
INTERIOR_PROFILES
100
AcDbCircle
10
-12.786645750507581
20
10.000000000000036
30
0
40
2.2499999999999964
210
0
220
0
230
-1
0
CIRCLE
5
262
100
AcDbEntity
8
INTERIOR_PROFILES
100
AcDbCircle
10
-212.78664575050757
20
10.000000000000036
30
0
40
2.2499999999999787
210
0
220
0
230
-1
0
CIRCLE
5
263
100
AcDbEntity
8
INTERIOR_PROFILES
100
AcDbCircle
10
-132.78664575050757
20
10.000000000000036
30
0
40
2.2499999999999964
210
0
220
0
230
-1
0
CIRCLE
5
264
100
AcDbEntity
8
INTERIOR_PROFILES
100
AcDbCircle
10
-52.786645750507581
20
10.000000000000036
30
0
40
2.2499999999999964
210
0
220
0
230
-1
0
CIRCLE
5
265
100
AcDbEntity
8
INTERIOR_PROFILES
100
AcDbCircle
10
-92.786645750507574
20
10.000000000000036
30
0
40
2.2499999999999964
210
0
220
0
230
-1
0
CIRCLE
5
266
100
AcDbEntity
8
INTERIOR_PROFILES
100
AcDbCircle
10
-172.78664575050757
20
10.000000000000036
30
0
40
2.2500000000000142
210
0
220
0
230
-1
0
CIRCLE
5
267
100
AcDbEntity
8
INTERIOR_PROFILES
100
AcDbCircle
10
-252.78664575050757
20
10.000000000000036
30
0
40
2.2499999999999787
210
0
220
0
230
-1
0
CIRCLE
5
268
100
AcDbEntity
8
INTERIOR_PROFILES
100
AcDbCircle
10
-232.78664575050757
20
10.000000000000036
30
0
40
2.2499999999999787
210
0
220
0
230
-1
0
CIRCLE
5
269
100
AcDbEntity
8
INTERIOR_PROFILES
100
AcDbCircle
10
-152.78664575050757
20
10.000000000000036
30
0
40
2.2499999999999964
210
0
220
0
230
-1
0
CIRCLE
5
270
100
AcDbEntity
8
INTERIOR_PROFILES
100
AcDbCircle
10
-72.786645750507574
20
10.000000000000036
30
0
40
2.2499999999999964
210
0
220
0
230
-1
0
CIRCLE
5
271
100
AcDbEntity
8
INTERIOR_PROFILES
100
AcDbCircle
10
-94.999999999999986
20
43.634092461092067
30
0
40
2.2499999999999964
210
0
220
0
230
-1
0
CIRCLE
5
272
100
AcDbEntity
8
INTERIOR_PROFILES
100
AcDbCircle
10
-15
20
43.634092461092067
30
0
40
2.2499999999999964
210
0
220
0
230
-1
0
CIRCLE
5
273
100
AcDbEntity
8
INTERIOR_PROFILES
100
AcDbCircle
10
-15
20
108.29138396210743
30
0
40
2.2499999999999964
210
0
220
0
230
-1
0
CIRCLE
5
274
100
AcDbEntity
8
INTERIOR_PROFILES
100
AcDbCircle
10
-94.999999999999986
20
108.29138396210739
30
0
40
2.2499999999999964
210
0
220
0
230
-1
0
CIRCLE
5
275
100
AcDbEntity
8
INTERIOR_PROFILES
100
AcDbCircle
10
-190.57329150101521
20
108.29138396210739
30
0
40
2.2499999999999787
210
0
220
0
230
-1
0
CIRCLE
5
276
100
AcDbEntity
8
INTERIOR_PROFILES
100
AcDbCircle
10
-260.57329150101521
20
55.962738211599685
30
0
40
2.2499999999999787
210
0
220
0
230
-1
0
CIRCLE
5
277
100
AcDbEntity
8
INTERIOR_PROFILES
100
AcDbCircle
10
-190.57329150101521
20
43.634092461092067
30
0
40
2.2500000000000142
210
0
220
0
230
-1
0
CIRCLE
5
278
100
AcDbEntity
8
INTERIOR_PROFILES
100
AcDbCircle
10
-210.57329150101521
20
43.634092461092067
30
0
40
2.2500000000000142
210
0
220
0
230
-1
0
CIRCLE
5
279
100
AcDbEntity
8
INTERIOR_PROFILES
100
AcDbCircle
10
-260.57329150101521
20
75.962738211599699
30
0
40
2.2499999999999787
210
0
220
0
230
-1
0
CIRCLE
5
280
100
AcDbEntity
8
INTERIOR_PROFILES
100
AcDbCircle
10
-210.57329150101521
20
108.29138396210739
30
0
40
2.2499999999999787
210
0
220
0
230
-1
0
CIRCLE
5
281
100
AcDbEntity
8
INTERIOR_PROFILES
100
AcDbCircle
10
-74.999999999999972
20
108.2913839621074
30
0
40
2.2499999999999964
210
0
220
0
230
-1
0
CIRCLE
5
282
100
AcDbEntity
8
INTERIOR_PROFILES
100
AcDbCircle
10
-5
20
95.962738211599756
30
0
40
2.2499999999999964
210
0
220
0
230
-1
0
CIRCLE
5
283
100
AcDbEntity
8
INTERIOR_PROFILES
100
AcDbCircle
10
-35
20
43.634092461092067
30
0
40
2.2499999999999964
210
0
220
0
230
-1
0
LWPOLYLINE
5
284
100
AcDbEntity
8
INTERIOR_PROFILES
100
AcDbPolyline
90
4
70
1
43
0.0
10
95.000000000000014
20
98.291383962107375
10
15
20
98.291383962107403
10
15.000000000000036
20
53.634092461092067
10
95.000000000000014
20
53.634092461092031
0
CIRCLE
5
285
100
AcDbEntity
8
INTERIOR_PROFILES
100
AcDbCircle
10
-5
20
55.962738211599721
30
0
40
2.2499999999999964
210
0
220
0
230
-1
0
CIRCLE
5
286
100
AcDbEntity
8
INTERIOR_PROFILES
100
AcDbCircle
10
-74.999999999999972
20
43.634092461092067
30
0
40
2.2499999999999964
210
0
220
0
230
-1
0
CIRCLE
5
287
100
AcDbEntity
8
INTERIOR_PROFILES
100
AcDbCircle
10
-250.57329150101521
20
108.29138396210737
30
0
40
2.2499999999999787
210
0
220
0
230
-1
0
CIRCLE
5
288
100
AcDbEntity
8
INTERIOR_PROFILES
100
AcDbCircle
10
-35
20
108.2913839621074
30
0
40
2.2499999999999964
210
0
220
0
230
-1
0
CIRCLE
5
289
100
AcDbEntity
8
INTERIOR_PROFILES
100
AcDbCircle
10
-170.57329150101515
20
108.29138396210739
30
0
40
2.2500000000000142
210
0
220
0
230
-1
0
CIRCLE
5
290
100
AcDbEntity
8
INTERIOR_PROFILES
100
AcDbCircle
10
-250.57329150101521
20
43.634092461092031
30
0
40
2.2499999999999787
210
0
220
0
230
-1
0
CIRCLE
5
291
100
AcDbEntity
8
INTERIOR_PROFILES
100
AcDbCircle
10
-230.57329150101521
20
43.634092461092067
30
0
40
2.2499999999999787
210
0
220
0
230
-1
0
CIRCLE
5
292
100
AcDbEntity
8
INTERIOR_PROFILES
100
AcDbCircle
10
-170.57329150101521
20
43.634092461092102
30
0
40
2.2500000000000142
210
0
220
0
230
-1
0
CIRCLE
5
293
100
AcDbEntity
8
INTERIOR_PROFILES
100
AcDbCircle
10
-260.57329150101521
20
95.962738211599685
30
0
40
2.2499999999999787
210
0
220
0
230
-1
0
CIRCLE
5
294
100
AcDbEntity
8
INTERIOR_PROFILES
100
AcDbCircle
10
-230.57329150101521
20
108.29138396210739
30
0
40
2.2499999999999787
210
0
220
0
230
-1
0
CIRCLE
5
295
100
AcDbEntity
8
INTERIOR_PROFILES
100
AcDbCircle
10
-54.999999999999964
20
108.29138396210743
30
0
40
2.2499999999999964
210
0
220
0
230
-1
0
CIRCLE
5
296
100
AcDbEntity
8
INTERIOR_PROFILES
100
AcDbCircle
10
-5
20
75.962738211599742
30
0
40
2.2499999999999964
210
0
220
0
230
-1
0
CIRCLE
5
297
100
AcDbEntity
8
INTERIOR_PROFILES
100
AcDbCircle
10
-54.999999999999964
20
43.634092461092067
30
0
40
2.2499999999999964
210
0
220
0
230
-1
0
LWPOLYLINE
5
298
100
AcDbEntity
8
INTERIOR_PROFILES
100
AcDbPolyline
90
4
70
1
43
0.0
10
250.57329150101521
20
98.291383962107361
10
170.57329150101523
20
98.291383962107375
10
170.57329150101521
20
53.634092461092067
10
250.57329150101521
20
53.634092461092031
0
LWPOLYLINE
5
299
100
AcDbEntity
8
INTERIOR_PROFILES
100
AcDbPolyline
90
4
70
1
43
0.0
10
127.7866457505076
20
34.477238211599541
10
137.7866457505076
20
34.477238211599506
10
137.7866457505076
20
40.477238211599555
10
127.7866457505076
20
40.477238211599555
0
CIRCLE
5
300
100
AcDbEntity
8
INTERIOR_PROFILES
100
AcDbCircle
10
-150.81786867076448
20
93.008461131856791
30
0
40
1.7500000000000071
210
0
220
0
230
-1
0
CIRCLE
5
301
100
AcDbEntity
8
INTERIOR_PROFILES
100
AcDbCircle
10
-114.75542283025055
20
93.008461131856762
30
0
40
1.7500000000000071
210
0
220
0
230
-1
0
CIRCLE
5
302
100
AcDbEntity
8
INTERIOR_PROFILES
100
AcDbCircle
10
-114.75542283025062
20
56.946015291342817
30
0
40
1.7500000000000071
210
0
220
0
230
-1
0
CIRCLE
5
303
100
AcDbEntity
8
INTERIOR_PROFILES
100
AcDbCircle
10
-142.5450732758174
20
51.418310132562048
30
0
40
1.7500000000000071
210
0
220
0
230
-1
0
CIRCLE
5
304
100
AcDbEntity
8
INTERIOR_PROFILES
100
AcDbCircle
10
-150.81786867076457
20
56.946015291342924
30
0
40
1.7500000000000071
210
0
220
0
230
-1
0
CIRCLE
5
305
100
AcDbEntity
8
INTERIOR_PROFILES
100
AcDbCircle
10
-123.02821822519772
20
98.536166290637638
30
0
40
1.7500000000000071
210
0
220
0
230
-1
0
CIRCLE
5
306
100
AcDbEntity
8
INTERIOR_PROFILES
100
AcDbCircle
10
-109.22771767146976
20
65.21881068628997
30
0
40
1.7500000000000071
210
0
220
0
230
-1
0
CIRCLE
5
307
100
AcDbEntity
8
INTERIOR_PROFILES
100
AcDbCircle
10
-156.34557382954534
20
84.735665736909681
30
0
40
1.7500000000000071
210
0
220
0
230
-1
0
CIRCLE
5
308
100
AcDbEntity
8
INTERIOR_PROFILES
100
AcDbCircle
10
-142.54507327581732
20
98.536166290637667
30
0
40
1.7500000000000071
210
0
220
0
230
-1
0
CIRCLE
5
309
100
AcDbEntity
8
INTERIOR_PROFILES
100
AcDbCircle
10
-109.22771767146972
20
84.735665736909567
30
0
40
1.7500000000000071
210
0
220
0
230
-1
0
CIRCLE
5
310
100
AcDbEntity
8
INTERIOR_PROFILES
100
AcDbCircle
10
-123.02821822519782
20
51.418310132561977
30
0
40
1.7500000000000071
210
0
220
0
230
-1
0
CIRCLE
5
311
100
AcDbEntity
8
INTERIOR_PROFILES
100
AcDbCircle
10
-156.3455738295454
20
65.218810686290112
30
0
40
1.7500000000000071
210
0
220
0
230
-1
0
CIRCLE
5
312
100
AcDbEntity
8
INTERIOR_PROFILES
100
AcDbCircle
10
-132.7866457505076
20
49.47723821159979
30
0
40
1.7500000000000071
210
0
220
0
230
-1
0
CIRCLE
5
313
100
AcDbEntity
8
INTERIOR_PROFILES
100
AcDbCircle
10
-107.28664575050756
20
74.977238211599783
30
0
40
1.7500000000000071
210
0
220
0
230
-1
0
CIRCLE
5
314
100
AcDbEntity
8
INTERIOR_PROFILES
100
AcDbCircle
10
-158.28664575050757
20
74.977238211599882
30
0
40
1.7500000000000071
210
0
220
0
230
-1
0
CIRCLE
5
315
100
AcDbEntity
8
INTERIOR_PROFILES
100
AcDbCircle
10
-132.78664575050752
20
100.47723821159984
30
0
40
1.7500000000000071
210
0
220
0
230
-1
0
CIRCLE
5
316
100
AcDbEntity
8
INTERIOR_PROFILES
100
AcDbCircle
10
-132.78664575050757
20
74.977238211599797
30
0
40
10
210
0
220
0
230
-1
0
LWPOLYLINE
5
317
100
AcDbEntity
8
INTERIOR_PROFILES
100
AcDbPolyline
90
4
70
1
43
0.0
10
339.40452971261521
20
138.89647642319963
10
339.40452971261521
20
228.8964764231996
10
292.83523821159991
20
228.8964764231996
10
292.83523821159991
20
138.89647642319963
0
LINE
5
318
100
AcDbEntity
8
BEND
100
AcDbLine
10
-6.1309733552922907
20
357.15842313378431
30
-1.7503984535029853e-12
11
271.70426485630753
21
357.15842313378425
31
-1.7535058041981333e-12
0
LINE
5
319
100
AcDbEntity
8
BEND
100
AcDbLine
10
271.70426485630753
20
357.15842313378425
30
-1.7535058041981333e-12
11
359.40452971261521
21
357.15842313378425
31
-2.0212096008673564e-12
0
LINE
5
320
100
AcDbEntity
8
BEND
100
AcDbLine
10
-93.83123821159991
20
357.15842313378431
30
-1.9860505715887822e-12
11
-6.1309733552922907
21
357.15842313378431
31
-1.7503984535029853e-12
0
LINE
5
321
100
AcDbEntity
8
BEND
100
AcDbLine
10
271.70426485630753
20
357.30308456109219
30
-1.7395912109200327e-12
11
271.70426485630753
21
120.55333067269196
31
-2.8097593219212741e-12
0
LINE
5
322
100
AcDbEntity
8
BEND
100
AcDbLine
10
-6.1309733552923618
20
120.55333067269201
30
-2.8066519712261265e-12
11
-6.1309733552922907
21
357.30308456109219
31
-1.722642918527747e-12
0
LINE
5
323
100
AcDbEntity
8
BEND
100
AcDbLine
10
360.5355030679076
20
354.89647642319966
30
-1.9085486083882233e-12
11
360.53550306790754
21
118.89647642319964
31
-2.8172649717922801e-12
0
LINE
5
324
100
AcDbEntity
8
BEND
100
AcDbLine
10
270.57329150101515
20
119.42235731739967
30
-2.788825838161362e-12
11
-4.9999999999999289
21
119.42235731739969
31
-2.8138634358290126e-12
0
LINE
5
325
100
AcDbEntity
8
BEND
100
AcDbLine
10
270.57329150101515
20
32.503119105799776
30
-1.0138148694580905e-12
11
-4.9999999999999645
21
32.503119105799811
31
-9.8022618351115856e-13
0
LINE
5
326
100
AcDbEntity
8
BEND
100
AcDbLine
10
-94.962211566892094
20
118.89647642319969
30
-3.0613627884350891e-12
11
-94.962211566892023
21
354.89647642319966
31
-2.0014037189193954e-12
0
LINE
5
327
100
AcDbEntity
8
BEND_EXTENT
100
AcDbLine
10
-7.2619467105846525
20
120.55333067269203
30
-2.8188047702337154e-12
11
-7.2619467105845814
21
354.89647642319966
31
-1.7726490451874169e-12
0
LINE
5
328
100
AcDbEntity
8
BEND_EXTENT
100
AcDbLine
10
-7.2619467105845814
20
354.89647642319966
30
-1.7726490451874169e-12
11
-93.831238211599839
21
354.89647642319966
31
-1.9818191189945537e-12
0
LINE
5
329
100
AcDbEntity
8
BEND_EXTENT
100
AcDbLine
10
-93.831238211599839
20
354.89647642319966
30
-1.9818191189945537e-12
11
-93.83123821159991
21
118.89647642319969
31
-3.0353713802319265e-12
0
LINE
5
330
100
AcDbEntity
8
BEND_EXTENT
100
AcDbLine
10
359.40452971261521
20
118.89647642319963
30
-2.8786398262141948e-12
11
359.40452971261521
21
354.89647642319966
31
-1.8606147017648274e-12
0
LINE
5
331
100
AcDbEntity
8
BEND_EXTENT
100
AcDbLine
10
359.40452971261521
20
354.89647642319966
30
-1.8606147017648274e-12
11
272.83523821159986
21
354.89647642319966
31
-1.7500405444799192e-12
0
LINE
5
332
100
AcDbEntity
8
BEND_EXTENT
100
AcDbLine
10
272.83523821159986
20
354.89647642319966
30
-1.7500405444799192e-12
11
272.83523821159986
21
120.553330672692
31
-2.7606691327382125e-12
0
LINE
5
333
100
AcDbEntity
8
BEND_EXTENT
100
AcDbLine
10
270.57329150101515
20
31.372145750507521
30
-9.3824180478920982e-13
11
-4.9999999999999289
21
31.372145750507556
31
-9.2553181961960475e-13
0
LINE
5
334
100
AcDbEntity
8
BEND_EXTENT
100
AcDbLine
10
-96.093184922184491
20
118.89647642319969
30
-2.9819763495944675e-12
11
-96.09318492218442
21
354.89647642319972
31
-1.9994783619331052e-12
0
LINE
5
335
100
AcDbEntity
8
BEND_EXTENT
100
AcDbLine
10
361.66647642319992
20
354.89647642319966
30
-1.9140097324022859e-12
11
361.66647642319987
21
118.89647642319957
31
-2.8609805832756433e-12
0
LINE
5
336
100
AcDbEntity
8
BEND_EXTENT
100
AcDbLine
10
273.91763041189245
20
359.42036984436896
30
-1.8009491547710274e-12
11
359.40452971261521
21
359.42036984436896
31
-2.0358183687451696e-12
0
LINE
5
337
100
AcDbEntity
8
BEND_EXTENT
100
AcDbLine
10
-3.9176077997073833
20
359.42036984436891
30
-1.7170805705699623e-12
11
269.4908993007229
21
359.42036984436879
31
-1.729690711601999e-12
0
LINE
5
338
100
AcDbEntity
8
BEND_EXTENT
100
AcDbLine
10
-93.83123821159991
20
359.42036984436896
30
-1.9438599652468658e-12
11
-8.3443389108769139
21
359.42036984436891
31
-1.7346399693709452e-12
0
LWPOLYLINE
5
339
100
AcDbEntity
8
BEND_EXTENT
100
AcDbPolyline
90
4
70
1
43
0.0
10
270.57329150101521
20
354.89647642319966
10
-4.9999999999999289
20
354.89647642319966
10
-5
20
120.55333067269203
10
270.57329150101521
20
120.553330672692
0
LINE
5
340
100
AcDbEntity
8
BEND_EXTENT
100
AcDbLine
10
-4.9999999999999645
20
33.634092461092209
30
-1.0220154373067773e-12
11
270.57329150101521
21
33.634092461092173
31
-1.0347254224763824e-12
0
LINE
5
341
100
AcDbEntity
8
BEND_EXTENT
100
AcDbLine
10
270.57329150101515
20
118.2913839621074
30
-2.770662599959604e-12
11
-4.9999999999999289
21
118.29138396210739
31
-2.7934797515780043e-12
0
ENDSEC
0
SECTION
2
OBJECTS
0
DICTIONARY
5
C
100
AcDbDictionary
3
ACAD_GROUP
350
D
3
ACAD_MLINESTYLE
350
17
0
DICTIONARY
5
D
100
AcDbDictionary
0
DICTIONARY
5
1A
330
C
100
AcDbDictionary
0
DICTIONARY
5
17
100
AcDbDictionary
0
ENDSEC
0
EOF
